<?xml version="1.0" encoding="utf-8"?>
<!-- Generator: Adobe Illustrator 25.1.0, SVG Export Plug-In . SVG Version: 6.00 Build 0)  -->
<svg version="1.1" id="_x32_763100024_x5F_Layer_x5F_1_x5F_grid"
	 xmlns="http://www.w3.org/2000/svg" xmlns:xlink="http://www.w3.org/1999/xlink" x="0px" y="0px" viewBox="0 0 512 512"
	 style="enable-background:new 0 0 512 512;" xml:space="preserve">
<style type="text/css">
	.st0{fill:#FA7B90;}
	.st1{fill:#FBDF63;}
	.st2{fill:url(#SVGID_1_);}
</style>
<path class="st0" d="M479.9,44.7l-57.8,57.8l-57.8-57.8H479.9z"/>
<path class="st1" d="M311.5,51h-43c-4.4,0-8-3.6-8-8s3.6-8,8-8h43c4.4,0,8,3.6,8,8S315.9,51,311.5,51z M298,73c0-4.4-3.6-8-8-8
	h-73.8c-4.4,0-8,3.6-8,8s3.6,8,8,8H290C294.5,81,298,77.4,298,73z M54.1,33c0-4.4-3.6-8-8-8s-8,3.6-8,8c0,11.4-9.3,20.7-20.8,20.7
	c-4.4,0-8,3.6-8,8s3.6,8,8,8C37.6,69.7,54.1,53.2,54.1,33z M104.1,61.7c0-4.4-3.6-8-8-8c-11.4,0-20.8-9.3-20.8-20.8c0-4.4-3.6-8-8-8
	s-8,3.6-8,8c0,20.3,16.5,36.7,36.8,36.7C100.5,69.7,104.1,66.1,104.1,61.7z M75.4,111.7c0-11.4,9.3-20.8,20.8-20.8c4.4,0,8-3.6,8-8
	s-3.6-8-8-8c-20.3,0-36.8,16.5-36.8,36.8c0,4.4,3.6,8,8,8S75.4,116.1,75.4,111.7z M54.1,111.7C54.1,91.5,37.6,75,17.4,75
	c-4.4,0-8,3.6-8,8s3.6,8,8,8c11.4,0,20.8,9.3,20.8,20.8c0,4.4,3.6,8,8,8S54.1,116.1,54.1,111.7z M311,469.2c0-4.4-3.6-8-8-8H85.1
	c-4.4,0-8,3.6-8,8s3.6,8,8,8H303C307.4,477.2,311,473.6,311,469.2z"/>
<linearGradient id="SVGID_1_" gradientUnits="userSpaceOnUse" x1="245.076" y1="385.4261" x2="375.351" y2="255.151">
	<stop  offset="0" style="stop-color:#FA7B90"/>
	<stop  offset="1" style="stop-color:#FDD748"/>
</linearGradient>
<path class="st2" d="M285.2,194.7c-44,17.1-75.1,60.1-74.3,110.4c1,62.6,52,113.5,114.6,114.5c50.2,0.8,93.2-30.3,110.3-74.3
	c5-13,1.9-27.7-7.9-37.6l-105.1-105C312.9,192.8,298.2,189.7,285.2,194.7z"/>
<path class="st1" d="M327.3,479.4c-97.2,0-176.2-79.1-176.2-176.2c0-19.9,3.4-39.7,10.2-58.7l-36-36.1c-4-4-6.1-9.2-6.1-14.8
	s2.2-10.9,6.1-14.8l23.8-23.8c-13.7-12-19.7-12-28.8-12c-25.5,0-40.5-6-57.4-22.9c-3.1-3.1-3.1-8.2,0-11.3c3.1-3.1,8.2-3.1,11.3,0
	c13.8,13.8,25,18.2,46.1,18.2c14.4,0,24.6,1.5,45.9,22.1c1.5,1.5,2.4,3.5,2.4,5.7c0,2.1-0.8,4.2-2.3,5.7l-29.6,29.6
	c-0.9,0.9-1.4,2.2-1.4,3.5s0.5,2.6,1.4,3.5l39.7,39.7c2.2,2.2,2.9,5.6,1.8,8.6c-7.3,18.7-11,38.2-11,57.8
	c0,88.3,71.9,160.2,160.2,160.2s160.2-71.9,160.2-160.2S415.7,143,327.4,143c-10.2,0-20.5,1-30.9,3.1c-4.3,0.9-8.5-1.9-9.4-6.3
	s1.9-8.5,6.3-9.4c11.3-2.3,22.8-3.4,34-3.4c97.2,0,176.2,79.1,176.2,176.2C503.6,400.3,424.5,479.4,327.3,479.4z M182.6,225.8
	c-2.1,0-4.1-0.8-5.7-2.3l-24.2-24.2c-3.1-3.1-3.1-8.2,0-11.3s8.2-3.1,11.3,0l17.2,17.2c14.7-21.7,34.1-40.1,56.7-53.5
	c3.8-2.3,8.7-1,11,2.8s1,8.7-2.8,11c-23.2,13.8-42.8,33.3-56.5,56.5c-1.3,2.1-3.4,3.6-5.9,3.9C183.3,225.8,183,225.8,182.6,225.8z
	 M267.8,155.7c-2,0-4.1-0.8-5.7-2.3l-40.9-40.9c-0.9-0.9-2.2-1.4-3.5-1.4s-2.6,0.5-3.5,1.4l-29.7,29.7c-3.1,3.1-8.1,3.1-11.2,0.1
	c-22.1-21.6-34.2-25.2-53-25.2c-4.4,0-8-3.6-8-8s3.6-8,8-8c20.1,0,35.9,4,58.4,24.3l24.3-24.3c4-4,9.2-6.1,14.8-6.1
	s10.9,2.2,14.8,6.1l40.9,40.9c3.1,3.1,3.1,8.2,0,11.3C271.9,154.9,269.9,155.7,267.8,155.7z"/>
</svg>
