<?xml version="1.0" encoding="utf-8"?>
<!-- Generator: Adobe Illustrator 25.1.0, SVG Export Plug-In . SVG Version: 6.00 Build 0)  -->
<svg version="1.1" id="_x32_76199604_x5F_Layer_x5F_1_x5F_grid"
	 xmlns="http://www.w3.org/2000/svg" xmlns:xlink="http://www.w3.org/1999/xlink" x="0px" y="0px" viewBox="0 0 512 512"
	 style="enable-background:new 0 0 512 512;" xml:space="preserve">
<style type="text/css">
	.st0{fill:url(#SVGID_1_);}
	.st1{fill:#FBDF63;}
	.st2{fill:#FA7B90;}
	.st3{fill:#FDD748;}
</style>
<linearGradient id="SVGID_1_" gradientUnits="userSpaceOnUse" x1="63" y1="260.3969" x2="448.2201" y2="260.3969">
	<stop  offset="0" style="stop-color:#FA7B90"/>
	<stop  offset="1" style="stop-color:#FDD748"/>
</linearGradient>
<path class="st0" d="M370,85.2l-45.1,55.4c-7.4,9.1-6,22.5,3.1,29.9l14.8,12c9.1,7.4,10.5,20.8,3.1,29.9l-125,153.1
	c-7.9,9.7-22.5,10.5-31.4,1.6L108,285.7c-8.3-8.3-21.7-8.3-30,0l-15,15l128.9,128.7c8.9,8.9,23.6,8.1,31.5-1.7l224.5-278
	c0.5-0.6,0.4-1.4-0.2-1.9L370,85.2z"/>
<path class="st1" d="M208.5,454.1c-2.1,0-4.1-0.8-5.7-2.3L57.3,306.4c-1.5-1.5-2.3-3.5-2.3-5.7c0-2.1,0.8-4.2,2.3-5.7l23.8-23.8
	c3.1-3.1,8.2-3.1,11.3,0c3.1,3.1,3.1,8.2,0,11.3l-18.1,18.1L207.9,434l229.6-284.2l-48.7-39.3c-3.4-2.8-4-7.8-1.2-11.3
	c2.8-3.4,7.8-4,11.3-1.2l54.9,44.3c1.7,1.3,2.7,3.3,2.9,5.4s-0.4,4.2-1.7,5.9L214.8,451.1c-1.4,1.8-3.5,2.8-5.8,3
	C208.8,454.1,208.7,454.1,208.5,454.1z M200.3,303.1c-2.1,0-4.1-0.8-5.7-2.3l-60.3-60.2l-18.2,18.2c-3.1,3.1-8.2,3.1-11.3,0
	c-3.1-3.1-3.1-8.2,0-11.3l23.9-23.9c3.1-3.1,8.2-3.1,11.3,0l59.7,59.6l164-202.9c2.8-3.4,7.8-4,11.3-1.2c3.4,2.8,4,7.8,1.2,11.3
	L206.6,300.1c-1.4,1.8-3.5,2.8-5.8,3C200.6,303.1,200.5,303.1,200.3,303.1z"/>
<path class="st1" d="M118.5,435.6c0,4.4-3.6,8-8,8h-65c-4.4,0-8-3.6-8-8s3.6-8,8-8h65C114.9,427.6,118.5,431.2,118.5,435.6z
	 M115.5,274.6c0-4.4-3.6-8-8-8H20.6c-4.4,0-8,3.6-8,8s3.6,8,8,8h86.8C111.9,282.6,115.5,279.1,115.5,274.6z M173,44.4c0,5-4.1,9-9,9
	s-9-4.1-9-9s4.1-9,9-9S173,39.4,173,44.4z M203,44.4c0,5-4.1,9-9,9s-9-4.1-9-9s4.1-9,9-9S203,39.4,203,44.4z M214.9,44.4
	c0-5,4.1-9,9-9s9,4.1,9,9s-4.1,9-9,9S214.9,49.4,214.9,44.4z M133,36.4H45.5c-4.4,0-8,3.6-8,8V222c0,4.4,3.6,8,8,8s8-3.6,8-8V52.4
	H133c4.4,0,8-3.6,8-8S137.4,36.4,133,36.4z M253.4,52.4H341c4.4,0,8-3.6,8-8s-3.6-8-8-8h-87.6c-4.4,0-8,3.6-8,8S249,52.4,253.4,52.4
	z M487.4,467.6H225c-4.4,0-8,3.6-8,8s3.6,8,8,8h262.4c4.4,0,8-3.6,8-8S491.8,467.6,487.4,467.6z M487.4,427.6H291.6
	c-4.4,0-8,3.6-8,8s3.6,8,8,8h195.8c4.4,0,8-3.6,8-8S491.8,427.6,487.4,427.6z M333,395.6c0,4.4,3.6,8,8,8h146.4c4.4,0,8-3.6,8-8
	s-3.6-8-8-8H341C336.5,387.6,333,391.2,333,395.6z"/>
<g>
	<path class="st2" d="M87.5,99.8L87.5,99.8c-8.4,0-15.2-6.8-15.2-15.2l0,0c0-8.4,6.8-15.2,15.2-15.2l0,0c8.4,0,15.2,6.8,15.2,15.2
		l0,0C102.7,93,95.9,99.8,87.5,99.8z M152.7,84.6L152.7,84.6c0-8.4-6.8-15.2-15.2-15.2l0,0c-8.4,0-15.2,6.8-15.2,15.2l0,0
		c0,8.4,6.8,15.2,15.2,15.2l0,0C145.9,99.8,152.7,93,152.7,84.6z M202.7,84.6L202.7,84.6c0-8.4-6.8-15.2-15.2-15.2l0,0
		c-8.4,0-15.2,6.8-15.2,15.2l0,0c0,8.4,6.8,15.2,15.2,15.2l0,0C195.9,99.8,202.7,93,202.7,84.6z M152.7,134.6L152.7,134.6
		c0-8.4-6.8-15.2-15.2-15.2l0,0c-8.4,0-15.2,6.8-15.2,15.2l0,0c0,8.4,6.8,15.2,15.2,15.2l0,0C145.9,149.8,152.7,143,152.7,134.6z
		 M102.7,134.6L102.7,134.6c0-8.4-6.8-15.2-15.2-15.2l0,0c-8.4,0-15.2,6.8-15.2,15.2l0,0c0,8.4,6.8,15.2,15.2,15.2l0,0
		C95.9,149.8,102.7,143,102.7,134.6z M102.7,184.6L102.7,184.6c0-8.4-6.8-15.2-15.2-15.2l0,0c-8.4,0-15.2,6.8-15.2,15.2l0,0
		c0,8.4,6.8,15.2,15.2,15.2l0,0C95.9,199.8,102.7,193,102.7,184.6z"/>
	<path class="st3" d="M487.4,235.2v125.1H362.3L487.4,235.2z"/>
</g>
</svg>
