<?xml version="1.0" encoding="utf-8"?>
<!-- Generator: Adobe Illustrator 25.1.0, SVG Export Plug-In . SVG Version: 6.00 Build 0)  -->
<svg version="1.1" id="_x32_763100030_x5F_Layer_x5F_1_x5F_grid"
	 xmlns="http://www.w3.org/2000/svg" xmlns:xlink="http://www.w3.org/1999/xlink" x="0px" y="0px" viewBox="0 0 512 512"
	 style="enable-background:new 0 0 512 512;" xml:space="preserve">
<style type="text/css">
	.st0{fill:url(#SVGID_1_);}
	.st1{fill:#FBDF63;}
	.st2{fill:#FA7B90;}
	.st3{fill:#FDD748;}
</style>
<linearGradient id="SVGID_1_" gradientUnits="userSpaceOnUse" x1="163.1324" y1="254.2" x2="484.4114" y2="254.2" gradientTransform="matrix(1 0 0 -1 0 512)">
	<stop  offset="0" style="stop-color:#FA7B90"/>
	<stop  offset="1" style="stop-color:#FDD748"/>
</linearGradient>
<path class="st0" d="M414.7,236.4h-0.8c-5.1-35.8-33.6-64.1-69.5-69c0,0-10.8-93.8-104.1-93.8H240c-9.6,0-15.2,10.9-9.8,18.8
	c6,8.8,10.3,17.8,13.3,25.8c5.3,14.2,16,26,29.8,32.4c22.3,10.4,39.2,30.5,45,54.9c1,4.2,4.6,7.3,8.9,7.7c0,0,0,0,0.1,0
	c35.8,3.5,63.7,34,63,70.8c-0.5,28.6-18.6,52.8-43.7,63.1c-1.2,0.5-2.4,0.9-3.6,1.4L284.1,248c-2.2-3.7-7.6-3.7-9.8,0
	c-7.1,12.1-7.1,27.1,0,39.3L347.4,412c2.2,3.8-0.5,8.5-4.9,8.5H179.8c-3.8,0-7.3,2-9.3,5.3l0,0c-4.2,7.2-12,16.2-3.7,16.2h221.1
	c4.4,0,7.1-4.8,4.9-8.5L359.1,376l0,0h2.7h51.8c38.3,0,70.3-30.4,70.8-68.7C485.1,268.3,453.5,236.4,414.7,236.4z"/>
<path class="st1" d="M160.5,385.5h-25C79,385.5,33,339.5,33,283c0-57.1,33.8-96.1,93.1-108.3c1.9-61.3,52.3-110.6,114.1-110.6
	c43.1,0,82,23.9,101.7,62.3c2.4,4.6,0.5,10.3-4.1,12.7s-10.3,0.5-12.7-4.1c-16.4-32-48.9-52-84.9-52c-52.5,0-95.3,42.7-95.3,95.3
	v4.3c0,4.6-3.4,8.6-7.9,9.3c-54.9,8.7-85.1,41-85.1,91.1c0,46.1,37.5,83.6,83.6,83.6h25c5.2,0,9.4,4.2,9.4,9.4
	S165.7,385.5,160.5,385.5z M421.7,227.3c-8.5-36.2-38.8-64.2-76.1-69.3c-5.2-0.7-9.9,2.9-10.6,8.1s2.9,9.9,8.1,10.6
	c31.6,4.3,56.9,29.4,61.5,61.1c0.7,4.6,4.6,8.1,9.3,8.1h0.8c33.3,0,60.4,27.1,60.4,60.4s-27.1,60.4-60.4,60.4h-50.2l-72.3-123.4
	c-2.7-4.7-7.6-7.5-13-7.5s-10.3,2.8-13,7.5L173,402c-2.6,4.5-1.1,10.3,3.4,12.9s10.3,1.1,12.9-3.4l89.9-153.2l63.7,108.6
	c-4.2,1-7.3,4.7-7.3,9.2c0,5.2,4.2,9.4,9.4,9.4h8.7l27.6,47.1H160.5c-5.2,0-9.4,4.2-9.4,9.4s4.2,9.4,9.4,9.4h227.4
	c5.4,0,10.4-2.9,13.1-7.6s2.7-10.5-0.1-15.1l-25.4-43.3h39.1c43.7,0,79.2-35.5,79.2-79.2C493.9,264.9,462.1,230.9,421.7,227.3z
	 M268.9,297.5c-5.2,0-9.4,4.2-9.4,9.4V376c0,5.2,4.2,9.4,9.4,9.4h20.6c5.2,0,9.4-4.2,9.4-9.4s-4.2-9.4-9.4-9.4h-11.2v-59.7
	C278.3,301.7,274.1,297.5,268.9,297.5z M259.4,420.5c0,5.2,4.2,9.4,9.4,9.4h20.6c5.2,0,9.4-4.2,9.4-9.4s-4.2-9.4-9.4-9.4h-11.2v-9.9
	c0-5.2-4.2-9.4-9.4-9.4s-9.4,4.2-9.4,9.4V420.5z"/>
<g>
	<path class="st2" d="M22.2,432.4h16.4v16.4H22.2V432.4z"/>
	<path class="st3" d="M22.2,472.4h16.4v16.4H22.2V472.4z"/>
	<path class="st2" d="M22.2,348.6h16.4v57.2H22.2V348.6z"/>
	<path class="st3" d="M499.2,82.1l-60.9-60.9h60.9V82.1z"/>
</g>
<path class="st1" d="M53.9,48.7c0,4.4-3.6,8-8,8H42v3.9c0,4.4-3.6,8-8,8s-8-3.6-8-8v-3.9h-3.9c-4.4,0-8-3.6-8-8s3.6-8,8-8H26v-3.9
	c0-4.4,3.6-8,8-8s8,3.6,8,8v3.9h3.9C50.3,40.7,53.9,44.3,53.9,48.7z M456.5,460.6h-86.8c-4.4,0-8,3.6-8,8s3.6,8,8,8h86.8
	c4.4,0,8-3.6,8-8S460.9,460.6,456.5,460.6z M360.4,78.5h57.4c4.4,0,8-3.6,8-8s-3.6-8-8-8h-57.4c-4.4,0-8,3.6-8,8
	S356,78.5,360.4,78.5z M381,131.4c0-5.2-4.2-9.4-9.4-9.4H269.3c-5.2,0-9.4,4.2-9.4,9.4c0,5.2,4.2,9.4,9.4,9.4h102.3
	C376.8,140.8,381,136.6,381,131.4z M418.3,167.9c0-5.2-4.2-9.4-9.4-9.4h-80.3c-5.2,0-9.4,4.2-9.4,9.4s4.2,9.4,9.4,9.4h80.3
	C414.1,177.3,418.3,173.1,418.3,167.9z M116,112h-15.8V96.2c0-4.4-3.6-8-8-8s-8,3.6-8,8V112H68.4c-4.4,0-8,3.6-8,8s3.6,8,8,8h15.8
	v15.8c0,4.4,3.6,8,8,8s8-3.6,8-8V128H116c4.4,0,8-3.6,8-8S120.4,112,116,112z"/>
</svg>
