<?xml version="1.0" encoding="utf-8"?>
<!-- Generator: Adobe Illustrator 25.1.0, SVG Export Plug-In . SVG Version: 6.00 Build 0)  -->
<svg version="1.1" id="Layer_1" xmlns="http://www.w3.org/2000/svg" xmlns:xlink="http://www.w3.org/1999/xlink" x="0px" y="0px"
	 viewBox="0 0 512 512" style="enable-background:new 0 0 512 512;" xml:space="preserve">
<style type="text/css">
	.st0{fill:url(#SVGID_1_);}
	.st1{fill:#FBDF63;}
</style>
<linearGradient id="SVGID_1_" gradientUnits="userSpaceOnUse" x1="122.1881" y1="-91.3131" x2="428.9803" y2="-398.1053" gradientTransform="matrix(1 0 0 1 0 502)">
	<stop  offset="0" style="stop-color:#FA7B90"/>
	<stop  offset="1" style="stop-color:#FDD748"/>
</linearGradient>
<path class="st0" d="M65.7,149.3c-11.8,0-21.4,9.6-21.4,21.4v178.1c0,11.6,9.4,21,21,21h228.6l-11.6-38.6l-3.7-12.4L265,273.9
	l118.3,35.5l-21.7,21.7l-7.9,7.9l30.8,30.8h105.3V149.3H65.7z M156.3,342.3h-78v-160h78V342.3z"/>
<path class="st1" d="M321.5,33.7c5,0,9-4.1,9-9s-4.1-9-9-9s-9,4.1-9,9S316.5,33.7,321.5,33.7z M434.9,53.4c0-4.4,3.6-8,8-8
	s8,3.6,8,8c0,11.4,9.3,20.8,20.8,20.8c4.4,0,8,3.6,8,8s-3.6,8-8,8C451.4,90.1,434.9,73.7,434.9,53.4z M361.5,33.7c5,0,9-4.1,9-9
	s-4.1-9-9-9s-9,4.1-9,9S356.5,33.7,361.5,33.7z M429.6,53.4c0,20.3-16.5,36.8-36.8,36.8c-4.4,0-8-3.6-8-8s3.6-8,8-8
	c11.4,0,20.8-9.3,20.8-20.8c0-4.4,3.6-8,8-8S429.6,49,429.6,53.4z M479.6,103.4c0,4.4-3.6,8-8,8c-11.4,0-20.8,9.3-20.8,20.8
	c0,4.4-3.6,8-8,8s-8-3.6-8-8c0-20.3,16.5-36.8,36.8-36.8C476,95.4,479.6,99,479.6,103.4z M429.6,132.1c0,4.4-3.6,8-8,8s-8-3.6-8-8
	c0-11.4-9.3-20.8-20.8-20.8c-4.4,0-8-3.6-8-8s3.6-8,8-8C413.1,95.4,429.6,111.9,429.6,132.1z M85.8,44c0,4.4-3.6,8-8,8H62v15.8
	c0,4.4-3.6,8-8,8s-8-3.6-8-8V52H30.2c-4.4,0-8-3.6-8-8s3.6-8,8-8H46V20.2c0-4.4,3.6-8,8-8s8,3.6,8,8V36h15.8
	C82.2,36,85.8,39.6,85.8,44z M281.5,33.7c5,0,9-4.1,9-9s-4.1-9-9-9s-9,4.1-9,9S276.5,33.7,281.5,33.7z M371.5,67.8c0,4.4-3.6,8-8,8
	h-215c-4.4,0-8-3.6-8-8s3.6-8,8-8h215C367.9,59.8,371.5,63.3,371.5,67.8z"/>
<path class="st1" d="M360.4,321l7.8-7.8L277,285.8l7.8,26c1.3,4.2-1.1,8.7-5.4,10c-4.2,1.3-8.7-1.1-10-5.4l-12.1-40.2
	c-0.8-2.8-0.1-5.9,2-8s5.1-2.9,8-2l118.3,35.5c2.7,0.8,4.8,3,5.5,5.7S391,313,389,315l-17.3,17.3c-1.6,1.6-3.6,2.3-5.7,2.3
	s-4.1-0.8-5.7-2.3C357.2,329.2,357.2,324.2,360.4,321z M495.4,95.4c-4.4,0-8,3.6-8,8v258.3h-99.6l-28.4-28.4
	c-3.1-3.1-8.2-3.1-11.3,0c-3.1,3.1-3.1,8.2,0,11.3l35.8,35.8l-12.3,12.3L335.8,357c-3.1-3.1-8.2-3.1-11.3,0l-20.1,20.1l-14.5-48.3
	c-1.3-4.2-5.7-6.6-10-5.4c-4.2,1.3-6.6,5.7-5.4,10l18.3,61.1c0.8,2.7,3,4.8,5.7,5.5s5.6-0.1,7.6-2.1L330,374l35.8,35.8
	c1.5,1.5,3.5,2.3,5.7,2.3s4.2-0.8,5.7-2.3l23.7-23.7c2.2-2.2,2.9-5.5,1.9-8.3h84.7v48.6H257.9c-4.4,0-8,3.6-8,8c0,0.3,0,0.5,0,0.8
	s0.1,0.5,0.1,0.7l0,0l0,0l0,0l0,0c-0.1,0.5-0.1,1-0.1,1.5v38.8H67.8c-4.4,0-8,3.6-8,8s3.6,8,8,8h376.5c4.4,0,8-3.6,8-8s-3.6-8-8-8
	H265.9v-33.9h221.6c8.8,0,16-7.2,16-16V103.4C503.4,99,499.9,95.4,495.4,95.4z M251.4,174.3h-11.9c-4.4,0-8,3.6-8,8s3.6,8,8,8h11.9
	c4.4,0,8-3.6,8-8S255.8,174.3,251.4,174.3z M232,434.3c0-4.4-3.6-8-8-8H24.6V111.4h366.5c4.4,0,8-3.6,8-8s-3.6-8-8-8H24.6
	c-8.8,0-16,7.2-16,16v314.9c0,8.8,7.2,16,16,16H224C228.4,442.3,232,438.7,232,434.3z M292.9,190.3c4.4,0,8-3.6,8-8s-3.6-8-8-8H281
	c-4.4,0-8,3.6-8,8s3.6,8,8,8H292.9z M419.6,271.9c0-4.4-3.6-8-8-8s-8,3.6-8,8v13.9c0,4.4,3.6,8,8,8s8-3.6,8-8V271.9z M403.8,190.1
	c0.8,3.6,4,6.2,7.8,6.2c4.4,0,8-3.6,8-8v-6c0-4.4-3.6-8-8-8h-6c-4.4,0-8,3.6-8,8C397.6,186.1,400.3,189.3,403.8,190.1z M334.4,190.3
	c4.4,0,8-3.6,8-8s-3.6-8-8-8h-11.9c-4.4,0-8,3.6-8,8s3.6,8,8,8H334.4z M419.6,223.1c0-4.4-3.6-8-8-8s-8,3.6-8,8V237c0,4.4,3.6,8,8,8
	s8-3.6,8-8V223.1z M411.6,312.7c-4.4,0-8,3.6-8,8v6c0,4.4,3.6,8,8,8s8-3.6,8-8v-6C419.6,316.3,416,312.7,411.6,312.7z M156.3,350.3
	h-78c-4.4,0-8-3.6-8-8v-160c0-4.4,3.6-8,8-8h78c4.4,0,8,3.6,8,8v160C164.3,346.7,160.7,350.3,156.3,350.3z M109.3,310.3h-23v24h23
	V310.3z M109.3,270.3h-23v24h23V270.3z M109.3,230.3h-23v24h23V230.3z M109.3,190.3h-23v24h23V190.3z M148.3,310.3h-23v24h23V310.3z
	 M148.3,270.3h-23v24h23V270.3z M148.3,230.3h-23v24h23V230.3z M148.3,190.3h-23v24h23V190.3z M85.8,391.6c5,0,9,4.1,9,9s-4.1,9-9,9
	s-9-4.1-9-9S80.8,391.6,85.8,391.6z M55.8,391.6c5,0,9,4.1,9,9s-4.1,9-9,9s-9-4.1-9-9S50.8,391.6,55.8,391.6z M217.8,182.3
	c0-4.4-3.6-8-8-8h-6c-4.4,0-8,3.6-8,8v6c0,4.4,3.6,8,8,8c3.8,0,7-2.6,7.8-6.2C215.2,189.3,217.8,186.1,217.8,182.3z M375.9,190.3
	c4.4,0,8-3.6,8-8s-3.6-8-8-8H364c-4.4,0-8,3.6-8,8s3.6,8,8,8H375.9z M115.8,391.6c5,0,9,4.1,9,9s-4.1,9-9,9s-9-4.1-9-9
	S110.8,391.6,115.8,391.6z M211.8,271.9c0-4.4-3.6-8-8-8s-8,3.6-8,8v13.9c0,4.4,3.6,8,8,8s8-3.6,8-8V271.9z M211.8,223.1
	c0-4.4-3.6-8-8-8s-8,3.6-8,8V237c0,4.4,3.6,8,8,8s8-3.6,8-8V223.1z M203.8,312.7c-4.4,0-8,3.6-8,8v6c0,4.4,3.6,8,8,8s8-3.6,8-8v-6
	C211.8,316.3,208.2,312.7,203.8,312.7z"/>
</svg>
