<?xml version="1.0" encoding="utf-8"?>
<!-- Generator: Adobe Illustrator 25.1.0, SVG Export Plug-In . SVG Version: 6.00 Build 0)  -->
<svg version="1.1" id="_x32_765100198_x5F_Layer_x5F_1_x5F_grid"
	 xmlns="http://www.w3.org/2000/svg" xmlns:xlink="http://www.w3.org/1999/xlink" x="0px" y="0px" viewBox="0 0 512 512"
	 style="enable-background:new 0 0 512 512;" xml:space="preserve">
<style type="text/css">
	.st0{fill:url(#SVGID_1_);}
	.st1{fill:#FBDF63;}
	.st2{fill:#FDD748;}
	.st3{fill:#FA7B90;}
</style>
<linearGradient id="SVGID_1_" gradientUnits="userSpaceOnUse" x1="114.9" y1="283.2" x2="477.7" y2="283.2">
	<stop  offset="0" style="stop-color:#FA7B90"/>
	<stop  offset="1" style="stop-color:#FDD748"/>
</linearGradient>
<path class="st0" d="M297.6,146.3c-9,0-17.7,0.6-26.3,1.5c8.6,3.3,14.8,11.5,14.8,21.3c0,12.6-10.2,22.8-22.8,22.8
	c-12.6,0-22.8-10.2-22.8-22.8c0-7.3,3.5-13.8,8.9-18c-34.6,6.9-64.6,21.2-87.4,41c11.9,0.7,21.4,10.6,21.4,22.7
	c0,12.6-10.2,22.8-22.8,22.8c-11.4,0-20.8-8.4-22.5-19.4c-14.8,21-23.2,45.5-23.2,72.2c0,54.6,31.3,99.3,80.8,123.8
	c17.7,3.7,36.4,5.9,56.1,5.9h22.8c31.5,0,45.6-21.7,45.6-43.3c0-14.6-7.4-32.9-28.1-40.3l-25.2-9c-9.1-3.2-15.2-11.9-15.2-21.5
	c0-12.6,10.2-22.8,22.8-22.8c14.1,0,28.2,8.4,44.5,18.1c21.6,12.9,46.2,27.5,78.8,27.5c41.3,0,71.8-24,79.9-60.4
	C465.4,197.5,392.1,146.3,297.6,146.3z M172.1,328.8c-6.3,0-11.4-5.1-11.4-11.4s5.1-11.4,11.4-11.4c6.3,0,11.4,5.1,11.4,11.4
	C183.5,323.7,178.4,328.8,172.1,328.8z M366.1,237.6c-12.6,0-22.8-10.2-22.8-22.8s10.2-22.8,22.8-22.8c12.6,0,22.8,10.2,22.8,22.8
	C388.9,227.3,378.6,237.6,366.1,237.6z"/>
<path class="st1" d="M172.1,343c-14.1,0-25.6-11.5-25.6-25.6s11.5-25.6,25.6-25.6s25.6,11.5,25.6,25.6S186.2,343,172.1,343z
	 M172.1,307.8c-5.3,0-9.6,4.3-9.6,9.6s4.3,9.6,9.6,9.6s9.6-4.3,9.6-9.6S177.4,307.8,172.1,307.8z M366.1,253.5
	c-21.4,0-38.8-17.4-38.8-38.8s17.4-38.8,38.8-38.8s38.8,17.4,38.8,38.8S387.5,253.5,366.1,253.5z M366.1,191.9
	c-12.6,0-22.8,10.2-22.8,22.8s10.2,22.8,22.8,22.8s22.8-10.2,22.8-22.8S378.6,191.9,366.1,191.9z M160.7,253.9
	c-21.6,0-39.2-17.6-39.2-39.2s17.6-39.2,39.2-39.2s39.2,17.6,39.2,39.2C199.8,236.3,182.3,253.9,160.7,253.9z M160.7,191.6
	c-12.8,0-23.2,10.4-23.2,23.2s10.4,23.2,23.2,23.2s23.2-10.4,23.2-23.2C183.8,202,173.4,191.6,160.7,191.6z M263.4,208.3
	c-21.6,0-39.2-17.6-39.2-39.2s17.6-39.2,39.2-39.2s39.2,17.6,39.2,39.2S285,208.3,263.4,208.3z M263.4,145.9
	c-12.8,0-23.2,10.4-23.2,23.2s10.4,23.2,23.2,23.2c12.8,0,23.2-10.4,23.2-23.2S276.1,145.9,263.4,145.9z M274.8,428.1H252
	c-39.7,0-77.7-8-109.8-23.2c-4-1.9-5.7-6.7-3.8-10.7s6.7-5.7,10.7-3.8c30,14.2,65.6,21.7,103,21.7h22.8c27.8,0,37.6-19,37.6-35.3
	c0-11.9-6-26.8-22.8-32.8l-25.2-9c-12.2-4.3-20.5-16-20.5-29c0-17,13.8-30.8,30.8-30.8c16.2,0,31.2,8.9,48.6,19.2
	c20.8,12.4,44.3,26.4,74.8,26.4c43.6,0,74-29.6,74-71.9c0-93-89.8-163.2-208.8-163.2c-58.5,0-112.1,17.1-150.8,48.1
	c-3.4,2.8-8.5,2.2-11.2-1.2c-2.8-3.4-2.2-8.5,1.2-11.2c41.5-33.3,98.6-51.6,160.8-51.6c128.2,0,224.8,77,224.8,179.2
	c0,24.9-9,47.4-25.3,63.3c-16.3,15.8-39.2,24.6-64.7,24.6c-34.9,0-60.4-15.2-82.9-28.6c-15.4-9.1-28.6-17-40.4-17
	c-8.2,0-14.8,6.6-14.8,14.8c0,6.3,4,11.9,9.8,14l25.2,9c24.6,8.8,33.4,30.5,33.4,47.9C328.4,401.5,311.6,428.1,274.8,428.1z
	 M103.2,378.5c-1.8,0-3.7-0.6-5.2-1.9C59.7,344,38.6,298.6,38.6,249c0-38.2,13.6-74.1,39.4-103.9c2.9-3.3,7.9-3.7,11.3-0.8
	c3.3,2.9,3.7,7.9,0.8,11.3c-23.2,26.9-35.5,59.2-35.5,93.5c0,44.9,19.1,85.9,53.8,115.5c3.4,2.9,3.8,7.9,0.9,11.3
	C107.7,377.6,105.5,378.5,103.2,378.5z"/>
<g>
	<path class="st2" d="M96.9,42.7v21.8H40V42.7H96.9z"/>
	<path class="st3" d="M486.4,136.4h-21.8V42.2h21.8V136.4z"/>
	<path class="st2" d="M334.8,487.4v-21.8h56.9v21.8H334.8z"/>
</g>
<path class="st1" d="M376.8,42.2c0,5.9-4.8,10.8-10.8,10.8s-10.8-4.8-10.8-10.8S360,31.4,366,31.4S376.8,36.2,376.8,42.2z
	 M432.9,389.8h-15.8V374c0-4.4-3.6-8-8-8s-8,3.6-8,8v15.8h-15.8c-4.4,0-8,3.6-8,8s3.6,8,8,8h15.8v15.8c0,4.4,3.6,8,8,8s8-3.6,8-8
	v-15.8h15.8c4.4,0,8-3.6,8-8S437.4,389.8,432.9,389.8z M58.5,459.7h-3.9v-3.9c0-4.4-3.6-8-8-8s-8,3.6-8,8v3.9h-3.9c-4.4,0-8,3.6-8,8
	s3.6,8,8,8h3.9v3.9c0,4.4,3.6,8,8,8s8-3.6,8-8v-3.9h3.9c4.4,0,8-3.6,8-8S62.9,459.7,58.5,459.7z M451.5,66h-3.9v-3.9
	c0-4.4-3.6-8-8-8s-8,3.6-8,8V66h-3.9c-4.4,0-8,3.6-8,8s3.6,8,8,8h3.9v3.9c0,4.4,3.6,8,8,8s8-3.6,8-8V82h3.9c4.4,0,8-3.6,8-8
	S455.9,66,451.5,66z M149.5,120.3h-113c-4.4,0-8,3.6-8,8c0,4.4,3.6,8,8,8h113c4.4,0,8-3.6,8-8S153.9,120.3,149.5,120.3z M141.6,366
	h-113c-4.4,0-8,3.6-8,8s3.6,8,8,8h113c4.4,0,8-3.6,8-8S146,366,141.6,366z"/>
</svg>
