<?xml version="1.0" encoding="utf-8"?>
<!-- Generator: Adobe Illustrator 25.1.0, SVG Export Plug-In . SVG Version: 6.00 Build 0)  -->
<svg version="1.1" id="_x32_76199680_x5F_Layer_x5F_1_x5F_grid"
	 xmlns="http://www.w3.org/2000/svg" xmlns:xlink="http://www.w3.org/1999/xlink" x="0px" y="0px" viewBox="0 0 512 512"
	 style="enable-background:new 0 0 512 512;" xml:space="preserve">
<style type="text/css">
	.st0{fill:url(#SVGID_1_);}
	.st1{fill:#FDD748;}
	.st2{fill:#FA7B90;}
	.st3{fill:#FBDF63;}
</style>
<linearGradient id="SVGID_1_" gradientUnits="userSpaceOnUse" x1="213.7" y1="322" x2="378" y2="322">
	<stop  offset="0" style="stop-color:#FA7B90"/>
	<stop  offset="1" style="stop-color:#FDD748"/>
</linearGradient>
<path class="st0" d="M378,378c0,0-156.7,72.3-164,76l-0.3-3.1c0-35.6,21-67.9,53.5-82.5l27.7-12.4c18.8-8.4,30.9-27,30.9-47.6v-53.8
	c0-29.5,25-52.9,52.2-64.6L378,378L378,378z"/>
<g>
	<path class="st1" d="M483,248.6v49h-43v-49H483z"/>
	<path class="st2" d="M482.1,316.2v44.6h-41.3v-44.6H482.1z M482.1,426.2v-44.6h-41.3v44.6H482.1z"/>
</g>
<path class="st3" d="M132.6,459.8c0,4.4-3.6,8-8,8H23.5c-4.4,0-8-3.6-8-8s3.6-8,8-8h101.1C129,451.8,132.6,455.4,132.6,459.8z
	 M33.7,137.2h3.9v3.9c0,4.4,3.6,8,8,8s8-3.6,8-8v-3.9h3.9c4.4,0,8-3.6,8-8s-3.6-8-8-8h-3.9v-3.9c0-4.4-3.6-8-8-8s-8,3.6-8,8v3.9
	h-3.9c-4.4,0-8,3.6-8,8C25.7,133.6,29.2,137.2,33.7,137.2z M253.8,35.1h-43c-4.4,0-8,3.6-8,8s3.6,8,8,8h43c4.4,0,8-3.6,8-8
	S258.2,35.1,253.8,35.1z M469.5,152.6c0-4.4-3.6-8-8-8s-8,3.6-8,8v15.8h-15.8c-4.4,0-8,3.6-8,8s3.6,8,8,8h15.8v15.8c0,4.4,3.6,8,8,8
	s8-3.6,8-8v-15.8h15.8c4.4,0,8-3.6,8-8s-3.6-8-8-8h-15.8V152.6z M434,125.3c4.4,0,8-3.6,8-8c0-11.4,9.3-20.8,20.8-20.8
	c4.4,0,8-3.6,8-8s-3.6-8-8-8c-20.3,0-36.8,16.5-36.8,36.8C426,121.7,429.5,125.3,434,125.3z M384,96.6c11.4,0,20.8,9.3,20.8,20.8
	c0,4.4,3.6,8,8,8s8-3.6,8-8c0-20.3-16.5-36.8-36.8-36.8c-4.4,0-8,3.6-8,8S379.5,96.6,384,96.6z M384,75.3
	c20.3,0,36.8-16.5,36.8-36.8c0-4.4-3.6-8-8-8s-8,3.6-8,8c0,11.4-9.3,20.8-20.8,20.8c-4.4,0-8,3.6-8,8S379.5,75.3,384,75.3z
	 M462.7,75.3c4.4,0,8-3.6,8-8s-3.6-8-8-8c-11.4,0-20.8-9.3-20.8-20.8c0-4.4-3.6-8-8-8s-8,3.6-8,8C426,58.8,442.4,75.3,462.7,75.3z
	 M37.5,43.1c0-5.5,4.4-9.9,9.9-9.9s9.9,4.4,9.9,9.9S52.9,53,47.5,53S37.5,48.5,37.5,43.1z M92.9,43.1c0-5.5,4.4-9.9,9.9-9.9
	s9.9,4.4,9.9,9.9s-4.4,9.9-9.9,9.9S92.9,48.5,92.9,43.1z M168.1,43.1c0,5.5-4.4,9.9-9.9,9.9s-9.9-4.4-9.9-9.9s4.4-9.9,9.9-9.9
	S168.1,37.6,168.1,43.1z M483,448.2h-43c-4.4,0-8,3.6-8,8s3.6,8,8,8h43c4.4,0,8-3.6,8-8S487.4,448.2,483,448.2z M463,478.2h-93
	c-4.4,0-8,3.6-8,8s3.6,8,8,8h93c4.4,0,8-3.6,8-8S467.4,478.2,463,478.2z"/>
<path class="st3" d="M117,409.4c-1.4,2.9-4.2,4.6-7.2,4.6c-1.2,0-2.3-0.2-3.4-0.8l-59.5-28.3c-2.8-1.3-4.6-4.1-4.6-7.2v-65.8
	c0-4.4,3.6-8,8-8s8,3.6,8,8v60.7l55,26.1C117.2,400.7,118.9,405.4,117,409.4z M214.1,343c4.4,0,8-3.6,8-8v-51.4l47.8-26.1
	c3.9-2.1,5.3-7,3.2-10.9c-2.1-3.9-7-5.3-10.9-3.2l-47,25.6c-0.4-0.1-0.8-0.1-1.2-0.1c-0.5,0-0.9,0-1.4,0.1l-46.8-25.5
	c-3.9-2.1-8.7-0.7-10.9,3.2c-2.1,3.9-0.7,8.7,3.2,10.9l47.8,26.1V335C206.1,339.4,209.7,343,214.1,343z M162.2,145.3l51.8-24.7
	l51.8,24.7c1.1,0.5,2.3,0.8,3.4,0.8c3,0,5.9-1.7,7.2-4.6c1.9-4,0.2-8.8-3.8-10.7l-55.2-26.3c-2.2-1-4.7-1-6.9,0l-55.2,26.3
	c-4,1.9-5.7,6.7-3.8,10.7C153.4,145.5,158.2,147.2,162.2,145.3z M270.2,420l-48.4,21.8l0.2-62.1c0-4.4-3.6-8-8-8l0,0
	c-4.4,0-8,3.6-8,8l-0.2,62l-48-21.6c-4-1.8-8.8,0-10.6,4s0,8.8,4,10.6l59.5,26.8c1,0.5,2.2,0.7,3.3,0.7s2.2-0.2,3.3-0.7l59.5-26.8
	c4-1.8,5.8-6.5,4-10.6C279,420,274.2,418.2,270.2,420z M377.7,303.9c-4.4,0-8,3.6-8,8v60.7l-55,26.1c-4,1.9-5.7,6.7-3.8,10.7
	c1.4,2.9,4.2,4.6,7.2,4.6c1.1,0,2.3-0.2,3.4-0.8l59.5-28.3c2.8-1.3,4.6-4.1,4.6-7.2v-65.8C385.7,307.5,382.1,303.9,377.7,303.9z
	 M121.6,219.4l-53.7-29.3l48.8-23.2c4-1.9,5.7-6.7,3.8-10.7c-1.9-4-6.7-5.7-10.7-3.8l-63,29.9h-0.1c-0.3,0.2-0.6,0.3-0.9,0.5
	c0,0-0.1,0-0.1,0.1c-0.3,0.2-0.5,0.4-0.7,0.6c-0.1,0-0.1,0.1-0.2,0.1c-0.5,0.4-0.9,1-1.3,1.5c-0.1,0.1-0.1,0.2-0.1,0.2
	c-0.1,0.1-0.1,0.2-0.2,0.3c-0.1,0.1-0.1,0.3-0.2,0.4c0,0.1-0.1,0.2-0.1,0.2c-0.1,0.3-0.3,0.6-0.3,0.9v0.1c-0.1,0.3-0.1,0.6-0.2,0.9
	c0,0.1,0,0.1,0,0.2c0,0.4-0.1,0.7-0.1,1.1v72.8c0,4.4,3.6,8,8,8s8-3.6,8-8v-59.3l55.6,30.4c1.2,0.7,2.5,1,3.8,1c2.8,0,5.6-1.5,7-4.2
	C126.9,226.4,125.5,221.5,121.6,219.4z M385.6,188.6c0-0.1,0-0.1,0-0.2c0-0.3-0.1-0.6-0.2-0.9v-0.1c-0.1-0.3-0.2-0.6-0.3-0.9
	c0-0.1-0.1-0.2-0.1-0.2c-0.1-0.1-0.1-0.3-0.2-0.4c-0.1-0.1-0.1-0.2-0.2-0.3c0-0.1-0.1-0.2-0.1-0.2c-0.4-0.6-0.8-1.1-1.3-1.5
	c-0.1,0-0.1-0.1-0.2-0.1c-0.2-0.2-0.5-0.4-0.7-0.6c0,0-0.1,0-0.1-0.1c-0.3-0.2-0.6-0.4-0.9-0.5c0,0,0,0-0.1,0l-63-29.9
	c-4-1.9-8.8-0.2-10.7,3.8c-1.9,4-0.2,8.8,3.8,10.7l48.8,23.2l-53.5,29.2c-3.9,2.1-5.3,7-3.2,10.9c1.5,2.7,4.2,4.2,7,4.2
	c1.3,0,2.6-0.3,3.8-1l55.5-30.3v59.3c0,4.4,3.6,8,8,8s8-3.6,8-8v-72.8C385.7,189.3,385.6,188.9,385.6,188.6z"/>
</svg>
