<?xml version="1.0" encoding="utf-8"?>
<!-- Generator: Adobe Illustrator 25.1.0, SVG Export Plug-In . SVG Version: 6.00 Build 0)  -->
<svg version="1.1" id="_x32_76199706_x5F_Layer_x5F_1_x5F_grid"
	 xmlns="http://www.w3.org/2000/svg" xmlns:xlink="http://www.w3.org/1999/xlink" x="0px" y="0px" viewBox="0 0 512 512"
	 style="enable-background:new 0 0 512 512;" xml:space="preserve">
<style type="text/css">
	.st0{fill:url(#SVGID_1_);}
	.st1{fill:#FBDF63;}
	.st2{fill:#FA7B90;}
	.st3{fill:#FDD748;}
</style>
<linearGradient id="SVGID_1_" gradientUnits="userSpaceOnUse" x1="141.0125" y1="464.3125" x2="466.7563" y2="138.5687">
	<stop  offset="0" style="stop-color:#FA5CFF"/>
	<stop  offset="3.266332e-02" style="stop-color:#FA7B90"/>
	<stop  offset="1" style="stop-color:#FDD748"/>
</linearGradient>
<path class="st0" d="M413.4,100.1h-60.1v-12c0-19.8-16.2-36.1-36.1-36.1l0,0c-26.6,0-48.1,21.5-48.1,48.1v225.8
	c0,26.6-21.5,48.1-48.1,48.1h-38.2c-28.1,0-50.3,24.1-48,52.1l2.9,34.9h262.7l24.1-288.7h25v-36.1
	C449.5,116.3,433.2,100.1,413.4,100.1z"/>
<path class="st1" d="M409.8,356.3c-0.2,0-0.4,0-0.7,0c-4.4-0.4-7.7-4.2-7.3-8.6l14.7-176c0.3-4.1,3.8-7.3,8-7.3h17v-28.1
	c0-15.5-12.6-28.1-28.1-28.1h-60.1c-4.4,0-8-3.6-8-8v-12c0-15.5-12.6-28.1-28.1-28.1H221c-15.5,0-28.1,12.6-28.1,28.1v12
	c0,4.4-3.6,8-8,8h-60.1c-15.5,0-28.1,12.6-28.1,28.1v28.1h303.6c4.4,0,8,3.6,8,8s-3.6,8-8,8H88.7c-4.4,0-8-3.6-8-8v-36.1
	c0-24.3,19.8-44.1,44.1-44.1h52.1v-4c0-24.3,19.8-44.1,44.1-44.1h96.2c24.3,0,44.1,19.8,44.1,44.1v4h52.1
	c24.3,0,44.1,19.8,44.1,44.1v36.1c0,4.4-3.6,8-8,8h-17.7l-14.1,168.7C417.4,353.1,413.9,356.3,409.8,356.3z M408.4,461.6l6.2-74.9
	c0.4-4.4-2.9-8.3-7.3-8.6c-4.4-0.4-8.3,2.9-8.6,7.3l-5.6,67.5h-248l-21.4-257.3c-0.4-4.4-4.2-7.7-8.6-7.3s-7.7,4.2-7.3,8.6l22,264.6
	c0.3,4.1,3.8,7.3,8,7.3h262.7C404.6,468.9,408,465.8,408.4,461.6z"/>
<path class="st1" d="M463.1,393.2h-86.8c-4.4,0-8-3.6-8-8s3.6-8,8-8h86.8c4.4,0,8,3.6,8,8S467.5,393.2,463.1,393.2z M423.5,350.1
	c0-4.4-3.6-8-8-8h-57.4c-4.4,0-8,3.6-8,8s3.6,8,8,8h57.4C419.9,358.1,423.5,354.6,423.5,350.1z M105.7,57.4c0-4.4-3.6-8-8-8H38.5
	c-4.4,0-8,3.6-8,8s3.6,8,8,8h59.2C102.1,65.4,105.7,61.9,105.7,57.4z"/>
<g>
	<path class="st2" d="M40.2,430v35.1h35.1V487H40.2H18.4v-21.8V430H40.2z"/>
	<path class="st3" d="M30.4,194.9h21.8v145.9H30.4V194.9z"/>
</g>
</svg>
