<?xml version="1.0" encoding="utf-8"?>
<!-- Generator: Adobe Illustrator 25.1.0, SVG Export Plug-In . SVG Version: 6.00 Build 0)  -->
<svg version="1.1" id="a3c5dfd7-be65-444e-9313-11a650221507"
	 xmlns="http://www.w3.org/2000/svg" xmlns:xlink="http://www.w3.org/1999/xlink" x="0px" y="0px" viewBox="0 0 830.6 1107.7"
	 style="enable-background:new 0 0 830.6 1107.7;" xml:space="preserve">
<style type="text/css">
	.st0{fill:#E6E6E6;}
	.st1{fill:#FFFFFF;}
	.st2{fill:#6C63FF;}
	.st3{fill:#FFB8B8;}
	.st4{fill:#2F2E41;}
	.st5{fill:#3F3D56;}
</style>
<polygon class="st0" points="68.3,411.7 455,411.7 455,538.6 440.4,538.6 440.4,571.8 407.2,538.6 68.3,538.6 "/>
<rect x="79.1" y="424.1" class="st1" width="365.2" height="101.5"/>
<rect x="108.5" y="453.7" class="st2" width="175.8" height="5.3"/>
<rect x="108.5" y="472.2" class="st0" width="306.4" height="5.3"/>
<rect x="108.5" y="490.6" class="st0" width="306.1" height="5.3"/>
<polygon class="st0" points="386.7,735.8 0,735.8 0,862.7 14.6,862.7 14.6,895.9 47.8,862.7 386.7,862.7 "/>
<rect x="10.7" y="748.1" class="st1" width="365.2" height="101.5"/>
<rect x="43" y="778.8" class="st2" width="175.8" height="5.3"/>
<rect x="43" y="797.2" class="st0" width="306.4" height="5.3"/>
<rect x="43" y="815.7" class="st0" width="306.1" height="5.3"/>
<polygon class="st0" points="386.7,101.1 0,101.1 0,228 14.6,228 14.6,261.2 47.8,228 386.7,228 "/>
<rect x="10.7" y="113.5" class="st1" width="365.2" height="101.5"/>
<rect x="43" y="144.1" class="st2" width="175.8" height="5.3"/>
<rect x="43" y="162.5" class="st0" width="306.4" height="5.3"/>
<rect x="43" y="181" class="st0" width="306.1" height="5.3"/>
<polygon class="st3" points="682.9,1087.5 660.4,1087.5 649.6,1000.6 682.9,1000.6 "/>
<path class="st4" d="M688.6,1109.3l-72.7,0v-0.9c0-15.6,12.7-28.3,28.3-28.3h0l44.4,0L688.6,1109.3z"/>
<polygon class="st3" points="651.2,1022.2 630.3,1030.4 588.4,953.5 619.4,941.3 "/>
<path class="st4" d="M664.6,1040.4L597,1067l-0.3-0.9c-5.7-14.5,1.4-30.9,16-36.7l0,0l41.3-16.2L664.6,1040.4z"/>
<path class="st4" d="M644.3,1059.3l7.2-263.7l-31.9,113l23.1,78.4l-38.3,32.5l-39-124.5l-0.1-0.2L604.1,690l114.7-5.5l0.8,0l0.1,0.8
	c0.1,0.7,10.9,68.7,1.8,117.9c-9.1,49-31,257-31.2,259.1l-0.1,0.9L644.3,1059.3z"/>
<path class="st2" d="M610,706.4l-0.6-0.3l21.3-195.2l0.6-0.2c21.6-5.4,50.8-4.9,66.2-4.2c4.8,0.2,8.8,3.9,9.6,8.6l25.6,168.5
	l-0.2,0.3c-17.7,25.3-44.7,32.1-68.9,32.1C645.3,715.9,627.2,712.6,610,706.4z"/>
<path class="st5" d="M711.4,763.4l-0.8-0.1L697,506.1l41.3,9.3c9.3,2.1,15.5,11,14.3,20.5l-5.4,42.8l1.8,75.2
	c1.3,4.6,22.2,81.2,10.6,101.1c-1.2,2.3-3.3,4-5.8,4.7c-11.2,2.7-22.6,4-34.1,4C714.7,763.7,711.5,763.4,711.4,763.4z"/>
<path class="st5" d="M589.7,765.2c-4.1-1.8-7.1-5.4-8.2-9.7c-2.7-10.8,6.4-24.5,7.7-26.4l11-104.4l-16.3-96.4
	c-1.1-6.7,3.4-13,10.1-14.2c0.2,0,0.5-0.1,0.7-0.1l46.6-5.2l-2.4,99.2c20,67.5-23.5,164.9-24,165.9l-0.2,0.5H614
	C613.8,774.5,608.1,774.4,589.7,765.2z"/>
<circle class="st3" cx="663.8" cy="443.9" r="45.1"/>
<path class="st3" d="M715.5,716.9c-1.5-9.4,4.8-18.3,14.2-19.8c1-0.2,2-0.2,3-0.2l15.6-36.1l24.3,4.1l-22.8,50.7
	c-0.8,9.5-9.1,16.6-18.7,15.9C723.2,730.8,716.7,724.8,715.5,716.9L715.5,716.9z"/>
<path class="st5" d="M737.5,683.7l12.9-77.4l-22-36.7l5.6-52.4l1.3-0.3c8.6-2.1,17.5,2.1,21.4,10.1l36,75.1l0.1,0.3l-26.1,102.7
	L737.5,683.7z"/>
<path class="st4" d="M693.4,480.3c1,0.3,5.4-4.6,10.1-10.5c10.1-12.4,14.2-28.5,11.4-44.2c-0.1-0.3-0.1-0.7-0.2-1
	c-1.6-7.5-8.7-14.4-16.2-12.8c0.6-6.6-3.9-12.9-9.6-16.4s-12.4-4.8-18.9-6c-7.5-1.4-15-2.8-22.6-2.3c-7.3,0.4-14.4,2.7-20.6,6.6
	c-15.5,10.2-22.8,29-18.2,46.9c9.5-10.8,20.8-22.5,37.1-17.9c3.7,1.1,7.1,2.9,10.1,5.3c9.9,7.8,14.9,19.2,19.7,30.4
	c2.4-6.1,11.3-8.4,16.4-4.2c3.3,2.7,4.6,7.2,4.5,11.4c-0.3,4.2-1.3,8.4-2.9,12.3"/>
<path class="st4" d="M687.5,648.9h-2.1v-8.4c0-5.2-4.2-9.3-9.3-9.3h-26.6c-5.2,0-9.3,4.2-9.3,9.3v57.8c0,5.2,4.2,9.3,9.3,9.3h26.6
	c5.2,0,9.3-4.2,9.3-9.3v-39.5h2.1V648.9z"/>
<circle class="st1" cx="663.5" cy="658.8" r="5.7"/>
<path class="st3" d="M668.1,681.4c-4.1-8.6-14.3-12.3-22.9-8.2c-0.9,0.4-1.8,0.9-2.6,1.5l-33.4-20.9L591.5,671l47.6,28.8
	c6.1,7.4,17,8.5,24.4,2.5C669.6,697.2,671.6,688.6,668.1,681.4z"/>
<path class="st5" d="M548.7,641.6l30.5-115.4c1.7-6.2,7.8-10.1,14.1-8.9l10.5,1.9l11.2,61.6l-22.8,51.9l41.2,24.7l-5.8,46.3
	L548.7,641.6z"/>
<path class="st5" d="M829.6,1107.7h-381c-0.6,0-1-0.4-1-1c0-0.6,0.4-1,1-1h381c0.6,0,1,0.4,1,1
	C830.6,1107.3,830.1,1107.7,829.6,1107.7z"/>
</svg>
