<?xml version="1.0" encoding="utf-8"?>
<!-- Generator: Adobe Illustrator 25.1.0, SVG Export Plug-In . SVG Version: 6.00 Build 0)  -->
<svg version="1.1" id="Layer_1" xmlns="http://www.w3.org/2000/svg" xmlns:xlink="http://www.w3.org/1999/xlink" x="0px" y="0px"
	 viewBox="0 0 1920 1080" style="enable-background:new 0 0 1920 1080;" xml:space="preserve">
<style type="text/css">
	.st0{fill:url(#SVGID_1_);fill-opacity:0.5;}
	.st1{fill:url(#SVGID_2_);fill-opacity:0.5;}
	.st2{fill:url(#SVGID_3_);}
	.st3{fill:url(#SVGID_4_);}
	.st4{opacity:0.2;fill:#FFFFFF;}
	.st5{fill:url(#SVGID_5_);fill-opacity:0.5;}
	.st6{fill:url(#SVGID_6_);}
	.st7{fill:url(#SVGID_7_);fill-opacity:0.5;}
	.st8{fill:url(#SVGID_8_);}
	.st9{fill:url(#SVGID_9_);fill-opacity:0.5;}
	.st10{fill:url(#SVGID_10_);}
</style>
<linearGradient id="SVGID_1_" gradientUnits="userSpaceOnUse" x1="1310.915" y1="571.561" x2="2273.0085" y2="-390.5325">
	<stop  offset="0" style="stop-color:#725CFF"/>
	<stop  offset="1" style="stop-color:#B96EFF"/>
</linearGradient>
<path class="st0" d="M2154,1131.9c-419.9-89.2-531.7-219.2-557.3-320.2c-30.2-119.1,62.3-186.6,24.6-314.1
	c-55.2-186.8-291.5-169.8-437.2-338.7c-208-241-173-792.6,110.8-957.6c252.3-146.6,631.3,52.8,822.1,252.5
	C2463.8-183.3,2474.6,479.3,2154,1131.9z"/>
<linearGradient id="SVGID_2_" gradientUnits="userSpaceOnUse" x1="878.1769" y1="1089.91" x2="1274.8218" y2="693.2652" gradientTransform="matrix(-6.123234e-17 -1 1 -6.123234e-17 -759.2226 1159.6038)">
	<stop  offset="0" style="stop-color:#725CFF"/>
	<stop  offset="1" style="stop-color:#B96EFF"/>
</linearGradient>
<path class="st1" d="M561.7-66.2c-36.8,173.1-90.4,219.2-132,229.8c-49.1,12.5-76.9-25.7-129.5-10.2c-77,22.8-70,120.2-139.6,180.3
	C61.2,419.5-166.2,405-234.2,288c-60.4-104,21.8-260.3,104.1-338.9C19.5-193.9,292.7-198.3,561.7-66.2z"/>
<linearGradient id="SVGID_3_" gradientUnits="userSpaceOnUse" x1="1372.4967" y1="534.612" x2="2334.5901" y2="-427.4815">
	<stop  offset="0" style="stop-color:#725CFF"/>
	<stop  offset="1" style="stop-color:#B96EFF"/>
</linearGradient>
<path class="st2" d="M2215.6,1095c-419.9-89.2-531.7-219.2-557.3-320.2c-30.2-119.1,62.3-186.6,24.6-314.1
	c-55.2-186.8-291.5-169.8-437.2-338.7c-208-241-173-792.6,110.8-957.6c252.3-146.6,631.3,52.8,822.1,252.5
	C2525.3-220.3,2536.2,442.4,2215.6,1095z"/>
<linearGradient id="SVGID_4_" gradientUnits="userSpaceOnUse" x1="903.5654" y1="1074.677" x2="1300.2102" y2="678.0321" gradientTransform="matrix(-6.123234e-17 -1 1 -6.123234e-17 -759.2226 1159.6038)">
	<stop  offset="0" style="stop-color:#725CFF"/>
	<stop  offset="1" style="stop-color:#B96EFF"/>
</linearGradient>
<path class="st3" d="M546.5-91.5c-36.8,173.1-90.4,219.2-132,229.8c-49.1,12.5-76.9-25.7-129.5-10.2c-77,22.8-70,120.2-139.6,180.3
	c-99.4,85.7-326.8,71.3-394.8-45.7c-60.4-104,21.8-260.3,104.1-338.9C4.2-219.3,277.4-223.7,546.5-91.5z"/>
<g>
	<circle class="st4" cx="1559.7" cy="123.5" r="4.2"/>
	<circle class="st4" cx="1573.4" cy="123.5" r="4.2"/>
	<circle class="st4" cx="1587.2" cy="123.5" r="4.2"/>
	<circle class="st4" cx="1600.9" cy="123.5" r="4.2"/>
	<circle class="st4" cx="1614.6" cy="123.5" r="4.2"/>
	<circle class="st4" cx="1628.3" cy="123.5" r="4.2"/>
	<circle class="st4" cx="1642" cy="123.5" r="4.2"/>
	<circle class="st4" cx="1655.7" cy="123.5" r="4.2"/>
	<circle class="st4" cx="1669.5" cy="123.5" r="4.2"/>
	<circle class="st4" cx="1683.2" cy="123.5" r="4.2"/>
	<circle class="st4" cx="1573.4" cy="108.7" r="4.2"/>
	<circle class="st4" cx="1587.2" cy="108.7" r="4.2"/>
	<circle class="st4" cx="1600.9" cy="108.7" r="4.2"/>
	<circle class="st4" cx="1614.6" cy="108.7" r="4.2"/>
	<circle class="st4" cx="1628.3" cy="108.7" r="4.2"/>
	<circle class="st4" cx="1642" cy="108.7" r="4.2"/>
	<circle class="st4" cx="1655.7" cy="108.7" r="4.2"/>
	<circle class="st4" cx="1669.5" cy="108.7" r="4.2"/>
	<circle class="st4" cx="1587.2" cy="95.8" r="4.2"/>
	<circle class="st4" cx="1600.9" cy="95.8" r="4.2"/>
	<circle class="st4" cx="1614.6" cy="95.8" r="4.2"/>
	<circle class="st4" cx="1628.3" cy="95.8" r="4.2"/>
	<circle class="st4" cx="1642" cy="95.8" r="4.2"/>
	<circle class="st4" cx="1655.7" cy="95.8" r="4.2"/>
	<circle class="st4" cx="1600.9" cy="82.9" r="4.2"/>
	<circle class="st4" cx="1614.6" cy="82.9" r="4.2"/>
	<circle class="st4" cx="1628.3" cy="82.9" r="4.2"/>
	<circle class="st4" cx="1642" cy="82.9" r="4.2"/>
	<circle class="st4" cx="1614.6" cy="70.1" r="4.2"/>
	<circle class="st4" cx="1628.3" cy="70.1" r="4.2"/>
	<circle class="st4" cx="1559.7" cy="139.1" r="4.2"/>
	<circle class="st4" cx="1573.4" cy="139.1" r="4.2"/>
	<circle class="st4" cx="1587.2" cy="139.1" r="4.2"/>
	<circle class="st4" cx="1600.9" cy="139.1" r="4.2"/>
	<circle class="st4" cx="1614.6" cy="139.1" r="4.2"/>
	<circle class="st4" cx="1628.3" cy="139.1" r="4.2"/>
	<circle class="st4" cx="1642" cy="139.1" r="4.2"/>
	<circle class="st4" cx="1655.7" cy="139.1" r="4.2"/>
	<circle class="st4" cx="1669.5" cy="139.1" r="4.2"/>
	<circle class="st4" cx="1683.2" cy="139.1" r="4.2"/>
	<circle class="st4" cx="1559.7" cy="167.9" r="4.2"/>
	<circle class="st4" cx="1573.4" cy="167.9" r="4.2"/>
	<circle class="st4" cx="1587.2" cy="167.9" r="4.2"/>
	<circle class="st4" cx="1600.9" cy="167.9" r="4.2"/>
	<circle class="st4" cx="1614.6" cy="167.9" r="4.2"/>
	<circle class="st4" cx="1628.3" cy="167.9" r="4.2"/>
	<circle class="st4" cx="1642" cy="167.9" r="4.2"/>
	<circle class="st4" cx="1655.7" cy="167.9" r="4.2"/>
	<circle class="st4" cx="1669.5" cy="167.9" r="4.2"/>
	<circle class="st4" cx="1683.2" cy="167.9" r="4.2"/>
	<circle class="st4" cx="1573.4" cy="181.3" r="4.2"/>
	<circle class="st4" cx="1587.2" cy="181.3" r="4.2"/>
	<circle class="st4" cx="1600.9" cy="181.3" r="4.2"/>
	<circle class="st4" cx="1614.6" cy="181.3" r="4.2"/>
	<circle class="st4" cx="1628.3" cy="181.3" r="4.2"/>
	<circle class="st4" cx="1642" cy="181.3" r="4.2"/>
	<circle class="st4" cx="1655.7" cy="181.3" r="4.2"/>
	<circle class="st4" cx="1669.5" cy="181.3" r="4.2"/>
	<circle class="st4" cx="1683.2" cy="181.3" r="4.2"/>
	<circle class="st4" cx="1587.2" cy="197.7" r="4.2"/>
	<circle class="st4" cx="1600.9" cy="197.7" r="4.2"/>
	<circle class="st4" cx="1614.6" cy="197.7" r="4.2"/>
	<circle class="st4" cx="1628.3" cy="197.7" r="4.2"/>
	<circle class="st4" cx="1642" cy="197.7" r="4.2"/>
	<circle class="st4" cx="1655.7" cy="197.7" r="4.2"/>
	<circle class="st4" cx="1669.5" cy="197.7" r="4.2"/>
	<circle class="st4" cx="1683.2" cy="197.7" r="4.2"/>
	<circle class="st4" cx="1600.9" cy="211.1" r="4.2"/>
	<circle class="st4" cx="1614.6" cy="211.1" r="4.2"/>
	<circle class="st4" cx="1628.3" cy="211.1" r="4.2"/>
	<circle class="st4" cx="1642" cy="211.1" r="4.2"/>
	<circle class="st4" cx="1655.7" cy="211.1" r="4.2"/>
	<circle class="st4" cx="1628.3" cy="222.5" r="4.2"/>
	<circle class="st4" cx="1642" cy="222.5" r="4.2"/>
	<circle class="st4" cx="1642" cy="233.9" r="4.2"/>
	<circle class="st4" cx="1655.7" cy="222.5" r="4.2"/>
	<circle class="st4" cx="1669.5" cy="211.1" r="4.2"/>
	<circle class="st4" cx="1683.2" cy="211.1" r="4.2"/>
	<circle class="st4" cx="1559.7" cy="152.3" r="4.2"/>
	<circle class="st4" cx="1573.4" cy="152.3" r="4.2"/>
	<circle class="st4" cx="1587.2" cy="152.3" r="4.2"/>
	<circle class="st4" cx="1600.9" cy="152.3" r="4.2"/>
	<circle class="st4" cx="1614.6" cy="152.3" r="4.2"/>
	<circle class="st4" cx="1628.3" cy="152.3" r="4.2"/>
	<circle class="st4" cx="1642" cy="152.3" r="4.2"/>
	<circle class="st4" cx="1655.7" cy="152.3" r="4.2"/>
	<circle class="st4" cx="1669.5" cy="152.3" r="4.2"/>
	<circle class="st4" cx="1683.2" cy="152.3" r="4.2"/>
	<circle class="st4" cx="1697" cy="142.8" r="4.2"/>
	<circle class="st4" cx="1697" cy="156.5" r="4.2"/>
	<circle class="st4" cx="1697" cy="170.2" r="4.2"/>
	<circle class="st4" cx="1697" cy="183.9" r="4.2"/>
	<circle class="st4" cx="1697" cy="197.7" r="4.2"/>
	<circle class="st4" cx="1697" cy="211.4" r="4.2"/>
	<circle class="st4" cx="1709.8" cy="156.5" r="4.2"/>
	<circle class="st4" cx="1709.8" cy="170.2" r="4.2"/>
	<circle class="st4" cx="1709.8" cy="183.9" r="4.2"/>
	<circle class="st4" cx="1709.8" cy="197.7" r="4.2"/>
	<circle class="st4" cx="1722.7" cy="170.2" r="4.2"/>
	<circle class="st4" cx="1722.7" cy="183.9" r="4.2"/>
</g>
<g>
	<circle class="st4" cx="2029.5" cy="920.8" r="4.2"/>
	<circle class="st4" cx="2015.7" cy="920.8" r="4.2"/>
	<circle class="st4" cx="2002" cy="920.8" r="4.2"/>
	<circle class="st4" cx="1988.3" cy="920.8" r="4.2"/>
	<circle class="st4" cx="1974.6" cy="920.8" r="4.2"/>
	<circle class="st4" cx="1960.9" cy="920.8" r="4.2"/>
	<circle class="st4" cx="1947.2" cy="920.8" r="4.2"/>
	<circle class="st4" cx="1933.5" cy="920.8" r="4.2"/>
	<circle class="st4" cx="1919.7" cy="920.8" r="4.2"/>
	<circle class="st4" cx="1906" cy="920.8" r="4.2"/>
	<circle class="st4" cx="2015.7" cy="935.6" r="4.2"/>
	<circle class="st4" cx="2002" cy="935.6" r="4.2"/>
	<circle class="st4" cx="1988.3" cy="935.6" r="4.2"/>
	<circle class="st4" cx="1974.6" cy="935.6" r="4.2"/>
	<circle class="st4" cx="1960.9" cy="935.6" r="4.2"/>
	<circle class="st4" cx="1947.2" cy="935.6" r="4.2"/>
	<circle class="st4" cx="1933.5" cy="935.6" r="4.2"/>
	<circle class="st4" cx="1919.7" cy="935.6" r="4.2"/>
	<circle class="st4" cx="2002" cy="948.5" r="4.2"/>
	<circle class="st4" cx="1988.3" cy="948.5" r="4.2"/>
	<circle class="st4" cx="1974.6" cy="948.5" r="4.2"/>
	<circle class="st4" cx="1960.9" cy="948.5" r="4.2"/>
	<circle class="st4" cx="1947.2" cy="948.5" r="4.2"/>
	<circle class="st4" cx="1933.5" cy="948.5" r="4.2"/>
	<circle class="st4" cx="1988.3" cy="961.3" r="4.2"/>
	<circle class="st4" cx="1974.6" cy="961.3" r="4.2"/>
	<circle class="st4" cx="1960.9" cy="961.3" r="4.2"/>
	<circle class="st4" cx="1947.2" cy="961.3" r="4.2"/>
	<circle class="st4" cx="1974.6" cy="974.2" r="4.2"/>
	<circle class="st4" cx="1960.9" cy="974.2" r="4.2"/>
	<circle class="st4" cx="2029.5" cy="905.2" r="4.2"/>
	<circle class="st4" cx="2015.7" cy="905.2" r="4.2"/>
	<circle class="st4" cx="2002" cy="905.2" r="4.2"/>
	<circle class="st4" cx="1988.3" cy="905.2" r="4.2"/>
	<circle class="st4" cx="1974.6" cy="905.2" r="4.2"/>
	<circle class="st4" cx="1960.9" cy="905.2" r="4.2"/>
	<circle class="st4" cx="1947.2" cy="905.2" r="4.2"/>
	<circle class="st4" cx="1933.5" cy="905.2" r="4.2"/>
	<circle class="st4" cx="1919.7" cy="905.2" r="4.2"/>
	<circle class="st4" cx="1906" cy="905.2" r="4.2"/>
	<circle class="st4" cx="2029.5" cy="876.4" r="4.2"/>
	<circle class="st4" cx="2015.7" cy="876.4" r="4.2"/>
	<circle class="st4" cx="2002" cy="876.4" r="4.2"/>
	<circle class="st4" cx="1988.3" cy="876.4" r="4.2"/>
	<circle class="st4" cx="1974.6" cy="876.4" r="4.2"/>
	<circle class="st4" cx="1960.9" cy="876.4" r="4.2"/>
	<circle class="st4" cx="1947.2" cy="876.4" r="4.2"/>
	<circle class="st4" cx="1933.5" cy="876.4" r="4.2"/>
	<circle class="st4" cx="1919.7" cy="876.4" r="4.2"/>
	<circle class="st4" cx="1906" cy="876.4" r="4.2"/>
	<circle class="st4" cx="2015.7" cy="862.9" r="4.2"/>
	<circle class="st4" cx="2002" cy="862.9" r="4.2"/>
	<circle class="st4" cx="1988.3" cy="862.9" r="4.2"/>
	<circle class="st4" cx="1974.6" cy="862.9" r="4.2"/>
	<circle class="st4" cx="1960.9" cy="862.9" r="4.2"/>
	<circle class="st4" cx="1947.2" cy="862.9" r="4.2"/>
	<circle class="st4" cx="1933.5" cy="862.9" r="4.2"/>
	<circle class="st4" cx="1919.7" cy="862.9" r="4.2"/>
	<circle class="st4" cx="1906" cy="862.9" r="4.2"/>
	<circle class="st4" cx="2002" cy="846.6" r="4.2"/>
	<circle class="st4" cx="1988.3" cy="846.6" r="4.2"/>
	<circle class="st4" cx="1974.6" cy="846.6" r="4.2"/>
	<circle class="st4" cx="1960.9" cy="846.6" r="4.2"/>
	<circle class="st4" cx="1947.2" cy="846.6" r="4.2"/>
	<circle class="st4" cx="1933.5" cy="846.6" r="4.2"/>
	<circle class="st4" cx="1919.7" cy="846.6" r="4.2"/>
	<circle class="st4" cx="1906" cy="846.6" r="4.2"/>
	<circle class="st4" cx="1988.3" cy="833.2" r="4.2"/>
	<circle class="st4" cx="1974.6" cy="833.2" r="4.2"/>
	<circle class="st4" cx="1960.9" cy="833.2" r="4.2"/>
	<circle class="st4" cx="1947.2" cy="833.2" r="4.2"/>
	<circle class="st4" cx="1933.5" cy="833.2" r="4.2"/>
	<circle class="st4" cx="1960.9" cy="821.8" r="4.2"/>
	<circle class="st4" cx="1947.2" cy="821.8" r="4.2"/>
	<circle class="st4" cx="1947.2" cy="810.4" r="4.2"/>
	<circle class="st4" cx="1933.5" cy="821.8" r="4.2"/>
	<circle class="st4" cx="1919.7" cy="833.2" r="4.2"/>
	<circle class="st4" cx="1906" cy="833.2" r="4.2"/>
	<circle class="st4" cx="2029.5" cy="892" r="4.2"/>
	<circle class="st4" cx="2015.7" cy="892" r="4.2"/>
	<circle class="st4" cx="2002" cy="892" r="4.2"/>
	<circle class="st4" cx="1988.3" cy="892" r="4.2"/>
	<circle class="st4" cx="1974.6" cy="892" r="4.2"/>
	<circle class="st4" cx="1960.9" cy="892" r="4.2"/>
	<circle class="st4" cx="1947.2" cy="892" r="4.2"/>
	<circle class="st4" cx="1933.5" cy="892" r="4.2"/>
	<circle class="st4" cx="1919.7" cy="892" r="4.2"/>
	<circle class="st4" cx="1906" cy="892" r="4.2"/>
	<circle class="st4" cx="1892.2" cy="901.5" r="4.2"/>
	<circle class="st4" cx="1892.2" cy="887.7" r="4.2"/>
	<circle class="st4" cx="1892.2" cy="874" r="4.2"/>
	<circle class="st4" cx="1892.2" cy="860.3" r="4.2"/>
	<circle class="st4" cx="1892.2" cy="846.6" r="4.2"/>
	<circle class="st4" cx="1892.2" cy="832.9" r="4.2"/>
	<circle class="st4" cx="1879.4" cy="887.7" r="4.2"/>
	<circle class="st4" cx="1879.4" cy="874" r="4.2"/>
	<circle class="st4" cx="1879.4" cy="860.3" r="4.2"/>
	<circle class="st4" cx="1879.4" cy="846.6" r="4.2"/>
	<circle class="st4" cx="1866.5" cy="874" r="4.2"/>
	<circle class="st4" cx="1866.5" cy="860.3" r="4.2"/>
</g>
<g>
	<circle class="st4" cx="-28.5" cy="292" r="4.2"/>
	<circle class="st4" cx="-28.5" cy="278.3" r="4.2"/>
	<circle class="st4" cx="-28.5" cy="264.6" r="4.2"/>
	<circle class="st4" cx="-28.5" cy="250.9" r="4.2"/>
	<circle class="st4" cx="-28.5" cy="237.2" r="4.2"/>
	<circle class="st4" cx="-28.5" cy="223.5" r="4.2"/>
	<circle class="st4" cx="-28.5" cy="209.7" r="4.2"/>
	<circle class="st4" cx="-28.5" cy="196" r="4.2"/>
	<circle class="st4" cx="-28.5" cy="182.3" r="4.2"/>
	<circle class="st4" cx="-28.5" cy="168.6" r="4.2"/>
	<circle class="st4" cx="-43.3" cy="278.3" r="4.2"/>
	<circle class="st4" cx="-43.3" cy="264.6" r="4.2"/>
	<circle class="st4" cx="-43.3" cy="250.9" r="4.2"/>
	<circle class="st4" cx="-43.3" cy="237.2" r="4.2"/>
	<circle class="st4" cx="-43.3" cy="223.5" r="4.2"/>
	<circle class="st4" cx="-43.3" cy="209.7" r="4.2"/>
	<circle class="st4" cx="-43.3" cy="196" r="4.2"/>
	<circle class="st4" cx="-43.3" cy="182.3" r="4.2"/>
	<circle class="st4" cx="-56.2" cy="264.6" r="4.2"/>
	<circle class="st4" cx="-56.2" cy="250.9" r="4.2"/>
	<circle class="st4" cx="-56.2" cy="237.2" r="4.2"/>
	<circle class="st4" cx="-56.2" cy="223.5" r="4.2"/>
	<circle class="st4" cx="-56.2" cy="209.7" r="4.2"/>
	<circle class="st4" cx="-56.2" cy="196" r="4.2"/>
	<circle class="st4" cx="-69" cy="250.9" r="4.2"/>
	<circle class="st4" cx="-69" cy="237.2" r="4.2"/>
	<circle class="st4" cx="-69" cy="223.5" r="4.2"/>
	<circle class="st4" cx="-69" cy="209.7" r="4.2"/>
	<circle class="st4" cx="-81.9" cy="237.2" r="4.2"/>
	<circle class="st4" cx="-81.9" cy="223.5" r="4.2"/>
	<circle class="st4" cx="-12.9" cy="292" r="4.2"/>
	<circle class="st4" cx="-12.9" cy="278.3" r="4.2"/>
	<circle class="st4" cx="-12.9" cy="264.6" r="4.2"/>
	<circle class="st4" cx="-12.9" cy="250.9" r="4.2"/>
	<circle class="st4" cx="-12.9" cy="237.2" r="4.2"/>
	<circle class="st4" cx="-12.9" cy="223.5" r="4.2"/>
	<circle class="st4" cx="-12.9" cy="209.7" r="4.2"/>
	<circle class="st4" cx="-12.9" cy="196" r="4.2"/>
	<circle class="st4" cx="-12.9" cy="182.3" r="4.2"/>
	<circle class="st4" cx="-12.9" cy="168.6" r="4.2"/>
	<circle class="st4" cx="15.9" cy="292" r="4.2"/>
	<circle class="st4" cx="15.9" cy="278.3" r="4.2"/>
	<circle class="st4" cx="15.9" cy="264.6" r="4.2"/>
	<circle class="st4" cx="15.9" cy="250.9" r="4.2"/>
	<circle class="st4" cx="15.9" cy="237.2" r="4.2"/>
	<circle class="st4" cx="15.9" cy="223.5" r="4.2"/>
	<circle class="st4" cx="15.9" cy="209.7" r="4.2"/>
	<circle class="st4" cx="15.9" cy="196" r="4.2"/>
	<circle class="st4" cx="15.9" cy="182.3" r="4.2"/>
	<circle class="st4" cx="15.9" cy="168.6" r="4.2"/>
	<circle class="st4" cx="29.4" cy="278.3" r="4.2"/>
	<circle class="st4" cx="29.4" cy="264.6" r="4.2"/>
	<circle class="st4" cx="29.4" cy="250.9" r="4.2"/>
	<circle class="st4" cx="29.4" cy="237.2" r="4.2"/>
	<circle class="st4" cx="29.4" cy="223.5" r="4.2"/>
	<circle class="st4" cx="29.4" cy="209.7" r="4.2"/>
	<circle class="st4" cx="29.4" cy="196" r="4.2"/>
	<circle class="st4" cx="29.4" cy="182.3" r="4.2"/>
	<circle class="st4" cx="29.4" cy="168.6" r="4.2"/>
	<circle class="st4" cx="45.7" cy="264.6" r="4.2"/>
	<circle class="st4" cx="45.7" cy="250.9" r="4.2"/>
	<circle class="st4" cx="45.7" cy="237.2" r="4.2"/>
	<circle class="st4" cx="45.7" cy="223.5" r="4.2"/>
	<circle class="st4" cx="45.7" cy="209.7" r="4.2"/>
	<circle class="st4" cx="45.7" cy="196" r="4.2"/>
	<circle class="st4" cx="45.7" cy="182.3" r="4.2"/>
	<circle class="st4" cx="45.7" cy="168.6" r="4.2"/>
	<circle class="st4" cx="59.1" cy="250.9" r="4.2"/>
	<circle class="st4" cx="59.1" cy="237.2" r="4.2"/>
	<circle class="st4" cx="59.1" cy="223.5" r="4.2"/>
	<circle class="st4" cx="59.1" cy="209.7" r="4.2"/>
	<circle class="st4" cx="59.1" cy="196" r="4.2"/>
	<circle class="st4" cx="70.5" cy="223.5" r="4.2"/>
	<circle class="st4" cx="70.5" cy="209.7" r="4.2"/>
	<circle class="st4" cx="81.9" cy="209.7" r="4.2"/>
	<circle class="st4" cx="70.5" cy="196" r="4.2"/>
	<circle class="st4" cx="59.1" cy="182.3" r="4.2"/>
	<circle class="st4" cx="59.1" cy="168.6" r="4.2"/>
	<circle class="st4" cx="0.3" cy="292" r="4.2"/>
	<circle class="st4" cx="0.3" cy="278.3" r="4.2"/>
	<circle class="st4" cx="0.3" cy="264.6" r="4.2"/>
	<circle class="st4" cx="0.3" cy="250.9" r="4.2"/>
	<circle class="st4" cx="0.3" cy="237.2" r="4.2"/>
	<circle class="st4" cx="0.3" cy="223.5" r="4.2"/>
	<circle class="st4" cx="0.3" cy="209.7" r="4.2"/>
	<circle class="st4" cx="0.3" cy="196" r="4.2"/>
	<circle class="st4" cx="0.3" cy="182.3" r="4.2"/>
	<circle class="st4" cx="0.3" cy="168.6" r="4.2"/>
	<circle class="st4" cx="-9.2" cy="154.8" r="4.2"/>
	<circle class="st4" cx="4.6" cy="154.8" r="4.2"/>
	<circle class="st4" cx="18.3" cy="154.8" r="4.2"/>
	<circle class="st4" cx="32" cy="154.8" r="4.2"/>
	<circle class="st4" cx="45.7" cy="154.8" r="4.2"/>
	<circle class="st4" cx="59.4" cy="154.8" r="4.2"/>
	<circle class="st4" cx="4.6" cy="141.9" r="4.2"/>
	<circle class="st4" cx="18.3" cy="141.9" r="4.2"/>
	<circle class="st4" cx="32" cy="141.9" r="4.2"/>
	<circle class="st4" cx="45.7" cy="141.9" r="4.2"/>
	<circle class="st4" cx="18.3" cy="129.1" r="4.2"/>
	<circle class="st4" cx="32" cy="129.1" r="4.2"/>
</g>
<g>
	<linearGradient id="SVGID_5_" gradientUnits="userSpaceOnUse" x1="380.6819" y1="450.5508" x2="426.4101" y2="404.8226">
		<stop  offset="0" style="stop-color:#725CFF"/>
		<stop  offset="1" style="stop-color:#B96EFF"/>
	</linearGradient>
	<circle class="st5" cx="403.5" cy="427.7" r="32.3"/>
	<linearGradient id="SVGID_6_" gradientUnits="userSpaceOnUse" x1="387.0399" y1="444.1927" x2="420.0521" y2="411.1806">
		<stop  offset="0" style="stop-color:#725CFF"/>
		<stop  offset="1" style="stop-color:#B96EFF"/>
	</linearGradient>
	<circle class="st6" cx="403.5" cy="427.7" r="23.3"/>
</g>
<g>
	<linearGradient id="SVGID_7_" gradientUnits="userSpaceOnUse" x1="975.0569" y1="985.4807" x2="1042.327" y2="918.2105">
		<stop  offset="0" style="stop-color:#725CFF"/>
		<stop  offset="1" style="stop-color:#B96EFF"/>
	</linearGradient>
	<circle class="st7" cx="1008.7" cy="951.8" r="47.6"/>
	<linearGradient id="SVGID_8_" gradientUnits="userSpaceOnUse" x1="984.4101" y1="976.1274" x2="1032.9739" y2="927.5637">
		<stop  offset="0" style="stop-color:#725CFF"/>
		<stop  offset="1" style="stop-color:#B96EFF"/>
	</linearGradient>
	<circle class="st8" cx="1008.7" cy="951.8" r="34.3"/>
</g>
<g>
	<linearGradient id="SVGID_9_" gradientUnits="userSpaceOnUse" x1="1055.3527" y1="214.4214" x2="1088.8771" y2="180.8969">
		<stop  offset="0" style="stop-color:#725CFF"/>
		<stop  offset="1" style="stop-color:#B96EFF"/>
	</linearGradient>
	<circle class="st9" cx="1072.1" cy="197.7" r="23.7"/>
	<linearGradient id="SVGID_10_" gradientUnits="userSpaceOnUse" x1="1060.0138" y1="209.7601" x2="1084.2158" y2="185.5581">
		<stop  offset="0" style="stop-color:#725CFF"/>
		<stop  offset="1" style="stop-color:#B96EFF"/>
	</linearGradient>
	<circle class="st10" cx="1072.1" cy="197.7" r="17.1"/>
</g>
</svg>
