<?xml version="1.0" encoding="utf-8"?>
<!-- Generator: Adobe Illustrator 25.1.0, SVG Export Plug-In . SVG Version: 6.00 Build 0)  -->
<svg version="1.1" id="Layer_1" xmlns="http://www.w3.org/2000/svg" xmlns:xlink="http://www.w3.org/1999/xlink" x="0px" y="0px"
	 viewBox="0 0 2117.8 1255.7" style="enable-background:new 0 0 2117.8 1255.7;" xml:space="preserve">
<style type="text/css">
	.st0{fill:url(#SVGID_1_);fill-opacity:0.5;}
	.st1{fill:url(#SVGID_2_);fill-opacity:0.5;}
	.st2{fill:url(#SVGID_3_);}
	.st3{fill:url(#SVGID_4_);}
	.st4{opacity:0.2;fill:#FFFFFF;enable-background:new    ;}
	.st5{fill:url(#SVGID_5_);fill-opacity:0.5;}
	.st6{fill:url(#SVGID_6_);}
	.st7{fill:url(#SVGID_7_);fill-opacity:0.5;}
	.st8{fill:url(#SVGID_8_);}
	.st9{fill:url(#SVGID_9_);fill-opacity:0.5;}
	.st10{fill:url(#SVGID_10_);}
	.st11{fill:url(#SVGID_11_);fill-opacity:0.5;}
	.st12{fill:url(#SVGID_12_);}
</style>
<linearGradient id="SVGID_1_" gradientUnits="userSpaceOnUse" x1="1599.2842" y1="682.3885" x2="2561.3931" y2="1644.4977" gradientTransform="matrix(0.9342 -0.3568 -0.3568 -0.9342 319.4876 2231.3362)">
	<stop  offset="0" style="stop-color:#725CFF"/>
	<stop  offset="1" style="stop-color:#B96EFF"/>
</linearGradient>
<path class="st0" d="M2557.6,1245.9c-424.1,66.5-574.9-15.1-634.9-100.3c-70.7-100.5-8.3-196.5-89-302.2
	c-118.2-154.8-332.9-54.7-529.3-160.4C1024.1,532.1,859.9,4.3,1066.3-251.1c183.4-227,608.6-175.9,858.1-57.5
	C2377.7-93.3,2624.2,521.8,2557.6,1245.9z"/>
<linearGradient id="SVGID_2_" gradientUnits="userSpaceOnUse" x1="2636.0808" y1="624.5237" x2="3032.7351" y2="1021.1779" gradientTransform="matrix(-6.123234e-17 -1 -1 6.123234e-17 938.7774 3023.6038)">
	<stop  offset="0" style="stop-color:#725CFF"/>
	<stop  offset="1" style="stop-color:#B96EFF"/>
</linearGradient>
<path class="st1" d="M426.9-54.1c81.5,27,114.5,157,76.6,234c-28.6,58-59.6,78.8-85.9,85.4c-49.1,12.5-76.9-25.7-129.5-10.2
	c-77,22.8-70,120.2-139.6,180.3c-99.4,85.7-326.8,71.3-394.8-45.7c-60.4-104,21.8-260.3,104.1-338.9
	C-16.4-69.4,202.2-128.7,426.9-54.1z"/>
<linearGradient id="SVGID_3_" gradientUnits="userSpaceOnUse" x1="1660.8303" y1="719.359" x2="2622.9395" y2="1681.4681" gradientTransform="matrix(0.9342 -0.3568 -0.3568 -0.9342 319.4876 2231.3362)">
	<stop  offset="0" style="stop-color:#725CFF"/>
	<stop  offset="1" style="stop-color:#B96EFF"/>
</linearGradient>
<path class="st2" d="M2601.9,1189.4c-424.1,66.5-574.9-15.1-634.9-100.3c-70.7-100.5-8.3-196.5-89-302.2
	c-118.2-154.8-332.9-54.7-529.3-160.4c-280.3-150.9-444.4-678.8-238.1-934.1c183.4-227,608.6-175.9,858.1-57.5
	C2422-149.8,2668.6,465.4,2601.9,1189.4z"/>
<linearGradient id="SVGID_4_" gradientUnits="userSpaceOnUse" x1="2649.4031" y1="651.7859" x2="3046.0151" y2="1048.3978" gradientTransform="matrix(-6.123234e-17 -1 -1 6.123234e-17 938.7774 3023.6038)">
	<stop  offset="0" style="stop-color:#725CFF"/>
	<stop  offset="1" style="stop-color:#B96EFF"/>
</linearGradient>
<path class="st3" d="M381.2-50.4C492-17,531.8,120.3,454.5,206.4c-18.1,20.1-36,29.5-52.1,33.6c-49.1,12.5-76.9-25.7-129.5-10.2
	c-77,22.8-70,120.2-139.6,180.3c-99.4,85.7-326.8,71.3-394.8-45.7c-60.4-104,21.8-260.3,104.1-338.9
	C-36.3-90.3,165.8-115.2,381.2-50.4z"/>
<g>
	<circle class="st4" cx="1642.6" cy="515.8" r="4.2"/>
	<circle class="st4" cx="1655.4" cy="510.9" r="4.2"/>
	<circle class="st4" cx="1668.2" cy="506.1" r="4.2"/>
	<circle class="st4" cx="1681.1" cy="501.2" r="4.2"/>
	<circle class="st4" cx="1693.9" cy="496.3" r="4.2"/>
	<circle class="st4" cx="1706.7" cy="491.4" r="4.2"/>
	<circle class="st4" cx="1719.5" cy="486.5" r="4.2"/>
	<circle class="st4" cx="1732.3" cy="481.6" r="4.2"/>
	<circle class="st4" cx="1745.1" cy="476.7" r="4.2"/>
	<circle class="st4" cx="1757.9" cy="471.8" r="4.2"/>
	<circle class="st4" cx="1650.1" cy="497.1" r="4.2"/>
	<circle class="st4" cx="1663" cy="492.2" r="4.2"/>
	<circle class="st4" cx="1675.8" cy="487.3" r="4.2"/>
	<circle class="st4" cx="1688.6" cy="482.4" r="4.2"/>
	<circle class="st4" cx="1701.4" cy="477.5" r="4.2"/>
	<circle class="st4" cx="1714.2" cy="472.6" r="4.2"/>
	<circle class="st4" cx="1727" cy="467.7" r="4.2"/>
	<circle class="st4" cx="1739.8" cy="462.9" r="4.2"/>
	<circle class="st4" cx="1658.4" cy="480.2" r="4.2"/>
	<circle class="st4" cx="1671.2" cy="475.3" r="4.2"/>
	<circle class="st4" cx="1684" cy="470.4" r="4.2"/>
	<circle class="st4" cx="1696.8" cy="465.5" r="4.2"/>
	<circle class="st4" cx="1709.6" cy="460.6" r="4.2"/>
	<circle class="st4" cx="1722.4" cy="455.7" r="4.2"/>
	<circle class="st4" cx="1666.6" cy="463.3" r="4.2"/>
	<circle class="st4" cx="1679.4" cy="458.4" r="4.2"/>
	<circle class="st4" cx="1692.2" cy="453.5" r="4.2"/>
	<circle class="st4" cx="1705" cy="448.6" r="4.2"/>
	<circle class="st4" cx="1674.8" cy="446.4" r="4.2"/>
	<circle class="st4" cx="1687.6" cy="441.5" r="4.2"/>
	<circle class="st4" cx="1648.2" cy="530.4" r="4.2"/>
	<circle class="st4" cx="1661" cy="525.5" r="4.2"/>
	<circle class="st4" cx="1673.8" cy="520.6" r="4.2"/>
	<circle class="st4" cx="1686.6" cy="515.7" r="4.2"/>
	<circle class="st4" cx="1699.4" cy="510.8" r="4.2"/>
	<circle class="st4" cx="1712.2" cy="506" r="4.2"/>
	<circle class="st4" cx="1725.1" cy="501.1" r="4.2"/>
	<circle class="st4" cx="1737.9" cy="496.2" r="4.2"/>
	<circle class="st4" cx="1750.7" cy="491.3" r="4.2"/>
	<circle class="st4" cx="1763.5" cy="486.4" r="4.2"/>
	<circle class="st4" cx="1658.5" cy="557.4" r="4.2"/>
	<circle class="st4" cx="1671.3" cy="552.5" r="4.2"/>
	<circle class="st4" cx="1684.1" cy="547.6" r="4.2"/>
	<circle class="st4" cx="1696.9" cy="542.7" r="4.2"/>
	<circle class="st4" cx="1709.7" cy="537.8" r="4.2"/>
	<circle class="st4" cx="1722.5" cy="532.9" r="4.2"/>
	<circle class="st4" cx="1735.3" cy="528" r="4.2"/>
	<circle class="st4" cx="1748.2" cy="523.1" r="4.2"/>
	<circle class="st4" cx="1761" cy="518.2" r="4.2"/>
	<circle class="st4" cx="1773.8" cy="513.3" r="4.2"/>
	<circle class="st4" cx="1676.1" cy="565" r="4.2"/>
	<circle class="st4" cx="1688.9" cy="560.1" r="4.2"/>
	<circle class="st4" cx="1701.7" cy="555.2" r="4.2"/>
	<circle class="st4" cx="1714.5" cy="550.3" r="4.2"/>
	<circle class="st4" cx="1727.3" cy="545.4" r="4.2"/>
	<circle class="st4" cx="1740.1" cy="540.5" r="4.2"/>
	<circle class="st4" cx="1752.9" cy="535.6" r="4.2"/>
	<circle class="st4" cx="1765.8" cy="530.7" r="4.2"/>
	<circle class="st4" cx="1778.6" cy="525.8" r="4.2"/>
	<circle class="st4" cx="1694.7" cy="575.4" r="4.2"/>
	<circle class="st4" cx="1707.5" cy="570.5" r="4.2"/>
	<circle class="st4" cx="1720.3" cy="565.6" r="4.2"/>
	<circle class="st4" cx="1733.1" cy="560.7" r="4.2"/>
	<circle class="st4" cx="1746" cy="555.8" r="4.2"/>
	<circle class="st4" cx="1758.8" cy="550.9" r="4.2"/>
	<circle class="st4" cx="1771.6" cy="546" r="4.2"/>
	<circle class="st4" cx="1784.4" cy="541.1" r="4.2"/>
	<circle class="st4" cx="1712.3" cy="583" r="4.2"/>
	<circle class="st4" cx="1725.1" cy="578.1" r="4.2"/>
	<circle class="st4" cx="1737.9" cy="573.2" r="4.2"/>
	<circle class="st4" cx="1750.7" cy="568.3" r="4.2"/>
	<circle class="st4" cx="1763.6" cy="563.4" r="4.2"/>
	<circle class="st4" cx="1742" cy="583.8" r="4.2"/>
	<circle class="st4" cx="1754.8" cy="579" r="4.2"/>
	<circle class="st4" cx="1758.9" cy="589.6" r="4.2"/>
	<circle class="st4" cx="1767.6" cy="574.1" r="4.2"/>
	<circle class="st4" cx="1776.4" cy="558.5" r="4.2"/>
	<circle class="st4" cx="1789.2" cy="553.6" r="4.2"/>
	<circle class="st4" cx="1652.9" cy="542.8" r="4.2"/>
	<circle class="st4" cx="1665.7" cy="537.9" r="4.2"/>
	<circle class="st4" cx="1678.5" cy="533" r="4.2"/>
	<circle class="st4" cx="1691.3" cy="528.1" r="4.2"/>
	<circle class="st4" cx="1704.2" cy="523.2" r="4.2"/>
	<circle class="st4" cx="1717" cy="518.3" r="4.2"/>
	<circle class="st4" cx="1729.8" cy="513.4" r="4.2"/>
	<circle class="st4" cx="1742.6" cy="508.5" r="4.2"/>
	<circle class="st4" cx="1755.4" cy="503.6" r="4.2"/>
	<circle class="st4" cx="1768.2" cy="498.7" r="4.2"/>
	<circle class="st4" cx="1777.7" cy="484.9" r="4.2"/>
	<circle class="st4" cx="1782.6" cy="497.7" r="4.2"/>
	<circle class="st4" cx="1787.5" cy="510.6" r="4.2"/>
	<circle class="st4" cx="1792.4" cy="523.4" r="4.2"/>
	<circle class="st4" cx="1797.3" cy="536.2" r="4.2"/>
	<circle class="st4" cx="1802.2" cy="549" r="4.2"/>
	<circle class="st4" cx="1794.6" cy="493.2" r="4.2"/>
	<circle class="st4" cx="1799.5" cy="506" r="4.2"/>
	<circle class="st4" cx="1804.4" cy="518.8" r="4.2"/>
	<circle class="st4" cx="1809.3" cy="531.6" r="4.2"/>
	<circle class="st4" cx="1811.5" cy="501.4" r="4.2"/>
	<circle class="st4" cx="1816.4" cy="514.2" r="4.2"/>
</g>
<g>
	<circle class="st4" cx="2365.9" cy="1093.1" r="4.2"/>
	<circle class="st4" cx="2353.1" cy="1098" r="4.2"/>
	<circle class="st4" cx="2340.3" cy="1102.9" r="4.2"/>
	<circle class="st4" cx="2327.5" cy="1107.8" r="4.2"/>
	<circle class="st4" cx="2314.7" cy="1112.7" r="4.2"/>
	<circle class="st4" cx="2301.8" cy="1117.6" r="4.2"/>
	<circle class="st4" cx="2289" cy="1122.4" r="4.2"/>
	<circle class="st4" cx="2276.2" cy="1127.3" r="4.2"/>
	<circle class="st4" cx="2263.4" cy="1132.2" r="4.2"/>
	<circle class="st4" cx="2250.6" cy="1137.1" r="4.2"/>
	<circle class="st4" cx="2358.4" cy="1111.8" r="4.2"/>
	<circle class="st4" cx="2345.6" cy="1116.7" r="4.2"/>
	<circle class="st4" cx="2332.8" cy="1121.6" r="4.2"/>
	<circle class="st4" cx="2319.9" cy="1126.5" r="4.2"/>
	<circle class="st4" cx="2307.1" cy="1131.4" r="4.2"/>
	<circle class="st4" cx="2294.3" cy="1136.3" r="4.2"/>
	<circle class="st4" cx="2281.5" cy="1141.2" r="4.2"/>
	<circle class="st4" cx="2268.7" cy="1146.1" r="4.2"/>
	<circle class="st4" cx="2350.2" cy="1128.7" r="4.2"/>
	<circle class="st4" cx="2337.3" cy="1133.6" r="4.2"/>
	<circle class="st4" cx="2324.5" cy="1138.5" r="4.2"/>
	<circle class="st4" cx="2311.7" cy="1143.4" r="4.2"/>
	<circle class="st4" cx="2298.9" cy="1148.3" r="4.2"/>
	<circle class="st4" cx="2286.1" cy="1153.2" r="4.2"/>
	<circle class="st4" cx="2341.9" cy="1145.6" r="4.2"/>
	<circle class="st4" cx="2329.1" cy="1150.5" r="4.2"/>
	<circle class="st4" cx="2316.3" cy="1155.4" r="4.2"/>
	<circle class="st4" cx="2303.5" cy="1160.3" r="4.2"/>
	<circle class="st4" cx="2333.7" cy="1162.6" r="4.2"/>
	<circle class="st4" cx="2320.9" cy="1167.4" r="4.2"/>
	<circle class="st4" cx="2360.3" cy="1078.5" r="4.2"/>
	<circle class="st4" cx="2347.5" cy="1083.4" r="4.2"/>
	<circle class="st4" cx="2334.7" cy="1088.3" r="4.2"/>
	<circle class="st4" cx="2321.9" cy="1093.2" r="4.2"/>
	<circle class="st4" cx="2309.1" cy="1098.1" r="4.2"/>
	<circle class="st4" cx="2296.3" cy="1103" r="4.2"/>
	<circle class="st4" cx="2283.5" cy="1107.9" r="4.2"/>
	<circle class="st4" cx="2270.6" cy="1112.8" r="4.2"/>
	<circle class="st4" cx="2257.8" cy="1117.7" r="4.2"/>
	<circle class="st4" cx="2245" cy="1122.5" r="4.2"/>
	<circle class="st4" cx="2350.1" cy="1051.6" r="4.2"/>
	<circle class="st4" cx="2337.2" cy="1056.5" r="4.2"/>
	<circle class="st4" cx="2324.4" cy="1061.4" r="4.2"/>
	<circle class="st4" cx="2311.6" cy="1066.3" r="4.2"/>
	<circle class="st4" cx="2298.8" cy="1071.1" r="4.2"/>
	<circle class="st4" cx="2286" cy="1076" r="4.2"/>
	<circle class="st4" cx="2273.2" cy="1080.9" r="4.2"/>
	<circle class="st4" cx="2260.4" cy="1085.8" r="4.2"/>
	<circle class="st4" cx="2247.5" cy="1090.7" r="4.2"/>
	<circle class="st4" cx="2234.7" cy="1095.6" r="4.2"/>
	<circle class="st4" cx="2332.5" cy="1043.9" r="4.2"/>
	<circle class="st4" cx="2319.6" cy="1048.8" r="4.2"/>
	<circle class="st4" cx="2306.8" cy="1053.7" r="4.2"/>
	<circle class="st4" cx="2294" cy="1058.6" r="4.2"/>
	<circle class="st4" cx="2281.2" cy="1063.5" r="4.2"/>
	<circle class="st4" cx="2268.4" cy="1068.4" r="4.2"/>
	<circle class="st4" cx="2255.6" cy="1073.3" r="4.2"/>
	<circle class="st4" cx="2242.8" cy="1078.2" r="4.2"/>
	<circle class="st4" cx="2229.9" cy="1083.1" r="4.2"/>
	<circle class="st4" cx="2313.8" cy="1033.6" r="4.2"/>
	<circle class="st4" cx="2301" cy="1038.5" r="4.2"/>
	<circle class="st4" cx="2288.2" cy="1043.4" r="4.2"/>
	<circle class="st4" cx="2275.4" cy="1048.2" r="4.2"/>
	<circle class="st4" cx="2262.6" cy="1053.1" r="4.2"/>
	<circle class="st4" cx="2249.7" cy="1058" r="4.2"/>
	<circle class="st4" cx="2236.9" cy="1062.9" r="4.2"/>
	<circle class="st4" cx="2224.1" cy="1067.8" r="4.2"/>
	<circle class="st4" cx="2296.2" cy="1025.9" r="4.2"/>
	<circle class="st4" cx="2283.4" cy="1030.8" r="4.2"/>
	<circle class="st4" cx="2270.6" cy="1035.7" r="4.2"/>
	<circle class="st4" cx="2257.8" cy="1040.6" r="4.2"/>
	<circle class="st4" cx="2245" cy="1045.5" r="4.2"/>
	<circle class="st4" cx="2266.5" cy="1025.1" r="4.2"/>
	<circle class="st4" cx="2253.7" cy="1030" r="4.2"/>
	<circle class="st4" cx="2249.6" cy="1019.3" r="4.2"/>
	<circle class="st4" cx="2240.9" cy="1034.9" r="4.2"/>
	<circle class="st4" cx="2232.1" cy="1050.4" r="4.2"/>
	<circle class="st4" cx="2219.3" cy="1055.3" r="4.2"/>
	<circle class="st4" cx="2355.6" cy="1066.2" r="4.2"/>
	<circle class="st4" cx="2342.8" cy="1071" r="4.2"/>
	<circle class="st4" cx="2330" cy="1075.9" r="4.2"/>
	<circle class="st4" cx="2317.2" cy="1080.8" r="4.2"/>
	<circle class="st4" cx="2304.4" cy="1085.7" r="4.2"/>
	<circle class="st4" cx="2291.6" cy="1090.6" r="4.2"/>
	<circle class="st4" cx="2278.7" cy="1095.5" r="4.2"/>
	<circle class="st4" cx="2265.9" cy="1100.4" r="4.2"/>
	<circle class="st4" cx="2253.1" cy="1105.3" r="4.2"/>
	<circle class="st4" cx="2240.3" cy="1110.2" r="4.2"/>
	<circle class="st4" cx="2230.8" cy="1124" r="4.2"/>
	<circle class="st4" cx="2225.9" cy="1111.2" r="4.2"/>
	<circle class="st4" cx="2221" cy="1098.4" r="4.2"/>
	<circle class="st4" cx="2216.1" cy="1085.6" r="4.2"/>
	<circle class="st4" cx="2211.2" cy="1072.7" r="4.2"/>
	<circle class="st4" cx="2206.3" cy="1059.9" r="4.2"/>
	<circle class="st4" cx="2213.9" cy="1115.8" r="4.2"/>
	<circle class="st4" cx="2209" cy="1103" r="4.2"/>
	<circle class="st4" cx="2204.1" cy="1090.1" r="4.2"/>
	<circle class="st4" cx="2199.2" cy="1077.3" r="4.2"/>
	<circle class="st4" cx="2197" cy="1107.5" r="4.2"/>
	<circle class="st4" cx="2192.1" cy="1094.7" r="4.2"/>
</g>
<g>
	<circle class="st4" cx="-40.6" cy="393.8" r="4.2"/>
	<circle class="st4" cx="-40.6" cy="380.1" r="4.2"/>
	<circle class="st4" cx="-40.6" cy="366.4" r="4.2"/>
	<circle class="st4" cx="-40.6" cy="352.7" r="4.2"/>
	<circle class="st4" cx="-40.6" cy="338.9" r="4.2"/>
	<circle class="st4" cx="-40.6" cy="325.2" r="4.2"/>
	<circle class="st4" cx="-40.6" cy="311.5" r="4.2"/>
	<circle class="st4" cx="-40.6" cy="297.8" r="4.2"/>
	<circle class="st4" cx="-40.6" cy="284.1" r="4.2"/>
	<circle class="st4" cx="-40.6" cy="270.4" r="4.2"/>
	<circle class="st4" cx="-55.4" cy="380.1" r="4.2"/>
	<circle class="st4" cx="-55.4" cy="366.4" r="4.2"/>
	<circle class="st4" cx="-55.4" cy="352.7" r="4.2"/>
	<circle class="st4" cx="-55.4" cy="338.9" r="4.2"/>
	<circle class="st4" cx="-55.4" cy="325.2" r="4.2"/>
	<circle class="st4" cx="-55.4" cy="311.5" r="4.2"/>
	<circle class="st4" cx="-55.4" cy="297.8" r="4.2"/>
	<circle class="st4" cx="-55.4" cy="284.1" r="4.2"/>
	<circle class="st4" cx="-68.3" cy="366.4" r="4.2"/>
	<circle class="st4" cx="-68.3" cy="352.7" r="4.2"/>
	<circle class="st4" cx="-68.3" cy="338.9" r="4.2"/>
	<circle class="st4" cx="-68.3" cy="325.2" r="4.2"/>
	<circle class="st4" cx="-68.3" cy="311.5" r="4.2"/>
	<circle class="st4" cx="-68.3" cy="297.8" r="4.2"/>
	<circle class="st4" cx="-81.1" cy="352.7" r="4.2"/>
	<circle class="st4" cx="-81.1" cy="338.9" r="4.2"/>
	<circle class="st4" cx="-81.1" cy="325.2" r="4.2"/>
	<circle class="st4" cx="-81.1" cy="311.5" r="4.2"/>
	<circle class="st4" cx="-94" cy="338.9" r="4.2"/>
	<circle class="st4" cx="-94" cy="325.2" r="4.2"/>
	<circle class="st4" cx="-25" cy="393.8" r="4.2"/>
	<circle class="st4" cx="-25" cy="380.1" r="4.2"/>
	<circle class="st4" cx="-25" cy="366.4" r="4.2"/>
	<circle class="st4" cx="-25" cy="352.7" r="4.2"/>
	<circle class="st4" cx="-25" cy="338.9" r="4.2"/>
	<circle class="st4" cx="-25" cy="325.2" r="4.2"/>
	<circle class="st4" cx="-25" cy="311.5" r="4.2"/>
	<circle class="st4" cx="-25" cy="297.8" r="4.2"/>
	<circle class="st4" cx="-25" cy="284.1" r="4.2"/>
	<circle class="st4" cx="-25" cy="270.4" r="4.2"/>
	
		<ellipse transform="matrix(1 -2.439006e-03 2.439006e-03 1 -0.9605 1.043953e-02)" class="st4" cx="3.8" cy="393.8" rx="4.2" ry="4.2"/>
	
		<ellipse transform="matrix(1 -2.439006e-03 2.439006e-03 1 -0.9271 1.039879e-02)" class="st4" cx="3.8" cy="380.1" rx="4.2" ry="4.2"/>
	
		<ellipse transform="matrix(1 -2.439006e-03 2.439006e-03 1 -0.8936 1.035804e-02)" class="st4" cx="3.8" cy="366.4" rx="4.2" ry="4.2"/>
	
		<ellipse transform="matrix(1 -2.439006e-03 2.439006e-03 1 -0.8602 1.031729e-02)" class="st4" cx="3.8" cy="352.7" rx="4.2" ry="4.2"/>
	
		<ellipse transform="matrix(1 -2.439006e-03 2.439006e-03 1 -0.8266 1.027624e-02)" class="st4" cx="3.8" cy="338.9" rx="4.2" ry="4.2"/>
	
		<ellipse transform="matrix(1 -2.439006e-03 2.439006e-03 1 -0.7932 1.023549e-02)" class="st4" cx="3.8" cy="325.2" rx="4.2" ry="4.2"/>
	
		<ellipse transform="matrix(1 -2.439006e-03 2.439006e-03 1 -0.7597 1.019474e-02)" class="st4" cx="3.8" cy="311.5" rx="4.2" ry="4.2"/>
	
		<ellipse transform="matrix(1 -2.439006e-03 2.439006e-03 1 -0.7263 1.015399e-02)" class="st4" cx="3.8" cy="297.8" rx="4.2" ry="4.2"/>
	
		<ellipse transform="matrix(1 -2.439006e-03 2.439006e-03 1 -0.6929 1.011324e-02)" class="st4" cx="3.8" cy="284.1" rx="4.2" ry="4.2"/>
	
		<ellipse transform="matrix(1 -2.439006e-03 2.439006e-03 1 -0.6595 1.007250e-02)" class="st4" cx="3.8" cy="270.4" rx="4.2" ry="4.2"/>
	
		<ellipse transform="matrix(0.9999 -1.020250e-02 1.020250e-02 0.9999 -3.8771 0.1953)" class="st4" cx="17.2" cy="380.1" rx="4.2" ry="4.2"/>
	
		<ellipse transform="matrix(0.9999 -1.020250e-02 1.020250e-02 0.9999 -3.7373 0.1946)" class="st4" cx="17.2" cy="366.4" rx="4.2" ry="4.2"/>
	
		<ellipse transform="matrix(0.9999 -1.020250e-02 1.020250e-02 0.9999 -3.5975 0.1938)" class="st4" cx="17.2" cy="352.7" rx="4.2" ry="4.2"/>
	
		<ellipse transform="matrix(0.9999 -1.020250e-02 1.020250e-02 0.9999 -3.4567 0.1931)" class="st4" cx="17.2" cy="338.9" rx="4.2" ry="4.2"/>
	
		<ellipse transform="matrix(0.9999 -1.020250e-02 1.020250e-02 0.9999 -3.317 0.1924)" class="st4" cx="17.2" cy="325.2" rx="4.2" ry="4.2"/>
	
		<ellipse transform="matrix(0.9999 -1.020250e-02 1.020250e-02 0.9999 -3.1772 0.1917)" class="st4" cx="17.2" cy="311.5" rx="4.2" ry="4.2"/>
	
		<ellipse transform="matrix(0.9999 -1.020250e-02 1.020250e-02 0.9999 -3.0374 0.191)" class="st4" cx="17.2" cy="297.8" rx="4.2" ry="4.2"/>
	
		<ellipse transform="matrix(0.9999 -1.020250e-02 1.020250e-02 0.9999 -2.8976 0.1903)" class="st4" cx="17.2" cy="284.1" rx="4.2" ry="4.2"/>
	
		<ellipse transform="matrix(0.9999 -1.020250e-02 1.020250e-02 0.9999 -2.7579 0.1896)" class="st4" cx="17.2" cy="270.4" rx="4.2" ry="4.2"/>
	<circle class="st4" cx="33.6" cy="366.4" r="4.2"/>
	<circle class="st4" cx="33.6" cy="352.7" r="4.2"/>
	<circle class="st4" cx="33.6" cy="338.9" r="4.2"/>
	<circle class="st4" cx="33.6" cy="325.2" r="4.2"/>
	<circle class="st4" cx="33.6" cy="311.5" r="4.2"/>
	<circle class="st4" cx="33.6" cy="297.8" r="4.2"/>
	<circle class="st4" cx="33.6" cy="284.1" r="4.2"/>
	<circle class="st4" cx="33.6" cy="270.4" r="4.2"/>
	<circle class="st4" cx="47" cy="352.7" r="4.2"/>
	<circle class="st4" cx="47" cy="338.9" r="4.2"/>
	<circle class="st4" cx="47" cy="325.2" r="4.2"/>
	<circle class="st4" cx="47" cy="311.5" r="4.2"/>
	<circle class="st4" cx="47" cy="297.8" r="4.2"/>
	<circle class="st4" cx="58.4" cy="325.2" r="4.2"/>
	<circle class="st4" cx="58.4" cy="311.5" r="4.2"/>
	<circle class="st4" cx="69.8" cy="311.5" r="4.2"/>
	<circle class="st4" cx="58.4" cy="297.8" r="4.2"/>
	<circle class="st4" cx="47" cy="284.1" r="4.2"/>
	<circle class="st4" cx="47" cy="270.4" r="4.2"/>
	<circle class="st4" cx="-11.8" cy="393.8" r="4.2"/>
	<circle class="st4" cx="-11.8" cy="380.1" r="4.2"/>
	<circle class="st4" cx="-11.8" cy="366.4" r="4.2"/>
	<circle class="st4" cx="-11.8" cy="352.7" r="4.2"/>
	<circle class="st4" cx="-11.8" cy="338.9" r="4.2"/>
	<circle class="st4" cx="-11.8" cy="325.2" r="4.2"/>
	<circle class="st4" cx="-11.8" cy="311.5" r="4.2"/>
	<circle class="st4" cx="-11.8" cy="297.8" r="4.2"/>
	<circle class="st4" cx="-11.8" cy="284.1" r="4.2"/>
	<circle class="st4" cx="-11.8" cy="270.4" r="4.2"/>
	<circle class="st4" cx="-21.3" cy="256.6" r="4.2"/>
	
		<ellipse transform="matrix(1 -6.848854e-03 6.848854e-03 1 -1.7576 -4.603308e-02)" class="st4" cx="-7.6" cy="256.6" rx="4.2" ry="4.2"/>
	<circle class="st4" cx="6.2" cy="256.6" r="4.2"/>
	
		<ellipse transform="matrix(1.281739e-02 -0.9999 0.9999 1.281739e-02 -236.934 273.2094)" class="st4" cx="19.9" cy="256.6" rx="4.2" ry="4.2"/>
	<circle class="st4" cx="33.6" cy="256.6" r="4.2"/>
	<circle class="st4" cx="47.3" cy="256.6" r="4.2"/>
	<circle class="st4" cx="-7.6" cy="243.7" r="4.2"/>
	<circle class="st4" cx="6.2" cy="243.7" r="4.2"/>
	<circle class="st4" cx="19.9" cy="243.7" r="4.2"/>
	<circle class="st4" cx="33.6" cy="243.7" r="4.2"/>
	<circle class="st4" cx="6.2" cy="230.8" r="4.2"/>
	<circle class="st4" cx="19.9" cy="230.8" r="4.2"/>
</g>
<g>
	
		<linearGradient id="SVGID_5_" gradientUnits="userSpaceOnUse" x1="1627.3418" y1="129.2418" x2="1694.6582" y2="196.5583" gradientTransform="matrix(1 0 0 -1 0 1256)">
		<stop  offset="0" style="stop-color:#725CFF"/>
		<stop  offset="1" style="stop-color:#B96EFF"/>
	</linearGradient>
	<circle class="st5" cx="1661" cy="1093.1" r="47.6"/>
	
		<linearGradient id="SVGID_6_" gradientUnits="userSpaceOnUse" x1="1636.7462" y1="138.6462" x2="1685.3099" y2="187.21" gradientTransform="matrix(1 0 0 -1 0 1256)">
		<stop  offset="0" style="stop-color:#725CFF"/>
		<stop  offset="1" style="stop-color:#B96EFF"/>
	</linearGradient>
	<circle class="st6" cx="1661" cy="1093.1" r="34.3"/>
</g>
<g>
	
		<linearGradient id="SVGID_7_" gradientUnits="userSpaceOnUse" x1="791.4416" y1="1025.8416" x2="824.9584" y2="1059.3585" gradientTransform="matrix(1 0 0 -1 0 1256)">
		<stop  offset="0" style="stop-color:#725CFF"/>
		<stop  offset="1" style="stop-color:#B96EFF"/>
	</linearGradient>
	<circle class="st7" cx="808.2" cy="213.4" r="23.7"/>
	
		<linearGradient id="SVGID_8_" gradientUnits="userSpaceOnUse" x1="796.0746" y1="1030.4746" x2="820.2577" y2="1054.6576" gradientTransform="matrix(1 0 0 -1 0 1256)">
		<stop  offset="0" style="stop-color:#725CFF"/>
		<stop  offset="1" style="stop-color:#B96EFF"/>
	</linearGradient>
	<circle class="st8" cx="808.2" cy="213.4" r="17.1"/>
</g>
<g>
	
		<linearGradient id="SVGID_9_" gradientUnits="userSpaceOnUse" x1="61.2417" y1="34.1418" x2="128.5583" y2="101.4583" gradientTransform="matrix(1 0 0 -1 0 1256)">
		<stop  offset="0" style="stop-color:#725CFF"/>
		<stop  offset="1" style="stop-color:#B96EFF"/>
	</linearGradient>
	<circle class="st9" cx="94.9" cy="1188.2" r="47.6"/>
	
		<linearGradient id="SVGID_10_" gradientUnits="userSpaceOnUse" x1="70.6462" y1="43.5463" x2="119.2099" y2="92.11" gradientTransform="matrix(1 0 0 -1 0 1256)">
		<stop  offset="0" style="stop-color:#725CFF"/>
		<stop  offset="1" style="stop-color:#B96EFF"/>
	</linearGradient>
	<circle class="st10" cx="94.9" cy="1188.2" r="34.3"/>
</g>
<g>
	
		<linearGradient id="SVGID_11_" gradientUnits="userSpaceOnUse" x1="1015.0463" y1="586.2462" x2="1063.6101" y2="634.8101" gradientTransform="matrix(1 0 0 -1 0 1256)">
		<stop  offset="0" style="stop-color:#725CFF"/>
		<stop  offset="1" style="stop-color:#B96EFF"/>
	</linearGradient>
	<circle class="st11" cx="1039.3" cy="645.5" r="34.3"/>
	
		<linearGradient id="SVGID_12_" gradientUnits="userSpaceOnUse" x1="1021.7638" y1="592.9637" x2="1056.8363" y2="628.0363" gradientTransform="matrix(1 0 0 -1 0 1256)">
		<stop  offset="0" style="stop-color:#725CFF"/>
		<stop  offset="1" style="stop-color:#B96EFF"/>
	</linearGradient>
	<circle class="st12" cx="1039.3" cy="645.5" r="24.8"/>
</g>
</svg>
