<?xml version="1.0" encoding="utf-8"?>
<!-- Generator: Adobe Illustrator 25.1.0, SVG Export Plug-In . SVG Version: 6.00 Build 0)  -->
<svg version="1.1" id="Layer_1" xmlns="http://www.w3.org/2000/svg" xmlns:xlink="http://www.w3.org/1999/xlink" x="0px" y="0px"
	 viewBox="0 0 1920 540" style="enable-background:new 0 0 1920 540;" xml:space="preserve">
<style type="text/css">
	.st0{fill:url(#SVGID_1_);fill-opacity:0.5;}
	.st1{fill:url(#SVGID_2_);fill-opacity:0.5;}
	.st2{fill:url(#SVGID_3_);}
	.st3{fill:url(#SVGID_4_);}
	.st4{opacity:0.2;fill:#FFFFFF;enable-background:new    ;}
	.st5{fill:url(#SVGID_5_);fill-opacity:0.5;}
	.st6{fill:url(#SVGID_6_);}
	.st7{fill:url(#SVGID_7_);fill-opacity:0.5;}
	.st8{fill:url(#SVGID_8_);}
	.st9{fill:url(#SVGID_9_);fill-opacity:0.5;}
	.st10{fill:url(#SVGID_10_);}
</style>
<g id="Layer_2_1_">
</g>
<linearGradient id="SVGID_1_" gradientUnits="userSpaceOnUse" x1="1361.3827" y1="91.3742" x2="2323.4617" y2="1053.4532" gradientTransform="matrix(1 0 0 -1 0 540)">
	<stop  offset="0" style="stop-color:#725CFF"/>
	<stop  offset="1" style="stop-color:#B96EFF"/>
</linearGradient>
<path class="st0" d="M2204.5,1009c-419.9-89.2-531.7-219.2-557.3-320.2c-30.2-119.1,62.3-186.6,24.6-314.1
	C1616.6,188,1380.3,204.9,1234.6,36c-208-241-173-792.6,110.8-957.6c252.3-146.6,631.3,52.8,822.1,252.5
	C2514.2-306.2,2525.1,356.4,2204.5,1009z"/>
<linearGradient id="SVGID_2_" gradientUnits="userSpaceOnUse" x1="2751.3472" y1="-606.5581" x2="3147.9912" y2="-209.914" gradientTransform="matrix(-1 0 0 1 3018.0332 653.1876)">
	<stop  offset="0" style="stop-color:#725CFF"/>
	<stop  offset="1" style="stop-color:#B96EFF"/>
</linearGradient>
<path class="st1" d="M-80.9-184.4C92.2-147.6,138.3-94,148.9-52.4c12.5,49.1-25.7,76.9-10.2,129.5c22.8,77,120.2,70,180.3,139.6
	c85.7,99.4,71.3,326.8-45.7,394.8C169.3,672,13,589.8-65.6,507.5C-208.6,357.9-213,84.7-80.9-184.4z"/>
<linearGradient id="SVGID_3_" gradientUnits="userSpaceOnUse" x1="1422.9828" y1="128.2743" x2="2385.0618" y2="1090.3531" gradientTransform="matrix(1 0 0 -1 0 540)">
	<stop  offset="0" style="stop-color:#725CFF"/>
	<stop  offset="1" style="stop-color:#B96EFF"/>
</linearGradient>
<path class="st2" d="M2266.1,972.1c-419.9-89.2-531.7-219.2-557.3-320.2c-30.2-119.1,62.3-186.6,24.6-314.1
	C1678.2,151,1441.9,168,1296.2-0.9c-208-241-173-792.6,110.8-957.6c252.3-146.6,631.3,52.8,822.1,252.5
	C2575.8-343.2,2586.7,319.5,2266.1,972.1z"/>
<linearGradient id="SVGID_4_" gradientUnits="userSpaceOnUse" x1="2776.7473" y1="-591.2581" x2="3173.3413" y2="-194.664" gradientTransform="matrix(-1 0 0 1 3018.0332 653.1876)">
	<stop  offset="0" style="stop-color:#725CFF"/>
	<stop  offset="1" style="stop-color:#B96EFF"/>
</linearGradient>
<path class="st3" d="M-106.3-169.1c173.1,36.8,219.2,90.4,229.8,132C136,12,97.8,39.8,113.3,92.4c22.8,77,120.2,70,180.3,139.6
	c85.7,99.4,71.3,326.8-45.7,394.8C143.9,687.2-12.4,605-91,522.7C-234,373.1-238.4,99.9-106.3-169.1z"/>
<g>
	<circle class="st4" cx="1610.2" cy="0.6" r="4.2"/>
	<circle class="st4" cx="1623.9" cy="0.6" r="4.2"/>
	<circle class="st4" cx="1637.6" cy="0.6" r="4.2"/>
	<circle class="st4" cx="1651.4" cy="0.6" r="4.2"/>
	<circle class="st4" cx="1665.1" cy="0.6" r="4.2"/>
	<circle class="st4" cx="1678.8" cy="0.6" r="4.2"/>
	<circle class="st4" cx="1692.5" cy="0.6" r="4.2"/>
	<circle class="st4" cx="1706.2" cy="0.6" r="4.2"/>
	<circle class="st4" cx="1719.9" cy="0.6" r="4.2"/>
	<circle class="st4" cx="1733.7" cy="0.6" r="4.2"/>
	<circle class="st4" cx="1623.9" cy="-14.2" r="4.2"/>
	<circle class="st4" cx="1637.6" cy="-14.2" r="4.2"/>
	<circle class="st4" cx="1651.4" cy="-14.2" r="4.2"/>
	<circle class="st4" cx="1665.1" cy="-14.2" r="4.2"/>
	<circle class="st4" cx="1678.8" cy="-14.2" r="4.2"/>
	<circle class="st4" cx="1692.5" cy="-14.2" r="4.2"/>
	<circle class="st4" cx="1706.2" cy="-14.2" r="4.2"/>
	<circle class="st4" cx="1719.9" cy="-14.2" r="4.2"/>
	<circle class="st4" cx="1637.6" cy="-27.1" r="4.2"/>
	<circle class="st4" cx="1651.4" cy="-27.1" r="4.2"/>
	<circle class="st4" cx="1665.1" cy="-27.1" r="4.2"/>
	<circle class="st4" cx="1678.8" cy="-27.1" r="4.2"/>
	<circle class="st4" cx="1692.5" cy="-27.1" r="4.2"/>
	<circle class="st4" cx="1706.2" cy="-27.1" r="4.2"/>
	<circle class="st4" cx="1651.4" cy="-40" r="4.2"/>
	<circle class="st4" cx="1665.1" cy="-40" r="4.2"/>
	<circle class="st4" cx="1678.8" cy="-40" r="4.2"/>
	<circle class="st4" cx="1692.5" cy="-40" r="4.2"/>
	<circle class="st4" cx="1665.1" cy="-52.8" r="4.2"/>
	<circle class="st4" cx="1678.8" cy="-52.8" r="4.2"/>
	<circle class="st4" cx="1610.2" cy="16.2" r="4.2"/>
	<circle class="st4" cx="1623.9" cy="16.2" r="4.2"/>
	<circle class="st4" cx="1637.6" cy="16.2" r="4.2"/>
	<circle class="st4" cx="1651.4" cy="16.2" r="4.2"/>
	<circle class="st4" cx="1665.1" cy="16.2" r="4.2"/>
	<circle class="st4" cx="1678.8" cy="16.2" r="4.2"/>
	<circle class="st4" cx="1692.5" cy="16.2" r="4.2"/>
	<circle class="st4" cx="1706.2" cy="16.2" r="4.2"/>
	<circle class="st4" cx="1719.9" cy="16.2" r="4.2"/>
	<circle class="st4" cx="1733.7" cy="16.2" r="4.2"/>
	<circle class="st4" cx="1610.2" cy="45" r="4.2"/>
	<circle class="st4" cx="1623.9" cy="45" r="4.2"/>
	<circle class="st4" cx="1637.6" cy="45" r="4.2"/>
	<circle class="st4" cx="1651.4" cy="45" r="4.2"/>
	<circle class="st4" cx="1665.1" cy="45" r="4.2"/>
	<circle class="st4" cx="1678.8" cy="45" r="4.2"/>
	<circle class="st4" cx="1692.5" cy="45" r="4.2"/>
	<circle class="st4" cx="1706.2" cy="45" r="4.2"/>
	<circle class="st4" cx="1719.9" cy="45" r="4.2"/>
	<circle class="st4" cx="1733.7" cy="45" r="4.2"/>
	<circle class="st4" cx="1623.9" cy="58.4" r="4.2"/>
	<circle class="st4" cx="1637.6" cy="58.4" r="4.2"/>
	<circle class="st4" cx="1651.4" cy="58.4" r="4.2"/>
	<circle class="st4" cx="1665.1" cy="58.4" r="4.2"/>
	<circle class="st4" cx="1678.8" cy="58.4" r="4.2"/>
	<circle class="st4" cx="1692.5" cy="58.4" r="4.2"/>
	<circle class="st4" cx="1706.2" cy="58.4" r="4.2"/>
	<circle class="st4" cx="1719.9" cy="58.4" r="4.2"/>
	<circle class="st4" cx="1733.7" cy="58.4" r="4.2"/>
	<circle class="st4" cx="1637.6" cy="74.8" r="4.2"/>
	<circle class="st4" cx="1651.4" cy="74.8" r="4.2"/>
	<circle class="st4" cx="1665.1" cy="74.8" r="4.2"/>
	<circle class="st4" cx="1678.8" cy="74.8" r="4.2"/>
	<circle class="st4" cx="1692.5" cy="74.8" r="4.2"/>
	<circle class="st4" cx="1706.2" cy="74.8" r="4.2"/>
	<circle class="st4" cx="1719.9" cy="74.8" r="4.2"/>
	<circle class="st4" cx="1733.7" cy="74.8" r="4.2"/>
	<circle class="st4" cx="1651.4" cy="88.2" r="4.2"/>
	<circle class="st4" cx="1665.1" cy="88.2" r="4.2"/>
	<circle class="st4" cx="1678.8" cy="88.2" r="4.2"/>
	<circle class="st4" cx="1692.5" cy="88.2" r="4.2"/>
	<circle class="st4" cx="1706.2" cy="88.2" r="4.2"/>
	<circle class="st4" cx="1678.8" cy="99.6" r="4.2"/>
	<circle class="st4" cx="1692.5" cy="99.6" r="4.2"/>
	<circle class="st4" cx="1692.5" cy="111" r="4.2"/>
	<circle class="st4" cx="1706.2" cy="99.6" r="4.2"/>
	<circle class="st4" cx="1719.9" cy="88.2" r="4.2"/>
	<circle class="st4" cx="1733.7" cy="88.2" r="4.2"/>
	<circle class="st4" cx="1610.2" cy="29.4" r="4.2"/>
	<circle class="st4" cx="1623.9" cy="29.4" r="4.2"/>
	<circle class="st4" cx="1637.6" cy="29.4" r="4.2"/>
	<circle class="st4" cx="1651.4" cy="29.4" r="4.2"/>
	<circle class="st4" cx="1665.1" cy="29.4" r="4.2"/>
	<circle class="st4" cx="1678.8" cy="29.4" r="4.2"/>
	<circle class="st4" cx="1692.5" cy="29.4" r="4.2"/>
	<circle class="st4" cx="1706.2" cy="29.4" r="4.2"/>
	<circle class="st4" cx="1719.9" cy="29.4" r="4.2"/>
	<circle class="st4" cx="1733.7" cy="29.4" r="4.2"/>
	<circle class="st4" cx="1747.4" cy="19.9" r="4.2"/>
	<circle class="st4" cx="1747.4" cy="33.6" r="4.2"/>
	<circle class="st4" cx="1747.4" cy="47.3" r="4.2"/>
	<circle class="st4" cx="1747.4" cy="61" r="4.2"/>
	<circle class="st4" cx="1747.4" cy="74.8" r="4.2"/>
	<circle class="st4" cx="1747.4" cy="88.5" r="4.2"/>
	<circle class="st4" cx="1760.3" cy="33.6" r="4.2"/>
	<circle class="st4" cx="1760.3" cy="47.3" r="4.2"/>
	<circle class="st4" cx="1760.3" cy="61" r="4.2"/>
	<circle class="st4" cx="1760.3" cy="74.8" r="4.2"/>
	<circle class="st4" cx="1773.2" cy="47.3" r="4.2"/>
	<circle class="st4" cx="1773.2" cy="61" r="4.2"/>
</g>
<g>
	<circle class="st4" cx="2079.9" cy="797.9" r="4.2"/>
	<circle class="st4" cx="2066.2" cy="797.9" r="4.2"/>
	<circle class="st4" cx="2052.5" cy="797.9" r="4.2"/>
	<circle class="st4" cx="2038.8" cy="797.9" r="4.2"/>
	<circle class="st4" cx="2025.1" cy="797.9" r="4.2"/>
	<circle class="st4" cx="2011.4" cy="797.9" r="4.2"/>
	<circle class="st4" cx="1997.6" cy="797.9" r="4.2"/>
	<circle class="st4" cx="1983.9" cy="797.9" r="4.2"/>
	<circle class="st4" cx="1970.2" cy="797.9" r="4.2"/>
	<circle class="st4" cx="1956.5" cy="797.9" r="4.2"/>
	<circle class="st4" cx="2066.2" cy="812.7" r="4.2"/>
	<circle class="st4" cx="2052.5" cy="812.7" r="4.2"/>
	<circle class="st4" cx="2038.8" cy="812.7" r="4.2"/>
	<circle class="st4" cx="2025.1" cy="812.7" r="4.2"/>
	<circle class="st4" cx="2011.4" cy="812.7" r="4.2"/>
	<circle class="st4" cx="1997.6" cy="812.7" r="4.2"/>
	<circle class="st4" cx="1983.9" cy="812.7" r="4.2"/>
	<circle class="st4" cx="1970.2" cy="812.7" r="4.2"/>
	<circle class="st4" cx="2052.5" cy="825.6" r="4.2"/>
	<circle class="st4" cx="2038.8" cy="825.6" r="4.2"/>
	<circle class="st4" cx="2025.1" cy="825.6" r="4.2"/>
	<circle class="st4" cx="2011.4" cy="825.6" r="4.2"/>
	<circle class="st4" cx="1997.6" cy="825.6" r="4.2"/>
	<circle class="st4" cx="1983.9" cy="825.6" r="4.2"/>
	<circle class="st4" cx="2038.8" cy="838.4" r="4.2"/>
	<circle class="st4" cx="2025.1" cy="838.4" r="4.2"/>
	<circle class="st4" cx="2011.4" cy="838.4" r="4.2"/>
	<circle class="st4" cx="1997.6" cy="838.4" r="4.2"/>
	<circle class="st4" cx="2025.1" cy="851.3" r="4.2"/>
	<circle class="st4" cx="2011.4" cy="851.3" r="4.2"/>
	<circle class="st4" cx="2079.9" cy="782.3" r="4.2"/>
	<circle class="st4" cx="2066.2" cy="782.3" r="4.2"/>
	<circle class="st4" cx="2052.5" cy="782.3" r="4.2"/>
	<circle class="st4" cx="2038.8" cy="782.3" r="4.2"/>
	<circle class="st4" cx="2025.1" cy="782.3" r="4.2"/>
	<circle class="st4" cx="2011.4" cy="782.3" r="4.2"/>
	<circle class="st4" cx="1997.6" cy="782.3" r="4.2"/>
	<circle class="st4" cx="1983.9" cy="782.3" r="4.2"/>
	<circle class="st4" cx="1970.2" cy="782.3" r="4.2"/>
	<circle class="st4" cx="1956.5" cy="782.3" r="4.2"/>
	<circle class="st4" cx="2079.9" cy="753.4" r="4.2"/>
	<circle class="st4" cx="2066.2" cy="753.4" r="4.2"/>
	<circle class="st4" cx="2052.5" cy="753.4" r="4.2"/>
	<circle class="st4" cx="2038.8" cy="753.4" r="4.2"/>
	<circle class="st4" cx="2025.1" cy="753.4" r="4.2"/>
	<circle class="st4" cx="2011.4" cy="753.4" r="4.2"/>
	<circle class="st4" cx="1997.6" cy="753.4" r="4.2"/>
	<circle class="st4" cx="1983.9" cy="753.4" r="4.2"/>
	<circle class="st4" cx="1970.2" cy="753.4" r="4.2"/>
	<circle class="st4" cx="1956.5" cy="753.4" r="4.2"/>
	<circle class="st4" cx="2066.2" cy="740" r="4.2"/>
	<circle class="st4" cx="2052.5" cy="740" r="4.2"/>
	<circle class="st4" cx="2038.8" cy="740" r="4.2"/>
	<circle class="st4" cx="2025.1" cy="740" r="4.2"/>
	<circle class="st4" cx="2011.4" cy="740" r="4.2"/>
	<circle class="st4" cx="1997.6" cy="740" r="4.2"/>
	<circle class="st4" cx="1983.9" cy="740" r="4.2"/>
	<circle class="st4" cx="1970.2" cy="740" r="4.2"/>
	<circle class="st4" cx="1956.5" cy="740" r="4.2"/>
	<circle class="st4" cx="2052.5" cy="723.7" r="4.2"/>
	<circle class="st4" cx="2038.8" cy="723.7" r="4.2"/>
	<circle class="st4" cx="2025.1" cy="723.7" r="4.2"/>
	<circle class="st4" cx="2011.4" cy="723.7" r="4.2"/>
	<circle class="st4" cx="1997.6" cy="723.7" r="4.2"/>
	<circle class="st4" cx="1983.9" cy="723.7" r="4.2"/>
	<circle class="st4" cx="1970.2" cy="723.7" r="4.2"/>
	<circle class="st4" cx="1956.5" cy="723.7" r="4.2"/>
	<circle class="st4" cx="2038.8" cy="710.3" r="4.2"/>
	<circle class="st4" cx="2025.1" cy="710.3" r="4.2"/>
	<circle class="st4" cx="2011.4" cy="710.3" r="4.2"/>
	<circle class="st4" cx="1997.6" cy="710.3" r="4.2"/>
	<circle class="st4" cx="1983.9" cy="710.3" r="4.2"/>
	<circle class="st4" cx="2011.4" cy="698.9" r="4.2"/>
	<circle class="st4" cx="1997.6" cy="698.9" r="4.2"/>
	<circle class="st4" cx="1997.6" cy="687.5" r="4.2"/>
	<circle class="st4" cx="1983.9" cy="698.9" r="4.2"/>
	<circle class="st4" cx="1970.2" cy="710.3" r="4.2"/>
	<circle class="st4" cx="1956.5" cy="710.3" r="4.2"/>
	<circle class="st4" cx="2079.9" cy="769.1" r="4.2"/>
	<circle class="st4" cx="2066.2" cy="769.1" r="4.2"/>
	<circle class="st4" cx="2052.5" cy="769.1" r="4.2"/>
	<circle class="st4" cx="2038.8" cy="769.1" r="4.2"/>
	<circle class="st4" cx="2025.1" cy="769.1" r="4.2"/>
	<circle class="st4" cx="2011.4" cy="769.1" r="4.2"/>
	<circle class="st4" cx="1997.6" cy="769.1" r="4.2"/>
	<circle class="st4" cx="1983.9" cy="769.1" r="4.2"/>
	<circle class="st4" cx="1970.2" cy="769.1" r="4.2"/>
	<circle class="st4" cx="1956.5" cy="769.1" r="4.2"/>
	<circle class="st4" cx="1942.7" cy="778.6" r="4.2"/>
	<circle class="st4" cx="1942.7" cy="764.8" r="4.2"/>
	<circle class="st4" cx="1942.7" cy="751.1" r="4.2"/>
	<circle class="st4" cx="1942.7" cy="737.4" r="4.2"/>
	<circle class="st4" cx="1942.7" cy="723.7" r="4.2"/>
	<circle class="st4" cx="1942.7" cy="710" r="4.2"/>
	<circle class="st4" cx="1929.8" cy="764.8" r="4.2"/>
	<circle class="st4" cx="1929.8" cy="751.1" r="4.2"/>
	<circle class="st4" cx="1929.8" cy="737.4" r="4.2"/>
	<circle class="st4" cx="1929.8" cy="723.7" r="4.2"/>
	<circle class="st4" cx="1917" cy="751.1" r="4.2"/>
	<circle class="st4" cx="1917" cy="737.4" r="4.2"/>
</g>
<g>
	<circle class="st4" cx="277.3" cy="405.8" r="4.2"/>
	<circle class="st4" cx="263.6" cy="405.8" r="4.2"/>
	<circle class="st4" cx="249.9" cy="405.8" r="4.2"/>
	<circle class="st4" cx="236.2" cy="405.8" r="4.2"/>
	<circle class="st4" cx="222.5" cy="405.8" r="4.2"/>
	<circle class="st4" cx="208.7" cy="405.8" r="4.2"/>
	<circle class="st4" cx="195" cy="405.8" r="4.2"/>
	<circle class="st4" cx="181.3" cy="405.8" r="4.2"/>
	<circle class="st4" cx="167.6" cy="405.8" r="4.2"/>
	<circle class="st4" cx="153.9" cy="405.8" r="4.2"/>
	<circle class="st4" cx="263.6" cy="420.6" r="4.2"/>
	<circle class="st4" cx="249.9" cy="420.6" r="4.2"/>
	<circle class="st4" cx="236.2" cy="420.6" r="4.2"/>
	<circle class="st4" cx="222.5" cy="420.6" r="4.2"/>
	<circle class="st4" cx="208.7" cy="420.6" r="4.2"/>
	<circle class="st4" cx="195" cy="420.6" r="4.2"/>
	<circle class="st4" cx="181.3" cy="420.6" r="4.2"/>
	<circle class="st4" cx="167.6" cy="420.6" r="4.2"/>
	<circle class="st4" cx="249.9" cy="433.5" r="4.2"/>
	<circle class="st4" cx="236.2" cy="433.5" r="4.2"/>
	<circle class="st4" cx="222.5" cy="433.5" r="4.2"/>
	<circle class="st4" cx="208.7" cy="433.5" r="4.2"/>
	<circle class="st4" cx="195" cy="433.5" r="4.2"/>
	<circle class="st4" cx="181.3" cy="433.5" r="4.2"/>
	<circle class="st4" cx="236.2" cy="446.4" r="4.2"/>
	<circle class="st4" cx="222.5" cy="446.4" r="4.2"/>
	<circle class="st4" cx="208.7" cy="446.4" r="4.2"/>
	<circle class="st4" cx="195" cy="446.4" r="4.2"/>
	<circle class="st4" cx="222.5" cy="459.2" r="4.2"/>
	<circle class="st4" cx="208.7" cy="459.2" r="4.2"/>
	<circle class="st4" cx="277.3" cy="390.2" r="4.2"/>
	<circle class="st4" cx="263.6" cy="390.2" r="4.2"/>
	<circle class="st4" cx="249.9" cy="390.2" r="4.2"/>
	<circle class="st4" cx="236.2" cy="390.2" r="4.2"/>
	<circle class="st4" cx="222.5" cy="390.2" r="4.2"/>
	<circle class="st4" cx="208.7" cy="390.2" r="4.2"/>
	<circle class="st4" cx="195" cy="390.2" r="4.2"/>
	<circle class="st4" cx="181.3" cy="390.2" r="4.2"/>
	<circle class="st4" cx="167.6" cy="390.2" r="4.2"/>
	<circle class="st4" cx="153.9" cy="390.2" r="4.2"/>
	<circle class="st4" cx="277.3" cy="361.4" r="4.2"/>
	<circle class="st4" cx="263.6" cy="361.4" r="4.2"/>
	<circle class="st4" cx="249.9" cy="361.4" r="4.2"/>
	<circle class="st4" cx="236.2" cy="361.4" r="4.2"/>
	<circle class="st4" cx="222.5" cy="361.4" r="4.2"/>
	<circle class="st4" cx="208.7" cy="361.4" r="4.2"/>
	<circle class="st4" cx="195" cy="361.4" r="4.2"/>
	<circle class="st4" cx="181.3" cy="361.4" r="4.2"/>
	<circle class="st4" cx="167.6" cy="361.4" r="4.2"/>
	<circle class="st4" cx="153.9" cy="361.4" r="4.2"/>
	<circle class="st4" cx="263.6" cy="348" r="4.2"/>
	<circle class="st4" cx="249.9" cy="348" r="4.2"/>
	<circle class="st4" cx="236.2" cy="348" r="4.2"/>
	<circle class="st4" cx="222.5" cy="348" r="4.2"/>
	<circle class="st4" cx="208.7" cy="348" r="4.2"/>
	<circle class="st4" cx="195" cy="348" r="4.2"/>
	<circle class="st4" cx="181.3" cy="348" r="4.2"/>
	<circle class="st4" cx="167.6" cy="348" r="4.2"/>
	<circle class="st4" cx="153.9" cy="348" r="4.2"/>
	<circle class="st4" cx="249.9" cy="331.6" r="4.2"/>
	<circle class="st4" cx="236.2" cy="331.6" r="4.2"/>
	<circle class="st4" cx="222.5" cy="331.6" r="4.2"/>
	<circle class="st4" cx="208.7" cy="331.6" r="4.2"/>
	<circle class="st4" cx="195" cy="331.6" r="4.2"/>
	<circle class="st4" cx="181.3" cy="331.6" r="4.2"/>
	<circle class="st4" cx="167.6" cy="331.6" r="4.2"/>
	<circle class="st4" cx="153.9" cy="331.6" r="4.2"/>
	<circle class="st4" cx="236.2" cy="318.2" r="4.2"/>
	<circle class="st4" cx="222.5" cy="318.2" r="4.2"/>
	<circle class="st4" cx="208.7" cy="318.2" r="4.2"/>
	<circle class="st4" cx="195" cy="318.2" r="4.2"/>
	<circle class="st4" cx="181.3" cy="318.2" r="4.2"/>
	<circle class="st4" cx="208.7" cy="306.8" r="4.2"/>
	<circle class="st4" cx="195" cy="306.8" r="4.2"/>
	<circle class="st4" cx="195" cy="295.4" r="4.2"/>
	<circle class="st4" cx="181.3" cy="306.8" r="4.2"/>
	<circle class="st4" cx="167.6" cy="318.2" r="4.2"/>
	<circle class="st4" cx="153.9" cy="318.2" r="4.2"/>
	<circle class="st4" cx="277.3" cy="377" r="4.2"/>
	<circle class="st4" cx="263.6" cy="377" r="4.2"/>
	<circle class="st4" cx="249.9" cy="377" r="4.2"/>
	<circle class="st4" cx="236.2" cy="377" r="4.2"/>
	<circle class="st4" cx="222.5" cy="377" r="4.2"/>
	<circle class="st4" cx="208.7" cy="377" r="4.2"/>
	<circle class="st4" cx="195" cy="377" r="4.2"/>
	<circle class="st4" cx="181.3" cy="377" r="4.2"/>
	<circle class="st4" cx="167.6" cy="377" r="4.2"/>
	<circle class="st4" cx="153.9" cy="377" r="4.2"/>
	<circle class="st4" cx="140.1" cy="386.5" r="4.2"/>
	<circle class="st4" cx="140.1" cy="372.8" r="4.2"/>
	<circle class="st4" cx="140.1" cy="359.1" r="4.2"/>
	<circle class="st4" cx="140.1" cy="345.4" r="4.2"/>
	<circle class="st4" cx="140.1" cy="331.6" r="4.2"/>
	<circle class="st4" cx="140.1" cy="317.9" r="4.2"/>
	<circle class="st4" cx="127.2" cy="372.8" r="4.2"/>
	<circle class="st4" cx="127.2" cy="359.1" r="4.2"/>
	<circle class="st4" cx="127.2" cy="345.4" r="4.2"/>
	<circle class="st4" cx="127.2" cy="331.6" r="4.2"/>
	<circle class="st4" cx="114.4" cy="359.1" r="4.2"/>
	<circle class="st4" cx="114.4" cy="345.4" r="4.2"/>
</g>
<g>
	
		<linearGradient id="SVGID_5_" gradientUnits="userSpaceOnUse" x1="431.1605" y1="212.3605" x2="476.8887" y2="258.0887" gradientTransform="matrix(1 0 0 -1 0 540)">
		<stop  offset="0" style="stop-color:#725CFF"/>
		<stop  offset="1" style="stop-color:#B96EFF"/>
	</linearGradient>
	<circle class="st5" cx="454" cy="304.8" r="32.3"/>
	
		<linearGradient id="SVGID_6_" gradientUnits="userSpaceOnUse" x1="437.5244" y1="218.7244" x2="470.5366" y2="251.7366" gradientTransform="matrix(1 0 0 -1 0 540)">
		<stop  offset="0" style="stop-color:#725CFF"/>
		<stop  offset="1" style="stop-color:#B96EFF"/>
	</linearGradient>
	<circle class="st6" cx="454" cy="304.8" r="23.3"/>
</g>
<g>
	
		<linearGradient id="SVGID_7_" gradientUnits="userSpaceOnUse" x1="1073.0416" y1="35.7417" x2="1140.3583" y2="103.0583" gradientTransform="matrix(1 0 0 -1 0 540)">
		<stop  offset="0" style="stop-color:#725CFF"/>
		<stop  offset="1" style="stop-color:#B96EFF"/>
	</linearGradient>
	<circle class="st7" cx="1106.7" cy="470.6" r="47.6"/>
	
		<linearGradient id="SVGID_8_" gradientUnits="userSpaceOnUse" x1="1082.4462" y1="45.1462" x2="1131.0099" y2="93.7099" gradientTransform="matrix(1 0 0 -1 0 540)">
		<stop  offset="0" style="stop-color:#725CFF"/>
		<stop  offset="1" style="stop-color:#B96EFF"/>
	</linearGradient>
	<circle class="st8" cx="1106.7" cy="470.6" r="34.3"/>
</g>
<g>
	
		<linearGradient id="SVGID_9_" gradientUnits="userSpaceOnUse" x1="1105.8416" y1="448.4416" x2="1139.3584" y2="481.9584" gradientTransform="matrix(1 0 0 -1 0 540)">
		<stop  offset="0" style="stop-color:#725CFF"/>
		<stop  offset="1" style="stop-color:#B96EFF"/>
	</linearGradient>
	<circle class="st9" cx="1122.6" cy="74.8" r="23.7"/>
	
		<linearGradient id="SVGID_10_" gradientUnits="userSpaceOnUse" x1="1110.5084" y1="453.1085" x2="1134.6915" y2="477.2915" gradientTransform="matrix(1 0 0 -1 0 540)">
		<stop  offset="0" style="stop-color:#725CFF"/>
		<stop  offset="1" style="stop-color:#B96EFF"/>
	</linearGradient>
	<circle class="st10" cx="1122.6" cy="74.8" r="17.1"/>
</g>
</svg>
