<?xml version="1.0" encoding="utf-8"?>
<!-- Generator: Adobe Illustrator 25.1.0, SVG Export Plug-In . SVG Version: 6.00 Build 0)  -->
<svg version="1.1" id="bf987f75-b15a-4b7f-a137-75b4492c4a21"
	 xmlns="http://www.w3.org/2000/svg" xmlns:xlink="http://www.w3.org/1999/xlink" x="0px" y="0px" viewBox="0 0 1167.5 756"
	 style="enable-background:new 0 0 1167.5 756;" xml:space="preserve">
<style type="text/css">
	.st0{fill:url(#SVGID_1_);}
	.st1{opacity:0.1;fill:#FDD748;enable-background:new    ;}
	.st2{opacity:0.2;}
	.st3{fill:#3F3D56;}
	.st4{fill:#FDD748;}
	.st5{opacity:0.1;enable-background:new    ;}
	.st6{fill:url(#SVGID_2_);}
	.st7{fill:#FFFFFF;}
	.st8{fill:#EDEDF4;}
	.st9{opacity:0.8;fill:#FA5959;enable-background:new    ;}
	.st10{opacity:0.8;fill:#FED253;enable-background:new    ;}
	.st11{opacity:0.8;fill:#8CCF4D;enable-background:new    ;}
	.st12{fill:url(#SVGID_3_);}
	.st13{fill:url(#SVGID_4_);}
	.st14{fill:#A1616A;}
</style>
<linearGradient id="SVGID_1_" gradientUnits="userSpaceOnUse" x1="-50.779" y1="364.3387" x2="1237.5508" y2="364.3387" gradientTransform="matrix(1 0 0 -1 0 758)">
	<stop  offset="5.586592e-03" style="stop-color:#8460FE"/>
	<stop  offset="1" style="stop-color:#A96AFF"/>
</linearGradient>
<rect x="-50.8" y="-63.8" class="st0" width="1288.3" height="914.8"/>
<ellipse class="st1" cx="571.9" cy="556.4" rx="278.1" ry="15.9"/>
<g class="st2">
	<path class="st3" d="M801.4,557.1c-0.3,0.5-0.6,0.9-0.9,1.4c-3-2.1-6-4.1-9-6.1c0.1-0.1,0.1-0.3,0.2-0.4c0.7-1.4,1.8-2.5,3.1-3.4
		c1.7-1,3.6-1.3,5.1-0.4c1.5,0.8,2.4,2.5,2.5,4.5C802.5,554.3,802.2,555.8,801.4,557.1z"/>
	
		<ellipse transform="matrix(0.4681 -0.8837 0.8837 0.4681 -57.3082 998.4414)" class="st3" cx="800.7" cy="546.8" rx="7.2" ry="5.5"/>
	<ellipse transform="matrix(0.4681 -0.8837 0.8837 0.4681 -48.2434 997.94)" class="st3" cx="804.8" cy="539" rx="7.2" ry="5.5"/>
	<ellipse transform="matrix(0.4681 -0.8837 0.8837 0.4681 -39.1721 997.4454)" class="st3" cx="809" cy="531.3" rx="7.2" ry="5.5"/>
	
		<ellipse transform="matrix(0.4681 -0.8837 0.8837 0.4681 -30.1011 996.9454)" class="st3" cx="813.1" cy="523.5" rx="7.2" ry="5.5"/>
	<path class="st4" d="M823,460.5c-0.2-1.2-0.3-2.4-0.4-3.6l13.9,4.7l-13.9-7.2c0.4-7.3,3.8-14,9.4-18.7l13.4,19.5L835,433.5
		c12.3-7.7,28.6-4,36.3,8.4c7.7,12.3,4,28.6-8.4,36.3c-1,0.7-2.1,1.2-3.3,1.7c0.3,1.9,0.5,3.8,0.4,5.7l-21.2-0.2l20.8,3.4
		c-1.4,8.8-7.2,16.3-15.3,19.9c2.6,14.3-6.9,28-21.2,30.6c-14.3,2.6-28-6.9-30.6-21.2c-2.2-12,4.1-23.9,15.3-28.8
		C805.6,477.4,811.9,465.5,823,460.5L823,460.5z"/>
	<path class="st5" d="M857,497c-2.8,5.2-7.2,9.4-12.6,11.8c2.6,14.3-6.9,28-21.2,30.6c-14.3,2.6-28-6.9-30.6-21.2
		c-2.2-12,4.1-23.9,15.3-28.8C806.8,483.7,858.4,494.4,857,497z"/>
</g>
<g class="st2">
	<path class="st3" d="M784.9,401.7c-0.3,0.8-0.7,1.6-1.2,2.4c-5.2-2.8-10.4-5.4-15.7-8.1c0.1-0.2,0.2-0.5,0.2-0.7
		c0.9-2.3,2.3-4.4,4.3-6c2.5-2,5.5-2.8,8.2-1.7s4.4,3.6,5,6.7C786.1,396.8,785.8,399.3,784.9,401.7z"/>
	
		<ellipse transform="matrix(0.3558 -0.9346 0.9346 0.3558 143.6058 978.6788)" class="st3" cx="781.7" cy="385.2" rx="11.7" ry="8.9"/>
	
		<ellipse transform="matrix(0.3558 -0.9346 0.9346 0.3558 159.3247 974.8403)" class="st3" cx="786.7" cy="371.9" rx="11.7" ry="8.9"/>
	
		<ellipse transform="matrix(0.3558 -0.9346 0.9346 0.3558 175.0453 970.9907)" class="st3" cx="791.8" cy="358.5" rx="11.7" ry="8.9"/>
	
		<ellipse transform="matrix(0.3558 -0.9346 0.9346 0.3558 190.7593 967.1555)" class="st3" cx="796.9" cy="345.2" rx="11.7" ry="8.9"/>
	<path class="st4" d="M800.4,242.2c-0.6-1.9-1-3.8-1.4-5.7l23.2,4.7l-23.7-8.8c-0.8-11.7,3.3-23.2,11.3-31.9l25.5,28.5l-21.1-32.7
		c18.3-14.8,45.2-11.9,60,6.4s11.9,45.2-6.4,60c-1.5,1.2-3.1,2.3-4.7,3.3c0.9,2.9,1.5,5.9,1.8,9l-34,3.9l34.1,1.4
		c-0.5,14.4-8.3,27.6-20.7,35c7,22.5-5.5,46.4-28,53.4c-22.5,7-46.4-5.5-53.4-28c-5.9-18.8,1.9-39.1,18.7-49.3
		C775.7,272.7,783.5,252.3,800.4,242.2L800.4,242.2z"/>
	<path class="st5" d="M862.2,293.9c-3.4,8.9-9.7,16.5-17.9,21.4c7,22.5-5.5,46.4-28,53.4c-22.5,7-46.4-5.5-53.4-28
		c-5.9-18.8,1.9-39.1,18.7-49.3C778.9,282.7,863.9,289.5,862.2,293.9z"/>
</g>
<g class="st2">
	<path class="st3" d="M375.3,446c0.3,1,0.6,2,1,3c6.5-2.5,13.1-4.9,19.8-7.2c-0.1-0.3-0.1-0.6-0.2-0.8c-0.7-2.9-2.1-5.6-4.1-7.7
		c-2.7-2.7-6.1-4.1-9.4-3.3c-3.3,0.8-5.8,3.6-6.9,7.2C374.7,440,374.6,443.1,375.3,446z"/>
	
		<ellipse transform="matrix(0.9715 -0.2372 0.2372 0.9715 -90.3789 102.6986)" class="st3" cx="381.6" cy="427" rx="10.6" ry="13.9"/>
	
		<ellipse transform="matrix(0.9715 -0.2372 0.2372 0.9715 -86.5895 101.275)" class="st3" cx="377.6" cy="410.5" rx="10.6" ry="13.9"/>
	
		<ellipse transform="matrix(0.9715 -0.2372 0.2372 0.9715 -82.7985 99.8524)" class="st3" cx="373.6" cy="394" rx="10.6" ry="13.9"/>
	
		<ellipse transform="matrix(0.9715 -0.2372 0.2372 0.9715 -79.0067 98.4283)" class="st3" cx="369.6" cy="377.6" rx="10.6" ry="13.9"/>
	<path class="st4" d="M380.6,255.5c1-2.1,1.8-4.3,2.5-6.6l-28.1,2.1l29.3-6.9c2.7-13.7-0.4-27.9-8.6-39.3l-34.3,29.9l29.7-35.4
		c-19.4-20.2-51.5-20.9-71.8-1.5c-20.2,19.4-20.9,51.5-1.5,71.8c1.6,1.7,3.4,3.3,5.2,4.8c-1.5,3.3-2.7,6.8-3.4,10.4l39.6,9.7
		l-40.5-3.4c-1.5,17.1,5.8,33.8,19.2,44.3c-11.6,25.5-0.3,55.6,25.2,67.2c25.5,11.6,55.6,0.3,67.2-25.2c9.7-21.3,3.5-46.5-14.9-60.9
		C405.2,295.1,399,269.9,380.6,255.5L380.6,255.5z"/>
	<path class="st5" d="M300,307.5c2.7,11.1,9,20.9,18,27.9c-11.6,25.5-0.3,55.6,25.2,67.2c25.5,11.6,55.6,0.3,67.2-25.2
		c9.7-21.3,3.5-46.5-14.9-60.9C400,306.5,298.6,302,300,307.5z"/>
</g>
<linearGradient id="SVGID_2_" gradientUnits="userSpaceOnUse" x1="593.8865" y1="125.6367" x2="593.8865" y2="443.8401" gradientTransform="matrix(1 0 0 -1 -16.24 686.01)">
	<stop  offset="0" style="stop-color:#808080;stop-opacity:0.25"/>
	<stop  offset="0.54" style="stop-color:#808080;stop-opacity:0.12"/>
	<stop  offset="1" style="stop-color:#808080;stop-opacity:0.1"/>
</linearGradient>
<path class="st6" d="M826.6,242.2h-498c-2.5,0-4.4,2-4.4,4.4c0,0,0,0,0,0v304.8c0,4.9,4,9,8.9,9c0,0,0,0,0,0h489c4.9,0,9-4,8.9-9
	c0,0,0,0,0,0V246.6C831.1,244.2,829.1,242.2,826.6,242.2z"/>
<path class="st7" d="M829.1,261.1v288.5c0,4.9-4,8.9-8.9,8.9h-485c-4.9,0-8.9-4-8.9-8.9l0,0V261.1H829.1z"/>
<path class="st8" d="M829.1,248.3v12.8H326.3v-12.8c0-2.4,2-4.4,4.4-4.4h494C827.1,243.9,829.1,245.8,829.1,248.3
	C829.1,248.3,829.1,248.3,829.1,248.3z"/>
<circle class="st9" cx="334.3" cy="252.4" r="2.1"/>
<circle class="st10" cx="339.9" cy="252.4" r="2.1"/>
<circle class="st11" cx="345.6" cy="252.4" r="2.1"/>
<linearGradient id="SVGID_3_" gradientUnits="userSpaceOnUse" x1="907.4723" y1="-403.8964" x2="907.4723" y2="-400.812" gradientTransform="matrix(6.123234e-17 1 1 -6.123234e-17 1007.76 -671.98)">
	<stop  offset="0" style="stop-color:#808080;stop-opacity:0.25"/>
	<stop  offset="0.54" style="stop-color:#808080;stop-opacity:0.12"/>
	<stop  offset="1" style="stop-color:#808080;stop-opacity:0.1"/>
</linearGradient>
<rect x="603.9" y="234.5" class="st12" width="3.1" height="2.1"/>
<rect x="441.9" y="286.4" class="st8" width="48.3" height="5.1"/>
<rect x="441.9" y="301.3" class="st8" width="271.4" height="5.1"/>
<rect x="441.9" y="316.2" class="st8" width="271.4" height="5.1"/>
<rect x="441.9" y="331.1" class="st8" width="271.4" height="5.1"/>
<rect x="441.9" y="346" class="st8" width="271.4" height="5.1"/>
<rect x="493.8" y="374.4" class="st8" width="167.6" height="129.5"/>
<linearGradient id="SVGID_4_" gradientUnits="userSpaceOnUse" x1="594.0854" y1="183.0145" x2="594.0854" y2="290.9183" gradientTransform="matrix(1 0 0 -1 -16.24 686.01)">
	<stop  offset="0" style="stop-color:#808080;stop-opacity:0.25"/>
	<stop  offset="0.54" style="stop-color:#808080;stop-opacity:0.12"/>
	<stop  offset="1" style="stop-color:#808080;stop-opacity:0.1"/>
</linearGradient>
<path class="st13" d="M607,414.6c-0.2,0-0.4,0-0.7,0c0.1-0.3,0.1-0.6,0.1-0.9c-0.1-1.3-0.4-2.6-1-3.7c-0.4-0.7-0.8-1.3-1.3-1.9
	c-1.4-1.9-2.7-3.9-4.2-5.7c-0.7-0.7-1.2-1.5-1.6-2.4c-0.2-0.5-0.3-0.9-0.6-1.4c-0.6-0.9-1.7-1.5-2.8-1.4c-1.1,0.1-2.1,0.7-2.8,1.5
	c-0.4,0.5-0.8,1.2-0.4,1.7c0.4,0.5,1.1,0.6,1.2,1.2c0,0.3,0,0.8-0.3,0.9c-0.6,0.1-1.1,0.4-1.6,0.7c-0.5,0.3-0.8,0.9-0.8,1.4
	c0.9,0.1,1.6-0.6,2.4-1c1-0.4,2.2-0.5,3.2-0.1c0.4,0.1,0.8,0.3,1.1,0.6c0.3,0.3,0.5,0.6,0.7,1c1,1.4,1.6,3.1,1.8,4.8l0.5,2.9
	c-0.7,0.1-1.3,0.1-2,0.3c-1.8,0.3-3.6,0.1-5.3-0.4c-1.8-0.5-3.6-1.4-5.5-1c-0.9,0.2-1.7,0.7-2.5,0.8c-0.7,0.1-1.4,0-2.1-0.1L581,412
	c0-0.1-0.1-0.2-0.1-0.4c-0.3-1-0.4-2.1-0.4-3.2c3.1-0.2,5.5-2.8,5.3-5.9c0-0.7-0.2-1.4-0.5-2.1c0.8-0.4,1.4-1.1,1.8-1.8l-0.4-0.1
	l0.3-0.5c-0.3-0.2-0.4-0.5-0.2-0.8c0,0,0.1-0.1,0.1-0.1c-0.3-0.2-0.6-0.2-1-0.2c0.1-0.2-0.1-0.4-0.3-0.5c-0.2,0-0.4-0.1-0.7,0
	c-0.3,0-0.7-0.1-1-0.2c-2.2-0.8-4.6-1.4-6.8-0.8c-1,0.3-1.9,0.8-2.7,1.4c-1.6,0.9-2.3,3-1.4,4.7c0.3,0.8,0.6,1.7,0.7,2.6
	c0,0.8-0.1,1.7-0.3,2.5c0.5,0.1,1,0.3,1.5,0.3c-0.3,1.1-0.8,2.1-1.5,3c-0.3,0.4-0.7,0.8-1,1.1h-0.1c-1,0.2-2,0.3-3.1,0.4
	c-1.1,0-2.2-0.4-3.2-0.3c-0.6,0.1-1.3,0.2-1.9,0.4c-2.8,0.8-5.8,1.2-8.7,1.2l-0.4,0l0.3-2.1c0.2-1.7,0.8-3.4,1.8-4.8
	c0.2-0.4,0.4-0.7,0.7-1c0.3-0.3,0.7-0.5,1.1-0.6c1.1-0.4,2.2-0.3,3.2,0.1c0.8,0.4,1.5,1.1,2.4,1c0-0.6-0.3-1.1-0.8-1.4
	c-0.5-0.3-1-0.5-1.6-0.7c-0.3-0.1-0.3-0.6-0.3-0.9c0-0.6,0.9-0.7,1.2-1.2c0.3-0.5,0-1.2-0.4-1.7c-0.7-0.8-1.7-1.4-2.8-1.5
	c-1.1-0.1-2.2,0.4-2.8,1.4c-0.2,0.5-0.4,0.9-0.6,1.4c-0.4,0.9-1,1.7-1.6,2.4c-1.5,1.8-2.8,3.8-4.2,5.7c-0.5,0.6-0.9,1.3-1.3,1.9
	c-0.6,1.1-1,2.4-1,3.7c0,0.3,0,0.6,0.1,0.9c0,0.1-0.1,0.2-0.1,0.2c0,0.3,0.2,0.5,0.4,0.7c0.8,0.8,1.6,1.6,2.7,1.9
	c0.7,0.2,1.3,0.3,2,0.3c1.6,0.3,3.1,1.2,4.8,1.2c1.1,0,2.3-0.5,3.4-0.3c1.5,0.2,2.7,1.5,3.6,2.7c0.8,1,1.4,2.1,1.8,3.2
	c0.4,1.4,0.1,3,0.9,4.3c0.2,0.3,0.3,0.5,0.4,0.9c0,0.5-0.1,1-0.3,1.4c-0.6,2,0.8,4.1,0.6,6.2c-0.1,1-0.5,1.9-0.6,3
	c-0.1,1.3,0.4,2.7-0.3,3.8c0.4-0.2,0.9-0.4,1.3-0.6c-2.2,6.3-4.1,12.9-4,19.5c0.1,4.3,1,9.1-1.4,12.6c-0.4,0.4-0.6,0.9-0.8,1.4
	c-0.2,0.7,0,1.4,0.1,2.1c0.5,3.1-1.2,6.1-1.3,9.3c0,1,0,1.9,0.2,2.9l0.6,5.2c-0.6,0.1-1.2,0.4-1.7,0.8c-0.6,0.5-1.2,1.4-0.9,2.1
	c0.2,0.6,1,0.9,1.6,1.1c0.7,0.1,1.3,0.3,1.9,0.7c0.2,0.2,0.4,0.4,0.6,0.6c0.4,0.2,0.8,0.3,1.2,0.2c0.8,0,1.5-0.1,2.3-0.2
	c0.2,0,0.3-0.1,0.5-0.1c0.2-0.2,0.3-0.5,0.3-0.8c0.1-0.8,0-1.6-0.1-2.3c0-0.1-0.1-0.3-0.1-0.4c0.3-0.7,0.5-1.4,0.6-2.1
	c0.2-1,0.2-2.1,0.3-3.2c0.2-2.7,0.5-5.3,0.9-8l0.5-3.4c0.2-1.1,0.3-2.3,0.5-3.4c1-6.1,2.4-12.1,4.4-17.9c0.4-1.2,1.2-2.7,2.5-2.8
	l0.8,1.5c1,1.9,1.7,4.1,2.4,6.1c1,2.7,0.7,5.8,2.1,8.3c0.2,0.4,0.5,0.8,0.7,1.2c0.2,0.7,0.4,1.4,0.4,2.1l0.9,9.3
	c0.4,4.2,0.9,8.4,2.7,12.2c0.1,0.2,0.3,0.5,0.4,0.7c-0.1,0.6-0.1,1.2,0,1.9c-0.1,0.4,0.1,0.8,0.5,0.9c0.1,0,0.1,0,0.2,0
	c0.8,0.1,1.5,0.2,2.3,0.2c0.4,0.1,0.9,0,1.2-0.2c0.2-0.2,0.4-0.4,0.6-0.6c0.5-0.4,1.2-0.6,1.9-0.7c0.7-0.1,1.4-0.4,1.6-1.1
	c0.3-0.8-0.3-1.6-0.9-2.1c-0.5-0.5-1.2-0.7-1.8-0.8c-0.3,0-0.6,0-0.8-0.1c0.1-0.3,0.1-0.7,0.1-1c-0.1-0.4-0.1-0.8-0.1-1.2
	c0.1-0.4,0.2-0.8,0.4-1.2c0.6-1.8-0.7-3.7-1.1-5.5c-0.6-2.5,0.3-5.1,0.1-7.6c-0.2-4-3-7.7-2.3-11.7c0.6-3.1,0.1-6.4-0.5-9.5
	l-2.1-11.7c-0.1-1-0.4-1.9-0.7-2.8c0.4-0.1,0.8-0.2,1.1-0.3c0.5-1.3,0.4-2.6,0.3-4c-0.2-1.3-0.5-2.7-0.7-4c-0.2-1.1-0.2-2.2-0.3-3.2
	c-0.1-1.1,0-2.1,0.2-3.2c0.2-0.9,0.6-1.8,1-2.7c1-2.5,2.2-4.9,3.6-7.2c2.1-0.2,4.2-0.3,6.3-0.5c0.5,0,1-0.1,1.5-0.2
	c0.6-0.2,1.3-0.4,1.9-0.6c0.2,0,0.5-0.1,0.7-0.1c0.5-0.2,0.7-0.8,1.3-0.8c0.2,0,0.4,0,0.6,0c0.2-0.1,0.3-0.3,0.5-0.5
	c0.3-0.4,0.8-0.4,1.3-0.7C607,416.3,607.3,415.4,607,414.6z"/>
<circle class="st14" cx="580.2" cy="403.3" r="5.7"/>
<path class="st14" d="M573.7,410.3c-0.6,0.7-1.2,1.4-1.9,1.9c3.3,2,7.3,2.6,11.1,1.8c-0.1-0.4-0.6-0.4-1-0.6
	c-0.5-0.3-0.8-0.8-0.9-1.4c-0.4-1.4-0.5-2.8-0.3-4.2c0.1-0.3,0.1-0.7,0-1c-0.2-0.5-0.6-0.9-1.1-1.2c-0.8-0.5-1.7-0.9-2.6-1.2
	c-0.9-0.3-1.5-0.4-1.5,0.7C575.4,407.1,574.8,408.9,573.7,410.3z"/>
<path class="st14" d="M599.9,413.9l-0.6-3.6c-0.1-0.7-0.2-1.5-0.5-2.2c-0.3-0.9-0.8-1.8-1.3-2.6c-0.2-0.4-0.4-0.7-0.7-1
	c-0.3-0.3-0.7-0.5-1.1-0.6c-1.1-0.4-2.2-0.3-3.2,0.1c-0.8,0.4-1.5,1.1-2.4,1c0-0.6,0.3-1.1,0.8-1.4c0.5-0.3,1-0.5,1.5-0.7
	c0.3-0.1,0.3-0.6,0.3-0.9c0-0.6-0.9-0.7-1.2-1.2c-0.3-0.5,0-1.2,0.4-1.7c0.7-0.8,1.7-1.4,2.8-1.5c1.1-0.1,2.2,0.4,2.8,1.4
	c0.2,0.4,0.4,0.9,0.6,1.4c0.4,0.9,1,1.7,1.6,2.4c1.5,1.8,2.8,3.8,4.2,5.7c0.5,0.6,0.9,1.3,1.3,1.9c0.6,1.1,1,2.4,1,3.7
	c0,0.4,0,0.8-0.2,1.2c-0.3,0.5-0.9,0.9-1.5,0.9c-0.6,0-1.3-0.1-1.8-0.4l-2.2-0.8c-0.3-0.1-0.5-0.2-0.7-0.4
	C599.7,414.4,599.7,414.1,599.9,413.9z"/>
<path class="st14" d="M555.1,414.7l0.6-3.6c0.1-0.7,0.3-1.5,0.5-2.2c0.3-0.9,0.8-1.8,1.3-2.6c0.2-0.4,0.4-0.7,0.7-1
	c0.3-0.3,0.7-0.5,1.1-0.6c1.1-0.4,2.2-0.3,3.2,0.1c0.8,0.4,1.5,1.1,2.4,1c0-0.6-0.3-1.1-0.8-1.4c-0.5-0.3-1-0.5-1.5-0.7
	c-0.3-0.1-0.3-0.6-0.3-0.9c0-0.6,0.9-0.7,1.2-1.2c0.3-0.5,0-1.2-0.4-1.7c-0.7-0.8-1.7-1.4-2.8-1.5c-1.1-0.1-2.2,0.4-2.8,1.4
	c-0.2,0.4-0.4,0.9-0.6,1.4c-0.4,0.9-1,1.7-1.6,2.4c-1.5,1.8-2.8,3.8-4.2,5.7c-0.5,0.6-0.9,1.3-1.3,1.9c-0.6,1.1-1,2.4-1,3.7
	c0,0.4,0,0.8,0.2,1.2c0.3,0.5,0.9,0.9,1.6,0.9c0.6,0,1.3-0.1,1.8-0.4l2.2-0.7c0.3-0.1,0.5-0.2,0.7-0.4
	C555.4,415.2,555.4,414.9,555.1,414.7z"/>
<path class="st3" d="M595.8,498c0.6,0.5,1.2,1.4,0.9,2.1c-0.2,0.6-1,0.9-1.6,1.1c-0.7,0.1-1.3,0.3-1.9,0.7c-0.2,0.2-0.4,0.4-0.6,0.5
	c-0.4,0.2-0.8,0.3-1.2,0.2c-0.8,0-1.5-0.1-2.3-0.2c-0.2,0-0.3-0.1-0.5-0.1c-0.2-0.2-0.3-0.5-0.3-0.8c-0.1-0.8,0-1.6,0.1-2.3
	c0.1-0.8,0.5-1.5,1.1-2c0.6-0.5,2.4-1.8,3.1-1c0.2,0.2,0.1,0.6,0.4,0.8s0.6,0.1,0.9,0.1C594.7,497.3,595.3,497.6,595.8,498z"/>
<path class="st3" d="M561.1,498.3c-0.6,0.5-1.2,1.4-0.9,2.1c0.2,0.6,0.9,0.9,1.6,1.1c0.7,0.1,1.3,0.3,1.9,0.7
	c0.2,0.2,0.4,0.4,0.6,0.6c0.4,0.2,0.8,0.3,1.2,0.2c0.8,0,1.5-0.1,2.3-0.2c0.2,0,0.3-0.1,0.5-0.1c0.2-0.2,0.3-0.5,0.3-0.8
	c0.1-0.8,0-1.6-0.1-2.3c-0.1-0.8-0.5-1.5-1.1-2c-0.6-0.5-2.4-1.8-3.1-1c-0.2,0.2-0.1,0.6-0.4,0.8c-0.3,0.2-0.6,0.1-0.9,0.1
	C562.3,497.5,561.6,497.8,561.1,498.3z"/>
<path class="st3" d="M569.8,443.4c-2.3,6.7-4.6,13.6-4.4,20.7c0.1,4.3,1,9-1.4,12.5c-0.4,0.4-0.6,0.9-0.8,1.4
	c-0.2,0.7,0,1.4,0.1,2.1c0.5,3.1-1.2,6.1-1.3,9.2c0,1,0,1.9,0.2,2.9l0.6,5.5c0.2,1.9,2.6,2.7,4.5,2.9c0.9-1,1.4-2.3,1.6-3.7
	c0.2-1,0.2-2.1,0.2-3.1c0.2-2.7,0.5-5.3,0.9-8l0.5-3.4c0.2-1.1,0.3-2.2,0.5-3.4c1-6.1,2.4-12,4.4-17.8c0.4-1.2,1.2-2.7,2.5-2.7
	l0.8,1.5c1,1.9,1.7,4.1,2.4,6.1c1,2.7,0.7,5.8,2.1,8.3c0.2,0.4,0.5,0.8,0.7,1.2c0.2,0.7,0.4,1.4,0.4,2.1l0.9,9.2
	c0.4,4.1,0.8,8.4,2.7,12.1c0.2,0.4,0.5,0.8,0.9,1.1c0.8,0.5,1.8,0.3,2.6-0.3c1.2-0.9,1.9-2.3,1.8-3.8c-0.1-0.4-0.1-0.8-0.1-1.2
	c0.1-0.4,0.2-0.8,0.4-1.2c0.6-1.8-0.7-3.6-1.1-5.5c-0.6-2.5,0.3-5,0.1-7.6c-0.2-4-3-7.7-2.3-11.6c0.6-3.1,0.1-6.3-0.5-9.5l-2.1-11.7
	c-0.3-1.8-0.8-3.9-2.5-4.8c-0.9-0.4-2-0.6-3-0.5C578.1,442.5,574,443,569.8,443.4z"/>
<path class="st4" d="M607,415c-1.5,0.2-3-0.2-4.3-0.9c-0.5-0.3-1-0.6-1.6-0.8c-1-0.3-2.2,0-3.2,0.1c-1.8,0.3-3.6,0.1-5.3-0.4
	c-1.8-0.5-3.6-1.4-5.4-1c-0.9,0.2-1.7,0.7-2.5,0.8c-0.7,0.1-1.4,0-2.1-0.1l-5.9-0.9c-1.3-0.3-2.7-0.4-4-0.3c-1,0.2-2,0.3-3.1,0.4
	c-1.1,0-2.2-0.4-3.2-0.3c-0.6,0.1-1.3,0.2-1.9,0.4c-2.8,0.8-5.7,1.2-8.7,1.2c-2.3,0.2-4.6,0.9-6.5,2.3c-0.3,0.1-0.5,0.4-0.5,0.7
	c0,0.3,0.2,0.5,0.4,0.7c0.8,0.8,1.6,1.6,2.7,1.9c0.7,0.2,1.3,0.3,2,0.3c1.6,0.3,3.1,1.2,4.8,1.2c1.1,0,2.3-0.5,3.4-0.3
	c1.5,0.2,2.6,1.5,3.6,2.7c0.8,0.9,1.4,2,1.8,3.2c0.4,1.4,0.1,3,0.9,4.3c0.2,0.3,0.3,0.5,0.4,0.8c0,0.5-0.1,1-0.3,1.4
	c-0.6,2,0.8,4.1,0.6,6.2c-0.1,1-0.5,1.9-0.6,2.9c-0.1,1.3,0.4,2.7-0.3,3.8c2.8-1.4,5.9-2.1,9-2c0.5,0,1,0.1,1.5,0.1
	c1,0.2,2,0.5,2.9,0.8c2.1,0.7,4.5,1.2,6.6,0.4c0.5-1.2,0.4-2.6,0.3-4s-0.5-2.7-0.7-4c-0.2-1.1-0.2-2.1-0.3-3.2
	c-0.1-1.1,0-2.1,0.2-3.2c0.2-0.9,0.6-1.8,1-2.7c1-2.5,2.2-4.9,3.6-7.2c2.1-0.2,4.1-0.3,6.3-0.5c0.5,0,1-0.1,1.5-0.2
	c0.6-0.2,1.3-0.4,1.9-0.5c0.2,0,0.5-0.1,0.7-0.1c0.5-0.2,0.8-0.8,1.3-0.8c0.2,0,0.4,0,0.6,0c0.2-0.1,0.3-0.3,0.5-0.5
	c0.3-0.4,0.8-0.4,1.3-0.7C606.9,416.7,607.2,415.8,607,415z"/>
<path class="st3" d="M581.2,405.3c0.3,0.3,0.8,0.3,1.2,0.1c0.2-0.2,0.4-0.5,0.4-0.8c0.2-0.6,0.3-1.3,0.4-2c0-0.3,0.1-0.6,0.3-0.8
	c0.4-0.6,1.2-0.6,1.8-0.9c0.8-0.4,1.4-1.1,1.9-1.8l-0.4-0.1l0.3-0.5c-0.3-0.2-0.4-0.5-0.2-0.8c0,0,0.1-0.1,0.1-0.1
	c-0.3-0.2-0.6-0.2-1-0.2c0.1-0.2-0.1-0.4-0.3-0.5c-0.2,0-0.4-0.1-0.7,0c-0.3,0-0.7-0.1-1-0.2c-2.2-0.8-4.6-1.4-6.8-0.8
	c-1,0.3-1.9,0.8-2.7,1.4c-1.6,0.9-2.3,2.9-1.4,4.6c0.3,0.8,0.6,1.7,0.7,2.6c0,0.8-0.1,1.7-0.3,2.5c0.6,0.2,1.2,0.3,1.9,0.4
	c0.6,0,1.3-0.1,1.8-0.5c0.5-0.4,0.8-1.1,1.2-1.7c0.3-0.5,0.9-0.8,1.5-0.8C580.6,404.4,580.7,405,581.2,405.3z"/>
<path class="st3" d="M566.3,502.4h-6c-0.4,0.1-0.7,0.5-0.6,0.9c0.1,0.3,0.3,0.6,0.6,0.6h1.2v10.2h-20.6c-0.1-0.2-0.3-0.3-0.5-0.3h-6
	c-0.4,0.1-0.7,0.5-0.6,0.9c0.1,0.3,0.3,0.6,0.6,0.6h1.2V526h-19.9c0-0.3-0.3-0.5-0.6-0.6h-6c-0.4,0.1-0.7,0.5-0.6,0.9
	c0.1,0.3,0.3,0.6,0.6,0.6h0.6v10.8h-20.2c-0.1,0-0.2-0.1-0.2-0.1h-6c-0.4,0.1-0.7,0.5-0.6,0.9c0.1,0.3,0.3,0.6,0.6,0.6h0.6v10.3h-20
	c-0.1-0.2-0.3-0.3-0.5-0.3h-6c-0.4,0.1-0.7,0.5-0.6,0.9c0.1,0.3,0.3,0.6,0.6,0.6h0.6v11.4h136v-59.6H566.3z"/>
<path class="st1" d="M372.6,305.2c-0.6-0.8-1.3-1.5-2-2.1c-0.7-0.6-0.8-1.7-0.2-2.4c0.1-0.1,0.2-0.2,0.4-0.3
	c0.2-0.2,0.5-0.3,0.7-0.5c2.8-2.1,4.2-5,3.2-6.4c-1.1-1.4-4.2-0.8-7,1.3c-0.3,0.2-0.6,0.5-0.9,0.8c-0.7,0.6-1.8,0.6-2.4-0.1
	c-0.1-0.1-0.2-0.2-0.3-0.4c-0.4-0.8-0.9-1.5-1.4-2.2c-2.5-3.3-5.9-5-7.5-3.7c-1.6,1.2-1,4.9,1.5,8.2c0.5,0.6,1,1.2,1.6,1.8
	c0.7,0.7,0.7,1.8,0,2.5c-0.1,0.1-0.3,0.2-0.4,0.3l0,0c-3.1,1.8-4.8,4.4-4,5.9s4.1,1.3,7.1-0.4c0.5-0.3,0.9-0.6,1.4-0.9
	c0.8-0.6,1.9-0.4,2.4,0.3c0.1,0.1,0.1,0.2,0.2,0.3c0.4,0.9,0.9,1.8,1.5,2.6c2.5,3.3,5.9,5,7.5,3.7
	C375.8,312.1,375.1,308.5,372.6,305.2z"/>
<path class="st1" d="M736.7,394c0.6-0.8,1.1-1.6,1.5-2.5c0.4-0.9,1.4-1.3,2.3-0.9c0.1,0.1,0.3,0.2,0.4,0.3c0.2,0.2,0.5,0.4,0.7,0.5
	c2.9,2.1,6,2.6,7,1.2s-0.5-4.3-3.3-6.3c-0.3-0.2-0.7-0.5-1-0.7c-0.8-0.5-1.1-1.6-0.6-2.4c0.1-0.1,0.2-0.3,0.3-0.4
	c0.6-0.6,1.2-1.3,1.7-2c2.4-3.3,3-7,1.4-8.2c-1.7-1.2-5,0.5-7.4,3.9c-0.5,0.6-0.9,1.3-1.2,2.1c-0.4,0.9-1.5,1.2-2.3,0.8
	c-0.2-0.1-0.3-0.2-0.4-0.3l0,0c-2.6-2.4-5.7-3.3-6.8-2.1c-1.2,1.3-0.1,4.3,2.5,6.7c0.4,0.4,0.8,0.7,1.3,1c0.8,0.6,1,1.6,0.4,2.4
	c-0.1,0.1-0.2,0.2-0.2,0.3c-0.8,0.7-1.4,1.4-2,2.3c-2.4,3.3-3,7-1.4,8.2C731,399.1,734.3,397.4,736.7,394z"/>
<ellipse class="st4" cx="739.3" cy="564.2" rx="17.4" ry="3.3"/>
<ellipse class="st3" cx="739" cy="562.8" rx="2" ry="2.6"/>
<ellipse class="st3" cx="739" cy="559.6" rx="2" ry="2.6"/>
<ellipse class="st3" cx="739" cy="556.3" rx="2" ry="2.6"/>
<ellipse class="st3" cx="739" cy="553.1" rx="2" ry="2.6"/>
<ellipse class="st3" cx="739" cy="549.9" rx="2" ry="2.6"/>
<ellipse class="st3" cx="739" cy="546.6" rx="2" ry="2.6"/>
<ellipse class="st3" cx="739" cy="543.4" rx="2" ry="2.6"/>
<path class="st4" d="M746.6,521.2c0.3-0.4,0.5-0.7,0.8-1.1l-5.3-0.9l5.7,0c1.1-2.4,1.2-5.2,0.2-7.7l-7.7,4l7.1-5.2
	c-2.7-4.6-8.6-6.2-13.3-3.5c-4.6,2.7-6.2,8.6-3.5,13.3c0.2,0.4,0.5,0.7,0.7,1.1c-0.4,0.5-0.8,1.1-1.1,1.8l6.9,3.6l-7.4-2.5
	c-1.1,3.1-0.5,6.5,1.5,9.1c-3.3,4.2-2.6,10.3,1.6,13.6s10.3,2.6,13.6-1.6c2.8-3.5,2.8-8.5,0-12C749.4,529.7,749.4,524.8,746.6,521.2
	L746.6,521.2z"/>
<path class="st5" d="M729.3,527.2c0,2.2,0.7,4.3,2.1,6c-3.3,4.2-2.6,10.3,1.6,13.6c4.2,3.3,10.3,2.6,13.6-1.6c2.8-3.5,2.8-8.5,0-12
	C747.9,531.6,729.3,526.1,729.3,527.2z"/>
<ellipse class="st4" cx="422.7" cy="565" rx="7.9" ry="1.5"/>
<ellipse class="st3" cx="422.5" cy="564.4" rx="0.9" ry="1.2"/>
<ellipse class="st3" cx="422.5" cy="562.9" rx="0.9" ry="1.2"/>
<ellipse class="st3" cx="422.5" cy="561.4" rx="0.9" ry="1.2"/>
<ellipse class="st3" cx="422.5" cy="560" rx="0.9" ry="1.2"/>
<ellipse class="st3" cx="422.5" cy="558.5" rx="0.9" ry="1.2"/>
<ellipse class="st3" cx="422.5" cy="557" rx="0.9" ry="1.2"/>
<ellipse class="st3" cx="422.5" cy="555.6" rx="0.9" ry="1.2"/>
<path class="st4" d="M426,545.6c0.1-0.2,0.2-0.3,0.3-0.5l-2.4-0.4h2.6c0.3-0.6,0.4-1.2,0.4-1.8c0-0.6-0.1-1.1-0.3-1.6l-3.5,1.8
	l3.2-2.4c-1.2-2.1-3.9-2.8-6-1.6c-2.1,1.2-2.8,3.9-1.6,6c0.1,0.2,0.2,0.3,0.3,0.5c-0.2,0.2-0.4,0.5-0.5,0.8l3.1,1.6l-3.3-1.1
	c-0.5,1.4-0.2,2.9,0.7,4.1c-1.5,1.9-1.2,4.7,0.7,6.2c1.9,1.5,4.7,1.2,6.2-0.7c1.3-1.6,1.3-3.8,0-5.4
	C427.2,549.3,427.2,547.1,426,545.6L426,545.6z"/>
<path class="st5" d="M418.1,548.3c0,1,0.3,1.9,0.9,2.7c-1.5,1.9-1.2,4.7,0.7,6.2c1.9,1.5,4.7,1.2,6.2-0.7c1.3-1.6,1.3-3.8,0-5.4
	C426.6,550.2,418.1,547.8,418.1,548.3z"/>
</svg>
