<?xml version="1.0" encoding="utf-8"?>
<!-- Generator: Adobe Illustrator 25.1.0, SVG Export Plug-In . SVG Version: 6.00 Build 0)  -->
<svg version="1.1" xmlns="http://www.w3.org/2000/svg" xmlns:xlink="http://www.w3.org/1999/xlink" x="0px" y="0px"
	 viewBox="0 0 769.4 524.4" style="enable-background:new 0 0 769.4 524.4;" xml:space="preserve">
<style type="text/css">
	.st0{fill:url(#SVGID_1_);}
	.st1{fill:#E6E6E6;}
	.st2{fill:#725CFF;}
	.st3{fill:#3F3D56;}
	.st4{fill:#FFB8B8;}
	.st5{fill:#2F2E41;}
</style>
<g id="Layer_2">
	<linearGradient id="SVGID_1_" gradientUnits="userSpaceOnUse" x1="-120.9925" y1="289.049" x2="899.2594" y2="289.049">
		<stop  offset="0" style="stop-color:#FA7B90"/>
		<stop  offset="1" style="stop-color:#FDD748"/>
	</linearGradient>
	<rect x="-121" y="-73.2" class="st0" width="1020.3" height="724.5"/>
</g>
<g id="f26437e7-89a7-4b5d-86a1-b6b68813c70b">
	<circle class="st1" cx="302.9" cy="162.6" r="2.7"/>
	<circle class="st1" cx="316.3" cy="162.6" r="2.7"/>
	<circle class="st1" cx="329.7" cy="162.6" r="2.7"/>
	<circle class="st1" cx="343.2" cy="162.6" r="2.7"/>
	<circle class="st1" cx="356.6" cy="162.6" r="2.7"/>
	<circle class="st1" cx="302.9" cy="176.2" r="2.7"/>
	<circle class="st1" cx="316.3" cy="176.2" r="2.7"/>
	<circle class="st1" cx="329.7" cy="176.2" r="2.7"/>
	<circle class="st2" cx="343.2" cy="176.2" r="2.7"/>
	<circle class="st1" cx="356.6" cy="176.2" r="2.7"/>
	<circle class="st1" cx="383.5" cy="176.2" r="2.7"/>
	<circle class="st1" cx="302.9" cy="189.9" r="2.7"/>
	<circle class="st1" cx="316.3" cy="189.9" r="2.7"/>
	<circle class="st1" cx="329.7" cy="189.9" r="2.7"/>
	<circle class="st1" cx="343.2" cy="189.9" r="2.7"/>
	<circle class="st1" cx="356.6" cy="189.9" r="2.7"/>
	<circle class="st1" cx="302.9" cy="203.5" r="2.7"/>
	<circle class="st1" cx="316.3" cy="203.5" r="2.7"/>
	<circle class="st1" cx="329.7" cy="203.5" r="2.7"/>
	<circle class="st1" cx="343.2" cy="203.5" r="2.7"/>
	<circle class="st1" cx="356.6" cy="203.5" r="2.7"/>
	<circle class="st1" cx="370.1" cy="203.5" r="2.7"/>
	<circle class="st1" cx="383.5" cy="203.5" r="2.7"/>
	<circle class="st1" cx="397" cy="203.5" r="2.7"/>
	<circle class="st1" cx="410.4" cy="203.5" r="2.7"/>
	<circle class="st1" cx="423.9" cy="203.5" r="2.7"/>
	<circle class="st1" cx="356.6" cy="217.1" r="2.7"/>
	<circle class="st2" cx="370.1" cy="217.1" r="2.7"/>
	<circle class="st1" cx="383.5" cy="217.1" r="2.7"/>
	<circle class="st1" cx="397" cy="217.1" r="2.7"/>
	<circle class="st1" cx="410.4" cy="217.1" r="2.7"/>
	<circle class="st1" cx="423.9" cy="217.1" r="2.7"/>
	<circle class="st1" cx="356.6" cy="230.7" r="2.7"/>
	<circle class="st1" cx="370.1" cy="230.7" r="2.7"/>
	<circle class="st1" cx="383.5" cy="230.7" r="2.7"/>
	<circle class="st1" cx="397" cy="230.7" r="2.7"/>
	<circle class="st2" cx="410.4" cy="230.7" r="2.7"/>
	<circle class="st1" cx="423.9" cy="230.7" r="2.7"/>
	<circle class="st1" cx="356.6" cy="244.3" r="2.7"/>
	<circle class="st1" cx="370.1" cy="244.3" r="2.7"/>
	<circle class="st1" cx="383.5" cy="244.3" r="2.7"/>
	<circle class="st1" cx="397" cy="244.3" r="2.7"/>
	<circle class="st1" cx="410.4" cy="244.3" r="2.7"/>
	<circle class="st1" cx="423.9" cy="244.3" r="2.7"/>
	<circle class="st1" cx="302.9" cy="257.9" r="2.7"/>
	<circle class="st1" cx="316.3" cy="257.9" r="2.7"/>
	<circle class="st1" cx="329.7" cy="257.9" r="2.7"/>
	<circle class="st1" cx="343.2" cy="257.9" r="2.7"/>
	<circle class="st1" cx="356.6" cy="257.9" r="2.7"/>
	<circle class="st1" cx="370.1" cy="257.9" r="2.7"/>
	<circle class="st1" cx="383.5" cy="257.9" r="2.7"/>
	<circle class="st1" cx="397" cy="257.9" r="2.7"/>
	<circle class="st1" cx="410.4" cy="257.9" r="2.7"/>
	<circle class="st1" cx="423.9" cy="257.9" r="2.7"/>
	<circle class="st1" cx="302.9" cy="271.6" r="2.7"/>
	<circle class="st1" cx="316.3" cy="271.6" r="2.7"/>
	<circle class="st1" cx="302.9" cy="285.2" r="2.7"/>
	<circle class="st1" cx="316.3" cy="285.2" r="2.7"/>
	<circle class="st1" cx="343.2" cy="285.2" r="2.7"/>
	<path class="st1" d="M477.2,191.3H371.9c-1.1,0-1.9-0.9-1.9-1.9v-26.1c0-1.1,0.9-1.9,1.9-1.9h105.3c1.1,0,1.9,0.9,1.9,1.9v26.1
		C479.2,190.4,478.3,191.3,477.2,191.3z M371.9,162.1c-0.7,0-1.2,0.5-1.2,1.2v26.1c0,0.7,0.5,1.2,1.2,1.2h105.3
		c0.7,0,1.2-0.5,1.2-1.2v-26.1c0-0.7-0.5-1.2-1.2-1.2C477.2,162.1,371.9,162.1,371.9,162.1z"/>
	<circle class="st2" cx="385.6" cy="176.3" r="8.2"/>
	<path class="st1" d="M404.5,170.8c-0.7,0-1.4,0.6-1.4,1.4c0,0.7,0.6,1.4,1.4,1.4h36.3c0.7,0,1.4-0.6,1.4-1.4s-0.6-1.4-1.4-1.4
		C440.8,170.8,404.5,170.8,404.5,170.8z"/>
	<path class="st1" d="M404.5,179c-0.7,0-1.4,0.6-1.4,1.4c0,0.7,0.6,1.4,1.4,1.4h64.3c0.7,0,1.4-0.6,1.4-1.4c0-0.7-0.6-1.4-1.4-1.4
		H404.5z"/>
	<path class="st1" d="M341.9,244.3H236.6c-1.1,0-1.9-0.9-1.9-1.9v-26.1c0-1.1,0.9-1.9,1.9-1.9h105.3c1.1,0,1.9,0.9,1.9,1.9v26.1
		C343.9,243.4,343,244.3,341.9,244.3z M236.6,215.1c-0.7,0-1.2,0.5-1.2,1.2v26.1c0,0.7,0.5,1.2,1.2,1.2h105.3c0.7,0,1.2-0.5,1.2-1.2
		v-26.1c0-0.7-0.5-1.2-1.2-1.2H236.6z"/>
	<circle class="st2" cx="250.3" cy="229.3" r="8.2"/>
	<path class="st1" d="M269.2,223.9c-0.7,0-1.4,0.6-1.4,1.4c0,0.7,0.6,1.4,1.4,1.4H307c0.7,0,1.4-0.6,1.4-1.4c0-0.7-0.6-1.4-1.4-1.4
		H269.2z"/>
	<path class="st1" d="M269.2,232.1c-0.7,0-1.4,0.6-1.4,1.4c0,0.7,0.6,1.4,1.4,1.4h64.3c0.7,0,1.4-0.6,1.4-1.4c0-0.7-0.6-1.4-1.4-1.4
		H269.2z"/>
	<path class="st3" d="M437.1,301.7H331.8c-1.1,0-1.9-0.9-1.9-1.9v-26.1c0-1.1,0.9-1.9,1.9-1.9h105.3c1.1,0,1.9,0.9,1.9,1.9v26.1
		C439,300.8,438.2,301.7,437.1,301.7z M331.8,272.4c-0.7,0-1.2,0.5-1.2,1.2v26.1c0,0.7,0.5,1.2,1.2,1.2h105.3c0.7,0,1.2-0.5,1.2-1.2
		v-26.1c0-0.7-0.5-1.2-1.2-1.2H331.8z"/>
	<circle class="st2" cx="345.4" cy="286.6" r="8.2"/>
	<path class="st1" d="M364.3,281.2c-0.7,0-1.4,0.6-1.4,1.4s0.6,1.4,1.4,1.4H399c0.7,0,1.4-0.6,1.4-1.4s-0.6-1.4-1.4-1.4H364.3z"/>
	<path class="st1" d="M364.3,289.4c-0.7,0-1.4,0.6-1.4,1.4s0.6,1.4,1.4,1.4h64.3c0.7,0,1.4-0.6,1.4-1.4s-0.6-1.4-1.4-1.4H364.3z"/>
	<path class="st1" d="M493.7,295c-4.6,13.7-23.3-0.8-23.3-0.8l5-52c7.5-5.8,15.4-0.8,15.4-0.8L493.7,295z"/>
	<polygon class="st4" points="492.7,341.1 499.1,341.1 497.5,359.5 492.7,359.5 	"/>
	<path class="st5" d="M491.5,357.9h9.4c3.3,0,6,2.7,6,6v0.2h-15.4V357.9z"/>
	<polygon class="st4" points="475.4,341.1 468.4,341.1 470.7,359.5 475.4,359.5 	"/>
	<path class="st5" d="M461.2,364.1v-0.2c0-3.3,2.7-6,6-6h9.4v6.2H461.2z"/>
	<path class="st5" d="M492.3,356.3l-8.3-48.7l-7.7,48l-7.8,0.4l-2.1-64.4l0.2,0c1.3-0.3,31.8-7,36.8,2.6l0,0l-4.2,62.2L492.3,356.3z
		"/>
	<circle class="st4" cx="483.4" cy="226.6" r="9.6"/>
	<path class="st5" d="M491.5,299.1c-1.1-0.3-1.9-1.6-2.5-4.1c-0.1-0.4-10.1-42.8-1.6-50.5l1.9-5.4l2.7,1.8c0.9,0,10.5,0.2,11.3,6.4
		c0.8,6,3,46.4,0.8,48.9c-0.1,0.1-0.2,0.2-0.4,0.2c-2.2,0-2.9-2.5-3.1-3.3c-0.5,0.2-2.1,1-4.7,3.6c-1.6,1.6-2.8,2.4-3.9,2.4
		C491.8,299.2,491.7,299.2,491.5,299.1z"/>
	<path class="st5" d="M470.7,296.8c-2.6-2.6-4.2-3.4-4.7-3.6c-0.2,0.8-0.8,3.3-3.1,3.3c-0.2,0-0.3-0.1-0.4-0.2
		c-2.2-2.5,0-42.9,0.8-48.9c0.8-6.2,10.4-6.4,11.3-6.4l2.7-1.8l1.9,5.4c8.4,7.7-1.5,50-1.6,50.5c-0.6,2.5-1.4,3.7-2.5,4.1
		c-0.2,0-0.4,0.1-0.5,0.1C473.6,299.2,472.3,298.4,470.7,296.8z"/>
	<path class="st5" d="M491.3,232.1c4.4-3.2,5.4-9.3,2.2-13.7c-1.6-2.3-4.2-3.7-7-4.1c-0.9-0.1-1.8-0.1-2.6-0.6
		c-0.7-0.4-1-1.2-1.6-1.7c-0.8-0.6-1.8-0.9-2.7-0.7c-0.9,0.2-1.9,0.5-2.7,0.9c-2.1,0.9-4.4,2.1-5.3,4.2c-0.8,1.8-0.5,4.1,0.7,5.7
		c1.2,1.6,3.1,2.7,5.1,3c2,0.3,4.1,0.1,6-0.5c1.2-0.4,2.5-0.9,3.8-1c2.9-0.1,5.3,2.1,5.4,5c0,1.4-0.5,2.8-1.4,3.7"/>
	<path class="st4" d="M439.1,289c2.3,0,4.2-2,4.1-4.3l5.6-9.4l-4.3-3.9l-5.9,9.3c-2.3,0.2-4,2.3-3.8,4.6
		C435.1,287.4,436.9,289.1,439.1,289z"/>
	<path class="st4" d="M503.9,299.4c1.9-1.3,2.5-3.9,1.2-5.8l0,0l-0.2-11l-5.8-1.1l-0.1,11c-1.8,1.4-2.2,4.1-0.8,5.9
		C499.6,300.1,502.1,300.5,503.9,299.4z"/>
	<path class="st5" d="M440.8,273.9l-0.1-0.1l0.1-0.1c8.4-13.5,26-30.3,26.1-30.4l0,0l2.2,0l2.3,5.8c-0.7,1.4-20.4,28.9-23,30.7
		c-0.4,0.3-0.9,0.4-1.4,0.3c-0.4-0.1-0.9-0.3-1.2-0.5C443.5,278,441,274.1,440.8,273.9z"/>
	<path class="st5" d="M498.1,289.2c-0.5-0.2-0.9-0.5-1.1-1c-1.2-2.9,4.1-39.9,4.4-41.4l0-0.3l1.8,1.2v0.1c0,0.2,5.3,23.8,3.9,39.4
		v0.1l-0.1,0c-0.2,0.1-4.6,2.1-7.6,2.1C499,289.5,498.6,289.4,498.1,289.2z"/>
	<path class="st3" d="M534.3,364.4H430.6c-0.2,0-0.4-0.2-0.4-0.4c0-0.2,0.2-0.4,0.4-0.4h103.7c0.2,0,0.4,0.2,0.4,0.4
		C534.7,364.3,534.5,364.4,534.3,364.4z"/>
</g>
</svg>
