<?xml version="1.0" encoding="utf-8"?>
<!-- Generator: Adobe Illustrator 25.1.0, SVG Export Plug-In . SVG Version: 6.00 Build 0)  -->
<svg version="1.1" id="fafb0f89-a72a-431c-9009-ab2c777222ec"
	 xmlns="http://www.w3.org/2000/svg" xmlns:xlink="http://www.w3.org/1999/xlink" x="0px" y="0px" viewBox="0 0 921.9 659"
	 style="enable-background:new 0 0 921.9 659;" xml:space="preserve">
<style type="text/css">
	.st0{fill:url(#SVGID_1_);}
	.st1{fill:#3F3D56;}
	.st2{fill:#E6E6E6;}
	.st3{fill:#FFFFFF;}
	.st4{fill:#B96EFF;}
	.st5{opacity:0.8;fill:#E6E6E6;enable-background:new    ;}
	.st6{opacity:0.4;fill:#E6E6E6;enable-background:new    ;}
	.st7{opacity:0.6;fill:#E6E6E6;enable-background:new    ;}
	.st8{opacity:0.8;fill:#3F3D56;enable-background:new    ;}
	.st9{opacity:0.4;fill:#3F3D56;enable-background:new    ;}
	.st10{opacity:0.6;fill:#3F3D56;enable-background:new    ;}
	.st11{opacity:0.8;fill:#B96EFF;enable-background:new    ;}
	.st12{opacity:0.4;fill:#B96EFF;enable-background:new    ;}
	.st13{opacity:0.6;fill:#B96EFF;enable-background:new    ;}
	.st14{fill:#FFB8B8;}
	.st15{fill:#2F2E41;}
	.st16{fill:#FFB9B9;}
</style>
<linearGradient id="SVGID_1_" gradientUnits="userSpaceOnUse" x1="-49.1259" y1="329.5" x2="971.1259" y2="329.5">
	<stop  offset="0" style="stop-color:#FA7B90"/>
	<stop  offset="1" style="stop-color:#FDD748"/>
</linearGradient>
<rect x="-49.1" y="-32.7" class="st0" width="1020.3" height="724.5"/>
<polygon class="st1" points="610.8,436.7 424,436.7 424,436 610.9,436 "/>
<path class="st2" d="M312.5,222.3c-0.8,0-1.5,0.7-1.5,1.5v88.1c0,0.8,0.7,1.5,1.5,1.5h174.7c0.8,0,1.5-0.7,1.5-1.5v-88.1
	c0-0.8-0.7-1.5-1.5-1.5L312.5,222.3z"/>
<path class="st3" d="M314.9,224.7c-0.8,0-1.5,0.7-1.5,1.5v83.2c0,0.8,0.7,1.5,1.5,1.5h169.8c0.8,0,1.5-0.7,1.5-1.5v-83.2
	c0-0.8-0.7-1.5-1.5-1.5H314.9z"/>
<path class="st1" d="M365.9,278.3h-36.1c-1.2,0-2.1-1-2.1-2.1V240c0-1.2,1-2.1,2.1-2.1h36.1c1.2,0,2.1,1,2.1,2.1v36.1
	C368,277.3,367,278.3,365.9,278.3z M329.7,238.5c-0.8,0-1.5,0.7-1.5,1.5v36.1c0,0.8,0.7,1.5,1.5,1.5h36.1c0.8,0,1.5-0.7,1.5-1.5V240
	c0-0.8-0.7-1.5-1.5-1.5H329.7z"/>
<path class="st2" d="M417.9,278.3h-36.1c-1.2,0-2.1-1-2.1-2.1V240c0-1.2,1-2.1,2.1-2.1h36.1c1.2,0,2.1,1,2.1,2.1v36.1
	C420,277.3,419,278.3,417.9,278.3z M381.8,238.5c-0.8,0-1.5,0.7-1.5,1.5v36.1c0,0.8,0.7,1.5,1.5,1.5h36.1c0.8,0,1.5-0.7,1.5-1.5V240
	c0-0.8-0.7-1.5-1.5-1.5H381.8z"/>
<path class="st2" d="M384.5,241.2c-0.8,0-1.5,0.7-1.5,1.5v30.6c0,0.8,0.7,1.5,1.5,1.5h30.6c0.8,0,1.5-0.7,1.5-1.5v-30.6
	c0-0.8-0.7-1.5-1.5-1.5L384.5,241.2z"/>
<path class="st1" d="M332.7,241.2c-0.8,0-1.5,0.7-1.5,1.5v30.6c0,0.8,0.7,1.5,1.5,1.5h30.6c0.8,0,1.5-0.7,1.5-1.5v-30.6
	c0-0.8-0.7-1.5-1.5-1.5L332.7,241.2z"/>
<path class="st4" d="M436.4,241.2c-0.8,0-1.5,0.7-1.5,1.5v30.6c0,0.8,0.7,1.5,1.5,1.5H467c0.8,0,1.5-0.7,1.5-1.5v-30.6
	c0-0.8-0.7-1.5-1.5-1.5L436.4,241.2z"/>
<path class="st4" d="M469.9,278.3h-36.1c-1.2,0-2.1-1-2.1-2.1V240c0-1.2,1-2.1,2.1-2.1h36.1c1.2,0,2.1,1,2.1,2.1v36.1
	C472,277.3,471.1,278.3,469.9,278.3z M433.8,238.5c-0.8,0-1.5,0.7-1.5,1.5v36.1c0,0.8,0.7,1.5,1.5,1.5h36.1c0.8,0,1.5-0.7,1.5-1.5
	V240c0-0.8-0.7-1.5-1.5-1.5H433.8z"/>
<circle class="st5" cx="385.3" cy="289.9" r="5.2"/>
<circle class="st6" cx="414.7" cy="289.9" r="5.2"/>
<circle class="st7" cx="400" cy="289.9" r="5.2"/>
<circle class="st8" cx="333.3" cy="289.9" r="5.2"/>
<circle class="st9" cx="362.6" cy="289.9" r="5.2"/>
<circle class="st10" cx="348" cy="289.9" r="5.2"/>
<circle class="st11" cx="437.3" cy="289.9" r="5.2"/>
<circle class="st12" cx="466.7" cy="289.9" r="5.2"/>
<circle class="st13" cx="452" cy="289.9" r="5.2"/>
<polygon class="st3" points="448.6,267.9 441.2,258.5 445.5,255.2 449,259.7 460.7,247.3 464.6,251 "/>
<path class="st1" d="M517.4,325.5c-0.3-0.3-0.9-0.4-1.3-0.1l-7.9,5.1c-0.5,0.3-0.6,1-0.3,1.4c0,0.1,0.1,0.1,0.1,0.2l20.1,20
	c0.4,0.4,1.1,0.4,1.5,0c0,0,0,0,0,0l6.6-6.8c0.4-0.4,0.4-1.1,0-1.5L517.4,325.5z"/>
<path class="st3" d="M509.8,331l0.8-0.5c-0.2,0.4-0.1,0.8,0.3,1.1c0.3,0.1,0.6,0.1,0.8,0l5.3-3.6c0.4-0.2,0.4-0.7,0.2-1.1
	c-0.1-0.1-0.2-0.2-0.4-0.3l0.4-0.3c0.1-0.1,0.3-0.1,0.4,0l17.8,17.5c0.1,0.1,0.1,0.3,0,0.4c0,0,0,0,0,0l-6.5,6.3
	c-0.1,0.1-0.3,0.1-0.4,0l-18.8-19C509.6,331.4,509.6,331.2,509.8,331C509.8,331.1,509.8,331,509.8,331z"/>
<polygon class="st4" points="530.3,339.9 524.9,345.1 511.9,332.2 518.5,327.9 "/>
<path class="st2" d="M512.4,335.4c0.1-0.1,0.1-0.2,0-0.3l-1.1-1.1c-0.1-0.1-0.2-0.1-0.3,0c-0.1,0.1-0.1,0.2,0,0.3l1.1,1.1
	C512.2,335.5,512.3,335.5,512.4,335.4z"/>
<path class="st2" d="M514.3,337l-1.1-1.1c-0.1-0.1-0.2-0.1-0.3,0c-0.1,0.1-0.1,0.2,0,0.3l1.1,1.1c0.1,0.1,0.2,0.1,0.3,0
	C514.4,337.2,514.4,337.1,514.3,337z"/>
<circle class="st4" cx="530.2" cy="344.3" r="1.3"/>
<path class="st14" d="M567.1,346.9l-1,4.8c-0.4,2.1,0.9,4.2,3.1,4.7c0.7,0.1,1.4,0.1,2.1-0.1l0,0c2-0.7,3.1-2.8,2.5-4.9l-1.3-4.5
	l12-35h-10.2L567.1,346.9z"/>
<circle class="st14" cx="556.4" cy="268" r="9.3"/>
<path class="st14" d="M554.9,284.5l12.3-1.5c-2.8-3.5-3.9-7.2-3-11.1l-11.1,1.2L554.9,284.5z"/>
<path class="st4" d="M539.6,336.2l29-6.6c6.2-4.8,10.2-14.4,13.3-25.9c2.3-8.4-1.8-17.4-9.8-20.9c-0.2-0.1-0.4-0.2-0.6-0.2L565,280
	l-10.8,0.9l-3.8,1c-1.7,0.5-2.9,1.8-3.2,3.6C542.1,304.4,538.7,322,539.6,336.2z"/>
<polygon class="st4" points="572.8,317.6 585.7,317.6 581.5,292.5 572.8,293.4 "/>
<path class="st15" d="M529.5,426.4h7.8l16.3-57.2l6.3,57.2h9.1l3.6-91.8c-1.4-7-1.3-15.4-0.6-24.5c6.4-4.5,4.1-15.1,4.8-25.8
	c0-0.1,0-0.2-0.1-0.3l-4.1-2.1c-0.1-0.2-0.4-0.2-0.6,0c-0.1,0.1-0.1,0.2-0.1,0.3c-0.1,7.5,1.9,16.4-1.3,22.3
	c-3.5-12.1-8.1-22.2-17.1-24.4c-0.2,0-0.3,0-0.5,0l-1.7,0.5c-0.5,0.2-0.8,0.7-0.7,1.2c0.1,0.2,0.2,0.4,0.4,0.6
	c8.2,5.1,13.5,13.5,13.8,27.8c-6.4,9-12.6,14.4-23.7,20.9c-1.1,0.7-1.9,1.8-2,3.2L529.5,426.4z"/>
<path class="st15" d="M557.6,276.4l6.6-1.2l3.9-6.7c1.9-3.3,1.5-7.5-1-10.4l0,0c-2-2.2-4.9-3.3-7.9-2.9l-8.5,1.2
	c-3.1,0.4-5.2,3.3-4.8,6.4c0,0,0,0,0,0l5.7,1L557.6,276.4z"/>
<path class="st15" d="M520.4,436.5h13.7c2.5,0,4.5-2,4.5-4.5c0-0.2,0-0.4,0-0.6l-0.9-5.9l-6.2-0.5l-12.3,5.8c-1.2,0.5-1.8,1.7-1.7,3
	l0,0C517.5,435.3,518.8,436.5,520.4,436.5z"/>
<path class="st15" d="M551.5,436.5h13.7c2.5,0,4.5-2,4.5-4.5c0-0.2,0-0.4,0-0.6l-0.9-5.9l-6.2-0.5l-12.3,5.8c-1.2,0.5-1.8,1.7-1.7,3
	l0,0C548.6,435.3,549.9,436.5,551.5,436.5z"/>
<path class="st16" d="M525.5,335.9l-5.9,2.1c-2.2,0.8-3.3,3.1-2.6,5.3c0.3,0.8,0.7,1.4,1.4,1.9l0,0c1.4,1.1,3.4,1.2,4.9,0.2l5.4-3.5
	l18.4-18.7l2.9-22c0.7-5.7-1.5-11.4-5.9-15.1l0,0l-6,33.5L525.5,335.9z"/>
<path class="st4" d="M538.1,313.2h13.2l-0.3-31.4l0,0c-6.4,1.6-11,7.2-11.5,13.8L538.1,313.2z"/>
<ellipse class="st14" cx="553.7" cy="269.3" rx="1.6" ry="2"/>
</svg>
