<?xml version="1.0" encoding="utf-8"?>
<!-- Generator: Adobe Illustrator 25.1.0, SVG Export Plug-In . SVG Version: 6.00 Build 0)  -->
<svg version="1.1" id="ace05a6f-f1ac-4978-a3bb-3e2345b819e7"
	 xmlns="http://www.w3.org/2000/svg" xmlns:xlink="http://www.w3.org/1999/xlink" x="0px" y="0px" viewBox="0 0 767.7 596"
	 style="enable-background:new 0 0 767.7 596;" xml:space="preserve">
<style type="text/css">
	.st0{fill:url(#SVGID_1_);}
	.st1{fill:#B96EFF;}
	.st2{fill:#E6E6E6;}
	.st3{fill:#3F3D56;}
	.st4{fill:#FF6584;}
	.st5{fill:#2F2E41;}
</style>
<linearGradient id="SVGID_1_" gradientUnits="userSpaceOnUse" x1="-150.6" y1="743.45" x2="869.7" y2="743.45" gradientTransform="matrix(1 0 0 1 0 -402)">
	<stop  offset="0" style="stop-color:#FA7B90"/>
	<stop  offset="1" style="stop-color:#FDD748"/>
</linearGradient>
<rect x="-150.6" y="-20.8" class="st0" width="1020.3" height="724.5"/>
<path class="st1" d="M421.5,331.3l-0.6,6.7c-0.2,1.7-1.6,2.8-3.2,2.7l-55.9-4.7c-1.7-0.2-2.8-1.6-2.7-3.2l0.6-6.7
	c0.2-1.7,1.6-2.8,3.2-2.7l55.9,4.7C420.4,328.3,421.6,329.7,421.5,331.3z"/>
<path class="st1" d="M432.6,364l-6.2,2.6c-1.5,0.6-3.1,0.4-3.4-0.5l-13.6-32c-0.4-1,0.5-2.2,2-2.9l6.2-2.6c1.5-0.6,3.1-0.4,3.4,0.5
	l13.6,32C435,362,434.1,363.4,432.6,364z"/>
<path class="st2" d="M399.9,353.6H295.1c3.2-23.7-13.3-45.6-37-48.8c-23.7-3.3-45.6,13.2-48.8,36.9c-3.2,23.7,13.3,45.6,37,48.8
	c1.9,0.3,3.9,0.4,5.9,0.4c5.3,0,10.6-1,15.5-2.9v42.1c0,2,1.7,3.7,3.7,3.7h128.5c2,0,3.7-1.7,3.7-3.7v-73
	C403.5,355.2,401.9,353.6,399.9,353.6z"/>
<path class="st3" d="M407.6,424.2H279.1c-2.3,0-4.1-1.8-4.1-4.1v-73c0-2.3,1.8-4.1,4.1-4.1h128.5c2.3,0,4.1,1.8,4.1,4.1v73
	C411.7,422.4,409.9,424.2,407.6,424.2z M279.1,344c-1.7,0-3.1,1.4-3.1,3.1v73c0,1.7,1.4,3.1,3.1,3.1h128.5c1.7,0,3.1-1.4,3.1-3.1
	v-73c0-1.7-1.4-3.1-3.1-3.1H279.1z"/>
<path class="st1" d="M407.8,336.3l-0.6,6.7c-0.2,1.7-1.6,2.8-3.2,2.7L348,341c-1.7-0.2-2.8-1.6-2.7-3.2l0.6-6.7
	c0.2-1.7,1.6-2.8,3.2-2.7l55.9,4.7C406.7,333.3,408,334.7,407.8,336.3z"/>
<path class="st1" d="M419,369l-6.2,2.6c-1.5,0.6-3.1,0.4-3.4-0.5l-13.7-32c-0.4-1,0.5-2.2,2-2.9l6.2-2.6c1.5-0.6,3.1-0.4,3.4,0.5
	l13.6,32C421.3,367.1,420.5,368.3,419,369z"/>
<rect x="512.1" y="165.5" transform="matrix(0.794 -0.6079 0.6079 0.794 1.9239 351.3745)" class="st1" width="14.6" height="14.6"/>
<circle class="st4" cx="455.3" cy="244.3" r="10.1"/>
<path class="st3" d="M452.7,251.5c-3.5-4.6-2.6-11.2,1.9-14.7c4.6-3.5,11.2-2.6,14.7,1.9c3.5,4.6,2.6,11.2-1.9,14.7
	C462.8,256.9,456.2,256,452.7,251.5z M468.6,239.2c-3.2-4.2-9.2-5-13.4-1.7c-4.2,3.2-5,9.2-1.7,13.4c3.2,4.2,9.2,5,13.4,1.7l0,0
	C471,249.4,471.8,243.4,468.6,239.2L468.6,239.2z"/>
<path class="st3" d="M521.5,183.9l-9.4-12.3l12.3-9.4l9.4,12.3L521.5,183.9z M513.4,171.8l8.3,10.8l10.8-8.3l-8.3-10.8L513.4,171.8z
	"/>
<rect x="537.1" y="246.9" transform="matrix(0.794 -0.6079 0.6079 0.794 -42.4135 383.3032)" class="st1" width="14.6" height="14.6"/>
<path class="st3" d="M546.5,265.2l-9.4-12.2l12.3-9.4l9.4,12.3L546.5,265.2z M538.3,253.1l8.3,10.8l10.8-8.3l-8.3-10.8L538.3,253.1z
	"/>
<rect x="209.3" y="423.4" class="st3" width="284.4" height="0.9"/>
<path class="st3" d="M258.1,379.6c-24.1,0-43.7-19.6-43.7-43.7c0-24.1,19.6-43.7,43.7-43.7c24.1,0,43.7,19.6,43.7,43.7
	C301.8,360,282.2,379.5,258.1,379.6z M258.1,293c-23.7,0-42.9,19.2-42.9,42.9s19.2,42.9,42.9,42.9s42.9-19.2,42.9-42.9
	C301,312.2,281.7,293,258.1,293L258.1,293z"/>
<circle class="st1" cx="353.1" cy="246.5" r="24.4"/>
<path class="st5" d="M356.7,255.6v-0.9c1.7-0.1,3.1-0.2,4.3-1c0.6-0.5,1-1.2,1-2.1c0-0.5-0.2-1-0.5-1.3c-0.8-0.6-1.9-0.4-2.8,0
	l-0.8,0.3l1.5-10.6l0.9,0.1l-1.2,9c1.2-0.3,2.3-0.2,3.1,0.4c0.6,0.5,0.9,1.3,0.9,2c-0.1,1-0.6,2.1-1.5,2.8
	C360.1,255.4,358.2,255.5,356.7,255.6z"/>
<rect x="364.8" y="240.9" class="st5" width="4.9" height="0.9"/>
<rect x="349.3" y="240.9" class="st5" width="4.9" height="0.9"/>
<path class="st5" d="M388,344.3h-57.4c-1.1,0-2-1-2-2v-46.1c0-11.6,9.4-21.1,21.1-21.1h18.8c1.1,0,2,0.9,2,2l19.6,65.2l0,0
	C390,343.3,389.1,344.3,388,344.3z"/>
<path class="st1" d="M349.9,293.6l6.7,0.1c1.7,0,3,1.3,3,3l-0.4,56.1c0,1.7-1.3,3-3,3l-6.7-0.1c-1.7,0-3-1.3-3-3l0.4-56.1
	C346.9,294.9,348.2,293.6,349.9,293.6z"/>
<path class="st5" d="M343.1,291.4c0-5.5,4.5-10.1,10.1-10.1c5.5,0,10.1,4.5,10.1,10.1v22.4h-20L343.1,291.4L343.1,291.4z"/>
<path class="st5" d="M345.9,235c2.3-2.4,5.7-2.8,8.8-2.5c3.4,0.3,6.6,1.4,9.9,2c3.2,0.6,6.8,0.9,10-0.4c3-1.3,5-4.1,5.3-7.3
	c0.4-3.3-0.4-6.6-2.4-9.4c-2.1-3.1-5.2-5.2-8.3-7.1c-6.8-4-14.4-7.5-22.4-8.1c-7.2-0.6-14.9,1.4-19.9,6.8
	c-4.7,5.1-6.7,12.1-7.2,18.9c-0.5,8.7,1.5,17.2,2.2,25.8c0.5,6.6,0.3,14.7-5.1,19.5c-4.8,4.2-12.1,4.2-17.8,1.8
	c-6.7-2.7-11.5-8.9-15-15c-0.9-1.6-1.7-3.1-2.6-4.7c-0.4-0.8-1.6-0.1-1.1,0.7c3.3,6.4,7.3,12.9,13,17.2c5.1,3.8,11.9,5.8,18.2,4.1
	c3.1-0.8,5.8-2.4,7.8-4.9c2.2-2.7,3.3-6,3.8-9.4c0.5-3.6,0.3-7.3,0-10.9c-0.4-4.4-1.1-8.7-1.7-13.1c-0.8-7.4-1-15.1,2-22.2
	c1.2-3.1,3.2-5.9,5.8-8.2c2.8-2.4,6-3.9,9.6-4.5c7.7-1.6,15.6,0.5,22.6,3.8c3.5,1.6,6.9,3.5,10.1,5.7c2.8,2,5.4,4.6,6.6,8
	c1,2.9,0.9,6.4-1,8.9c-2,2.7-5.4,3.4-8.7,3.2c-6.6-0.3-13.1-4.1-19.7-1.9c-1.5,0.4-2.8,1.3-3.8,2.4
	C344.4,234.7,345.3,235.6,345.9,235L345.9,235z"/>
</svg>
