<?xml version="1.0" encoding="utf-8"?>
<!-- Generator: Adobe Illustrator 25.1.0, SVG Export Plug-In . SVG Version: 6.00 Build 0)  -->
<svg version="1.1" id="b4850822-491f-41e2-90b8-9be7376dfe8f"
	 xmlns="http://www.w3.org/2000/svg" xmlns:xlink="http://www.w3.org/1999/xlink" x="0px" y="0px" viewBox="0 0 798.6 689.2"
	 style="enable-background:new 0 0 798.6 689.2;" xml:space="preserve">
<style type="text/css">
	.st0{fill:url(#SVGID_1_);}
	.st1{fill:#A0616A;}
	.st2{fill:#D0CDE1;}
	.st3{fill:#2F2E41;}
	.st4{fill:#FDD748;}
	.st5{fill:#3F3D56;}
	.st6{fill:none;stroke:#D0CDE1;stroke-width:2;stroke-miterlimit:10;}
</style>
<linearGradient id="SVGID_1_" gradientUnits="userSpaceOnUse" x1="-101.1259" y1="345.5" x2="919.1259" y2="345.5">
	<stop  offset="5.586592e-03" style="stop-color:#8460FE"/>
	<stop  offset="1" style="stop-color:#A96AFF"/>
</linearGradient>
<rect x="-101.1" y="-16.7" class="st0" width="1020.3" height="724.5"/>
<ellipse class="st1" cx="413.1" cy="257.2" rx="27.6" ry="28.4"/>
<path class="st1" d="M392.4,271.4c0,0,5.2,40.3-2.8,44.9s47.6,4.9,47.6,4.9s-12.4-35-6.8-45.7L392.4,271.4z"/>
<path class="st2" d="M477.9,321.5l-4.6,21.7l-9.8,45.8l-0.3,2.5l-3.4,29.1l-2.2,19.3l-1.5,13c-9.2,4.8-15.8,8.2-15.8,8.2
	s-0.6-2.9-1.5-6.7c-6.4,2-18.3,5.3-28.4,5.9c3.7,4.2,5.4,8.2,3.1,11.1c-6.9,8.8-35.4-9.6-45.4-16.5c-0.2,1.6-0.3,3.3-0.3,5l-7.6-6
	l0.8-13.9l1.3-23.5l1.6-29.5c-0.5-1.3-0.9-2.6-1.3-3.9c-2.3-8.5-5.2-25.6-7.3-39.9c-1.8-11.5-3.1-21.2-3.3-23.3
	c0-0.3-0.1-0.4-0.1-0.4l42.2-19.2c3,7.2,17,9.3,17,9.3c11.6-0.8,20.7-7.1,20.7-7.1L477.9,321.5z"/>
<path class="st1" d="M443.5,452.8c0,0-1.8,0.6-4.7,1.5c-6.4,2-18.3,5.3-28.4,5.9c-8.7,0.6-16-0.8-17.4-6.6c-0.6-2.5,0.2-4.6,2-6.3
	c5.3-5.1,19.2-6.9,30.1-7.5c3.1-0.2,6-0.3,8.4-0.3c4.1-0.1,6.7,0,6.7,0l0.1,0.3L443.5,452.8z"/>
<path class="st3" d="M390.1,230.4l-5.2-2.1c0,0,10.8-12.2,25.8-11.2l-4.2-4.8c0,0,10.3-4.3,19.7,6.9c4.9,5.9,10.6,12.8,14.2,20.5
	h5.5l-2.3,5.2l8.1,5.2l-8.3-0.9c0.5,2.9,0.6,5.8,0.2,8.7c-0.4,2.9-1.8,5.5-4,7.3l0,0c0,0-6.4-13.6-6.4-15.8v5.3c0,0-5.2-4.8-5.2-8
	l-2.8,3.7l-1.4-5.8l-17.4,5.8l2.8-4.8l-10.8,1.6l4.2-5.8c0,0-12.2,6.9-12.7,12.8c-0.5,5.8-4,11.4-4,11.4S376.5,238.4,390.1,230.4z"
	/>
<path class="st2" d="M507.9,421.1c-2.8,3.1-9.8,7.9-18.2,13c-3.1,1.9-6.5,3.9-9.9,5.8c-8.1,4.6-16.7,9.2-23.7,13
	c-9.2,4.8-15.8,8.2-15.8,8.2s-0.6-2.9-1.5-6.7c-1.2-5-3.1-11.6-5-14.4c-0.1-0.1-0.1-0.2-0.2-0.3c-0.6-0.8-1.1-1.2-1.7-1.2l28-17.8
	l12.1-7.7l-8.7-21.4l-10.9-26.8l6.6-21.6l6.6-21.7h12.4c0,0,4.1,9.2,9.4,22.1c0.8,1.9,1.6,3.9,2.4,6
	C500.5,376.6,514,414.3,507.9,421.1z"/>
<path class="st1" d="M413.5,471.3c-6.9,8.8-35.4-9.6-45.4-16.5c-2.2-1.5-3.5-2.4-3.5-2.4l9.1-12.5l2.9-4c0,0,2.6,1.4,6.4,3.7
	c0.1,0.1,0.3,0.2,0.4,0.3c3.3,2,7.4,4.6,11.6,7.5c5.8,4,11.6,8.6,15.3,12.9C414.1,464.4,415.8,468.4,413.5,471.3z"/>
<path class="st2" d="M383,439.6c-1,0-2,0.1-3,0.3c-8.6,1.5-11.2,9.6-11.9,14.9c-0.2,1.6-0.3,3.3-0.3,5l-7.6-6l-2.8-2.2
	c-6.7-2.4-12.7-6.7-17.8-11.7c-4.5-4.4-8.5-9.3-12-14.6c-3.5-5.2-6.6-10.7-9.3-16.4c-1.5-3.2-1.6-7-0.2-10.2l9.4-21.6l13.8-31.6
	c0.1-0.8,0.2-1.5,0.3-2.2c2.7-16.1,10.1-23.3,10.1-23.3h5.6l3.7,23.3l4.7,29l-3.3,10.9l-7.5,25.3l7.2,8L383,439.6z"/>
<path class="st4" d="M389.4,372.1l4.8,5.7c1.8-0.3,3.6-0.8,5.6-1.2l-1.4-4.5l3.4,4C422,371,447.1,361,447.1,361s-27.1,2-47.4-2.5
	c-9-2-18.2,2.6-21.9,11.2c-2.1,5-1.8,9.4,5.8,9.4c2.6,0,5.1-0.3,7.6-0.7L389.4,372.1z"/>
<path class="st5" d="M498.6,466.6v2.3c0,0.6-0.1,1.3-0.3,1.9c-0.1,0.3-0.2,0.5-0.4,0.8c-0.9,1.6-2.6,2.5-4.3,2.5H325.8
	c-1.8,0-3.4-1-4.3-2.5c-0.1-0.2-0.3-0.5-0.4-0.8c-0.2-0.6-0.3-1.2-0.3-1.9v-2.3c0-2.9,2.3-5.2,5-5.2c0,0,0,0,0,0h9.7v-1.1
	c0-0.1,0.1-0.2,0.2-0.2c0,0,0,0,0,0h5c0.1,0,0.2,0.1,0.2,0.2c0,0,0,0,0,0v1.1h3.2v-1.1c0-0.1,0.1-0.2,0.2-0.2c0,0,0,0,0,0h5
	c0.1,0,0.2,0.1,0.2,0.2c0,0,0,0,0,0v1.1h3.2v-1.1c0-0.1,0.1-0.2,0.2-0.2c0,0,0,0,0,0h5c0.1,0,0.2,0.1,0.2,0.2c0,0,0,0,0,0v1.1h3.2
	v-1.1c0-0.1,0.1-0.2,0.2-0.2c0,0,0,0,0,0h5c0.1,0,0.2,0.1,0.2,0.2c0,0,0,0,0,0v1.1h3.2v-1.1c0-0.1,0.1-0.2,0.2-0.2c0,0,0,0,0,0h5
	c0.1,0,0.2,0.1,0.2,0.2c0,0,0,0,0,0v1.1h3.2v-1.1c0-0.1,0.1-0.2,0.2-0.2c0,0,0,0,0,0h5c0.1,0,0.2,0.1,0.2,0.2c0,0,0,0,0,0v1.1h3.2
	v-1.1c0-0.1,0.1-0.2,0.2-0.2c0,0,0,0,0,0h39.5c0.1,0,0.2,0.1,0.2,0.2c0,0,0,0,0,0v1.1h3.2v-1.1c0-0.1,0.1-0.2,0.2-0.2c0,0,0,0,0,0h5
	c0.1,0,0.2,0.1,0.2,0.2v1.1h3.2v-1.1c0-0.1,0.1-0.2,0.2-0.2c0,0,0,0,0,0h5c0.1,0,0.2,0.1,0.2,0.2c0,0,0,0,0,0v1.1h3.2v-1.1
	c0-0.1,0.1-0.2,0.2-0.2c0,0,0,0,0,0h5c0.1,0,0.2,0.1,0.2,0.2c0,0,0,0,0,0v1.1h3.2v-1.1c0-0.1,0.1-0.2,0.2-0.2c0,0,0,0,0,0h5
	c0.1,0,0.2,0.1,0.2,0.2v1.1h3.2v-1.1c0-0.1,0.1-0.2,0.2-0.2c0,0,0,0,0,0h5c0.1,0,0.2,0.1,0.2,0.2c0,0,0,0,0,0v1.1h3.2v-1.1
	c0-0.1,0.1-0.2,0.2-0.2c0,0,0,0,0,0h5c0.1,0,0.2,0.1,0.2,0.2c0,0,0,0,0,0v1.1h14.7C496.4,461.4,498.6,463.7,498.6,466.6
	C498.6,466.6,498.6,466.6,498.6,466.6z"/>
<rect x="272" y="470.8" class="st5" width="275.3" height="0.8"/>
<path class="st5" d="M485.1,367.8h-62.5v-1.3h-28.4v1.3h-62.8c-2.3,0-4.2,1.9-4.2,4.3l0,0v88c0,2.4,1.9,4.3,4.2,4.3h153.7
	c2.3,0,4.2-1.9,4.2-4.3v-88C489.3,369.8,487.4,367.8,485.1,367.8z"/>
<ellipse class="st6" cx="408.4" cy="398.6" rx="9.4" ry="9.7"/>
<ellipse class="st2" cx="405.4" cy="402" rx="9.4" ry="9.7"/>
<rect x="279.5" y="466.9" class="st2" width="10.5" height="10.8"/>
<path class="st5" d="M283.7,458.4v13.1h12.8v-13.1H283.7z M295.9,471h-11.7v-12h11.7V471z"/>
<rect x="523" y="466.9" class="st2" width="10.5" height="10.8"/>
<path class="st5" d="M527.1,458.4v13.1h12.8v-13.1H527.1z M539.3,471h-11.7v-12h11.7V471z"/>
<ellipse class="st4" cx="284.8" cy="269.7" rx="29.8" ry="30.6"/>
<path class="st5" d="M295.2,233.3c-2.7-0.4-5.4-0.4-8.1,0c-12.3,1.7-22.5,10.5-26.2,22.7c-0.8,2.7-1.3,5.5-1.4,8.4
	c0,0.4,0,0.8,0,1.2c0,17.9,14.2,32.5,31.6,32.5c0.7,0,1.3,0,2-0.1c1.6-0.1,3.1-0.3,4.6-0.7c17.1-3.8,27.9-21.1,24.3-38.6
	C319.3,245.3,308.5,235.1,295.2,233.3L295.2,233.3z M301.1,295.5L301.1,295.5c-2.6,0.9-5.2,1.4-7.9,1.6c-0.7,0-1.3,0.1-2,0.1
	c-17,0-30.7-14.1-30.7-31.6c0-0.4,0-0.8,0-1.2c0.6-16.9,14.2-30.4,30.7-30.4c17,0,30.7,14.1,30.7,31.6
	C321.9,279.1,313.5,291.1,301.1,295.5L301.1,295.5z"/>
<rect x="290.7" y="235.9" class="st5" width="0.9" height="6.5"/>
<polygon class="st5" points="270.4,244.9 271,244.2 275.5,248.8 274.9,249.5 "/>
<rect x="262.3" y="265.1" class="st5" width="6.3" height="0.9"/>
<polygon class="st5" points="271,286.9 270.4,286.3 274.9,281.7 275.5,282.3 "/>
<polygon class="st5" points="307.4,249.5 306.8,248.8 311.3,244.2 311.9,244.9 "/>
<rect x="313.7" y="265.1" class="st5" width="6.3" height="0.9"/>
<polygon class="st5" points="306.8,282.3 307.4,281.7 311.9,286.3 311.3,286.9 "/>
<rect x="290.7" y="288.8" class="st5" width="0.9" height="6.5"/>
<path class="st5" d="M292.5,263.7c-0.8-0.6-1.9-0.6-2.7,0c-0.3,0.2-0.5,0.5-0.6,0.8c-0.6,1.1-0.2,2.5,1,3.1c1.1,0.6,2.5,0.2,3-1
	C293.7,265.6,293.4,264.4,292.5,263.7L292.5,263.7z M291.2,267c-0.7,0-1.4-0.6-1.4-1.4c0-0.3,0.1-0.6,0.2-0.8
	c0.4-0.6,1.3-0.8,1.9-0.4s0.8,1.3,0.3,1.9C292,266.7,291.6,267,291.2,267L291.2,267z"/>
<rect x="287.1" y="225.2" class="st5" width="8.1" height="8.4"/>
<ellipse class="st5" cx="291.2" cy="222.6" rx="10.8" ry="3.9"/>
<rect x="289.8" y="247.9" class="st5" width="2.7" height="15.8"/>
<rect x="249.3" y="296.7" class="st5" width="84.9" height="0.9"/>
<path class="st2" d="M305.9,443.1c0.4,12.3-6.7,16.9-15.5,17.1c-0.2,0-0.4,0-0.6,0c-0.4,0-0.8,0-1.2,0c-8-0.3-14.3-4.7-14.6-16.2
	c-0.3-11.9,14-27.3,15.1-28.4l0,0c0,0,0.1-0.1,0.1-0.1S305.5,430.8,305.9,443.1z"/>
<path class="st5" d="M289.8,458.4l5.6-8.5l-5.6,9.5l0,1c-0.4,0-0.8,0-1.2,0l0.3-12.4l0-0.1l0,0l0-1.2l-6.1-9.1l6.1,8.3l0,0.2
	l0.2-9.3l-5.3-9.5l5.3,7.8l-0.1-19.4l0-0.1l0,0.1l0.4,15.3l4.8-6.2l-4.8,7.5l0.1,8.4l4.4-8.2l-4.4,9.4l0.1,4.6l6.4-11.4l-6.4,13
	L289.8,458.4z"/>
<path class="st2" d="M549.3,443.1c0.4,12.3-6.7,16.9-15.5,17.1c-0.2,0-0.4,0-0.6,0c-0.4,0-0.8,0-1.2,0c-8-0.3-14.3-4.7-14.6-16.2
	c-0.3-11.9,14-27.3,15.1-28.4l0,0c0,0,0.1-0.1,0.1-0.1S549,430.8,549.3,443.1z"/>
<path class="st5" d="M533.2,458.4l5.6-8.5l-5.6,9.5l0,1c-0.4,0-0.8,0-1.2,0l0.3-12.4l0-0.1l0,0l0-1.2l-6.1-9.1l6.1,8.3l0,0.2
	l0.2-9.3l-5.3-9.5l5.3,7.8l-0.1-19.4l0-0.1l0,0.1l0.4,15.3l4.8-6.2l-4.8,7.5l0.1,8.4l4.4-8.2l-4.4,9.4l0.1,4.6l6.4-11.4l-6.4,13
	L533.2,458.4z"/>
</svg>
