<?xml version="1.0" encoding="utf-8"?>
<!-- Generator: Adobe Illustrator 25.1.0, SVG Export Plug-In . SVG Version: 6.00 Build 0)  -->
<svg version="1.1" id="ba5bbdf1-ea7e-4527-9dc4-6b83a9019784"
	 xmlns="http://www.w3.org/2000/svg" xmlns:xlink="http://www.w3.org/1999/xlink" x="0px" y="0px" viewBox="0 0 921.2 727.9"
	 style="enable-background:new 0 0 921.2 727.9;" xml:space="preserve">
<style type="text/css">
	.st0{fill:url(#SVGID_1_);}
	.st1{fill:#FF6584;}
	.st2{fill:#FDD748;}
	.st3{fill:#3F3D56;}
	.st4{fill:#F2F2F2;}
	.st5{fill:#2F2E41;}
	.st6{opacity:0.1;enable-background:new    ;}
	.st7{fill:#A0616A;}
	.st8{fill:#575A89;}
</style>
<linearGradient id="SVGID_1_" gradientUnits="userSpaceOnUse" x1="-60.4121" y1="337.074" x2="981.5879" y2="337.074" gradientTransform="matrix(1 0 0 -1 0 730)">
	<stop  offset="5.586592e-03" style="stop-color:#8460FE"/>
	<stop  offset="1" style="stop-color:#A96AFF"/>
</linearGradient>
<rect x="-60.4" y="-34" class="st0" width="1042" height="853.9"/>
<circle class="st1" cx="338" cy="341.6" r="26.9"/>
<path class="st2" d="M504.6,372c0,52.9-31.5,71.4-70.3,71.4S364,425,364,372s70.3-120.3,70.3-120.3S504.6,319.1,504.6,372z"/>
<polygon class="st3" points="431.7,435.4 432.4,391.1 462.4,336.3 432.6,384.1 432.9,364.2 453.5,324.5 433,358.9 433,358.9 
	433.5,323.1 455.7,291.5 433.6,317.5 434,251.8 431.7,338.7 431.9,335.1 409.4,300.7 431.5,342 429.4,382 429.4,381 403.5,344.8 
	429.3,384.7 429,389.7 429,389.8 429,390.2 423.7,491.7 430.8,491.7 431.7,439.3 457.4,399.4 "/>
<path class="st3" d="M572.4,422c0,52.9-31.5,71.4-70.3,71.4S431.8,475,431.8,422s70.3-120.3,70.3-120.3S572.4,369.1,572.4,422z"/>
<polygon class="st4" points="499.5,485.4 500.3,441.1 530.2,386.3 500.4,434.1 500.7,414.2 521.3,374.5 500.8,408.9 500.8,408.9 
	501.4,373.1 523.5,341.5 501.5,367.5 501.8,301.8 499.5,388.7 499.7,385.1 477.2,350.7 499.4,392 497.3,432 497.2,431 471.3,394.8 
	497.1,434.7 496.9,439.7 496.8,439.8 496.8,440.2 491.5,541.7 498.6,541.7 499.5,489.3 525.2,449.4 "/>
<path class="st3" d="M440.2,422c0,52.9-31.5,71.4-70.3,71.4S299.6,475,299.6,422s70.3-120.3,70.3-120.3S440.2,369.1,440.2,422z"/>
<polygon class="st4" points="367.4,485.4 368.1,441.1 398,386.3 368.2,434.1 368.5,414.2 389.2,374.5 368.6,408.9 368.6,408.9 
	369.2,373.1 391.3,341.5 369.3,367.5 369.6,301.8 367.4,388.7 367.5,385.1 345.1,350.7 367.2,392 365.1,432 365,431 339.1,394.8 
	364.9,434.7 364.7,439.7 364.6,439.8 364.7,440.2 359.3,541.7 366.4,541.7 367.3,489.3 393.1,449.4 "/>
<path class="st5" d="M436.1,541.3c-80.3,0-145.3-65.1-145.3-145.3s65.1-145.3,145.3-145.3c80.3,0,145.3,65.1,145.3,145.3
	c0,38.5-15.3,75.5-42.6,102.8C511.6,526.1,474.6,541.4,436.1,541.3z M436.1,251.8c-79.5,0-144.2,64.7-144.2,144.2
	s64.7,144.2,144.2,144.2S580.3,475.5,580.3,396S515.6,251.8,436.1,251.8L436.1,251.8z"/>
<polygon class="st4" points="554.9,478.9 554.9,540.8 317.3,540.8 317.3,478.9 436.1,417 436.3,417.1 "/>
<polygon class="st6" points="554.9,478.9 554.9,540.8 436.3,540.8 436.3,417.1 "/>
<polygon class="st3" points="425.9,454.9 417,458.2 417,445 425.9,441.1 "/>
<polygon class="st3" points="327.4,492 324.4,493.1 324.4,485.1 327.4,483.8 "/>
<polygon class="st3" points="337.8,488.5 334.3,489.8 334.3,481.1 337.8,479.6 "/>
<polygon class="st3" points="349.2,484.1 345.2,485.6 345.2,476.2 349.2,474.4 "/>
<polygon class="st3" points="363.1,478.6 358.1,480.5 358.1,470.7 363.1,468.5 "/>
<polygon class="st3" points="379.9,472.2 374,474.5 374,463.8 379.9,461.2 "/>
<polygon class="st3" points="400.2,464.8 393.3,467.4 393.3,455.4 400.2,452.3 "/>
<polygon class="st3" points="327.4,508.3 324.4,509.1 324.4,500.9 327.4,500 "/>
<polygon class="st3" points="337.8,505.9 334.3,506.7 334.3,497.9 337.8,496.9 "/>
<polygon class="st3" points="349.2,502.9 345.2,503.9 345.2,494.5 349.2,493.2 "/>
<polygon class="st3" points="363.1,499.4 358.1,500.7 358.1,490.5 363.1,489 "/>
<polygon class="st3" points="379.9,495 374,496.5 374,485.6 379.9,483.7 "/>
<polygon class="st3" points="400.2,490 392.8,491.9 392.8,479.6 400.2,477.3 "/>
<polygon class="st3" points="425.9,483.6 417,485.8 417,472.2 425.9,469.4 "/>
<polygon class="st3" points="425.9,511.8 417,512.9 417,499.4 425.9,497.7 "/>
<polygon class="st3" points="327.4,524.2 324.4,524.6 324.4,516.8 327.4,516.2 "/>
<polygon class="st3" points="337.8,523.2 334.3,523.6 334.3,515.3 337.8,514.6 "/>
<polygon class="st3" points="349.2,521.7 345.2,522.2 345.2,512.8 349.2,512 "/>
<polygon class="st3" points="363.1,519.7 358.1,520.4 358.1,510.3 363.1,509.4 "/>
<polygon class="st3" points="379.9,517.7 374,518.5 374,507.4 379.9,506.2 "/>
<polygon class="st3" points="400.2,515.3 392.8,516.2 392.8,503.9 400.2,502.5 "/>
<polygon class="st3" points="545.2,492 548.2,493.1 548.2,485.1 545.2,483.8 "/>
<polygon class="st3" points="534.8,488.5 538.3,489.8 538.3,481.1 534.8,479.6 "/>
<polygon class="st3" points="523.5,484.1 527.4,485.6 527.4,476.2 523.5,474.4 "/>
<polygon class="st3" points="509.6,478.6 514.5,480.5 514.5,470.7 509.6,468.5 "/>
<polygon class="st3" points="492.8,472.2 498.7,474.5 498.7,463.8 492.8,461.2 "/>
<polygon class="st3" points="472.5,464.8 479.4,467.4 479.4,455.4 472.5,452.3 "/>
<polygon class="st3" points="545.2,508.3 548.2,509.1 548.2,500.9 545.2,500 "/>
<polygon class="st3" points="534.8,505.9 538.3,506.7 538.3,497.9 534.8,496.9 "/>
<polygon class="st3" points="523.5,502.9 527.4,503.9 527.4,494.5 523.5,493.2 "/>
<polygon class="st3" points="509.6,499.4 514.5,500.7 514.5,490.5 509.6,489 "/>
<polygon class="st3" points="492.8,495 498.7,496.5 498.7,485.6 492.8,483.7 "/>
<polygon class="st3" points="472.5,490 479.9,491.9 479.9,479.6 472.5,477.3 "/>
<polygon class="st3" points="446.7,483.6 455.6,485.8 455.6,472.2 446.7,469.4 "/>
<polygon class="st3" points="446.7,511.8 455.6,512.9 455.6,499.4 446.7,497.7 "/>
<polygon class="st3" points="545.2,524.2 548.2,524.6 548.2,516.8 545.2,516.2 "/>
<polygon class="st3" points="534.8,523.2 538.3,523.6 538.3,515.3 534.8,514.6 "/>
<polygon class="st3" points="523.5,521.7 527.4,522.2 527.4,512.8 523.5,512 "/>
<polygon class="st3" points="509.6,519.7 514.5,520.4 514.5,510.3 509.6,509.4 "/>
<polygon class="st3" points="492.8,517.7 498.7,518.5 498.7,507.4 492.8,506.2 "/>
<polygon class="st3" points="472.5,515.3 479.9,516.2 479.9,503.9 472.5,502.5 "/>
<polygon class="st3" points="455.1,458.3 446.2,455 446.2,441 455.1,444.9 "/>
<rect x="538.1" y="529.7" class="st5" width="0.7" height="11.6"/>
<rect x="546.8" y="532.9" class="st5" width="0.5" height="8.2"/>
<rect x="554.5" y="533.9" class="st5" width="0.5" height="7.2"/>
<polygon class="st3" points="517.5,526.1 517.5,541 507.9,541 498.2,541 498.2,524.2 507.9,525.1 "/>
<polygon class="st3" points="355.1,541 374.4,541 374.4,524.2 355.1,526.1 "/>
<rect x="235.6" y="540.5" class="st5" width="432.6" height="1"/>
<polygon class="st6" points="517.5,526.1 517.5,541 507.9,541 507.9,525.1 "/>
<rect x="434.1" y="527.4" class="st5" width="1" height="13.9"/>
<path class="st2" d="M440.3,522.5c0,4.9-2.6,8.9-5.7,9c-3,0.1-5.4-3.5-5.4-8.1c0-4.6,5.9-17.3,5.9-17.3S440.3,517.6,440.3,522.5z"/>
<rect x="318" y="531.8" class="st5" width="0.6" height="8.3"/>
<path class="st2" d="M321.7,528.9c0,2.9-1.5,5.3-3.4,5.4c-1.8,0.1-3.2-2.1-3.2-4.8c0-2.8,3.5-10.3,3.5-10.3S321.7,526,321.7,528.9z"
	/>
<path class="st2" d="M542.4,530.2c0,2.8-1.7,4.9-4,4.8c-2.4-0.1-4.5-2.7-4.5-5.8s4.5-10.7,4.5-10.7S542.4,527.5,542.4,530.2z"/>
<path class="st2" d="M549.9,533.2c0,2-1.2,3.5-2.8,3.4c-1.7-0.1-3.2-1.9-3.2-4.1c0-2.2,3.2-7.6,3.2-7.6S549.9,531.3,549.9,533.2z"/>
<path class="st2" d="M557.2,534.2c0,1.7-1.1,3.1-2.5,3c-1.5-0.1-2.8-1.7-2.8-3.6c0-1.9,2.8-6.7,2.8-6.7S557.2,532.5,557.2,534.2z"/>
<path class="st7" d="M560.7,265.9c0,0-4.8,14.5-2.1,17.7s-16.1-9.6-16.1-9.6l10.2-11.8L560.7,265.9z"/>
<circle class="st5" cx="549.8" cy="241.8" r="24"/>
<polygon class="st7" points="643.2,428.7 630.9,438.3 623.9,427.1 636.2,418.5 "/>
<path class="st5" d="M625.8,501.2l3.2,15.5l9.1,12.3c0,0,24.6,7.5,8,11.2c-16.6,3.7-20.3-2.7-20.3-2.7L614,527.4v13.9h-7.5
	l-1.6-19.8c0,0-1.1-5.9,3.7-12.3l1.1-9.6L625.8,501.2z"/>
<path class="st7" d="M563.7,309l4.3,24.6c0,0,45.5-4.8,48.7,4.3c3.2,9.1,4.3,11.8,4.3,11.8l-9.1,3.2l-4.3-8c-2.6-0.9-5.5-0.7-8,0.5
	c-4.3,2.1-41.8,7.5-44.4,0.5c-2.7-7-10.2-32.7-10.2-32.7l11.2-9.1L563.7,309z"/>
<path class="st6" d="M563.7,309l4.3,24.6c0,0,45.5-4.8,48.7,4.3c3.2,9.1,4.3,11.8,4.3,11.8l-9.1,3.2l-4.3-8c-2.6-0.9-5.5-0.7-8,0.5
	c-4.3,2.1-41.8,7.5-44.4,0.5c-2.7-7-10.2-32.7-10.2-32.7l11.2-9.1L563.7,309z"/>
<path class="st5" d="M588.9,380.2l3.7,12.8l9.6,49.3c0,0,1.1,36.4,2.7,40.7c1.6,4.3,1.6,4.8,0,6.4c-1.6,1.6-4.8,7,0,10.2
	c4.8,3.2,22,7,22.5,3.2c0.5-3.7,0.5-9.6,0-12.3s1.6-44.4,1.6-44.4l-6.4-63.7l-22-10.2L588.9,380.2z"/>
<path class="st6" d="M588.9,380.2l3.7,12.8l9.6,49.3c0,0,1.1,36.4,2.7,40.7c1.6,4.3,1.6,4.8,0,6.4c-1.6,1.6-4.8,7,0,10.2
	c4.8,3.2,22,7,22.5,3.2c0.5-3.7,0.5-9.6,0-12.3s1.6-44.4,1.6-44.4l-6.4-63.7l-22-10.2L588.9,380.2z"/>
<path class="st5" d="M611.9,329.9l11.8,22.5c0,0,67.5,30,61.6,42.3S646.7,430,646.7,430s-1.6,9.1-6.4,6.4s-16.6-16.6-15.5-18.2
	c1.1-1.6,4.8-5.4,6.4-4.8c1.6,0.5,20.3-13.9,20.3-13.9l-32.1-8c0,0-38.5-1.1-40.7-19.3s0-21.4,0-21.4l-2.7-5.9l22-13.4L611.9,329.9z
	"/>
<path class="st5" d="M628.5,418.8l-11.2,10.2c0,0-9.6-4.3-15.5-2.7c-5.9,1.6-16.1,2.7-16.1,2.7l1.6,9.1l13.7-2.5l-11,15.4
	c0,0,0,24.1,7,24.1c7,0,4.8-14.5,4.8-14.5l21.4-16.6c0,0,10.7-4.3,11.8-4.3S628.5,418.8,628.5,418.8z"/>
<circle class="st7" cx="558.6" cy="252" r="18.2"/>
<path class="st8" d="M540.7,266.2c0,0,8.6-2.1,11.2,0c2.7,2.1,3.2,7,7,7.5s7,0.5,7.5,1.1c0.5,0.5,12.8,15.5,12.8,15.5
	s7.5,4.3,9.1,10.2c1.6,5.9,17.7,25.7,19.8,27.8c2.1,2.1-13.9,12.8-19.3,16.6c-5.4,3.7-20.9,5.4-25.7-3.2S532.1,277.4,540.7,266.2z"
	/>
<path class="st7" d="M561,301l4.3,24.6c0,0,45.5-4.8,48.7,4.3s4.3,11.8,4.3,11.8l-9.1,3.2l-4.3-8c-2.6-0.9-5.5-0.7-8,0.5
	c-4.3,2.1-41.8,7.5-44.4,0.5c-2.7-7-10.2-32.7-10.2-32.7l11.2-9.1L561,301z"/>
<path class="st8" d="M550.8,268.4c0,0,12.9,27.2,11.8,34.7c-1.1,7.5-4.8,2.1-4.8,2.1s-4.8-7.5-7-3.2s-4.8,10.2-7,9.6
	c-2.1-0.5-13.9-40.2-7.5-43.9C542.8,264,550.8,268.4,550.8,268.4z"/>
<circle class="st5" cx="523.7" cy="210.2" r="24"/>
<path class="st5" d="M503,230.1c10.8,7.8,25.8,5.4,33.6-5.4c1.6-2.2,2.8-4.6,3.6-7.2c-1.7,13.2-13.7,22.5-26.9,20.9
	c-13.2-1.7-22.5-13.7-20.9-26.9c0.2-1.3,0.4-2.6,0.8-3.9C492.1,216.3,495.9,225,503,230.1z"/>
<circle class="st5" cx="544.8" cy="245.9" r="17.6"/>
<ellipse class="st5" cx="558.2" cy="239.2" rx="15.6" ry="12.2"/>
<ellipse class="st7" cx="558.9" cy="253.9" rx="3.5" ry="6.2"/>
<path class="st5" d="M606.6,344.6c0,0,9.5-5.4,11.2-4.1c1.8,1.4,2.5,5.6,2.5,5.6l-11,4.3l-3.2-5.9L606.6,344.6z"/>
</svg>
