<?xml version="1.0" encoding="utf-8"?>
<!-- Generator: Adobe Illustrator 25.1.0, SVG Export Plug-In . SVG Version: 6.00 Build 0)  -->
<svg version="1.1" id="a31e7729-94ce-4b70-883a-94bdaa3e886c"
	 xmlns="http://www.w3.org/2000/svg" xmlns:xlink="http://www.w3.org/1999/xlink" x="0px" y="0px" viewBox="0 0 951.6 665.1"
	 style="enable-background:new 0 0 951.6 665.1;" xml:space="preserve">
<style type="text/css">
	.st0{fill:url(#SVGID_1_);}
	.st1{fill:#2F2E41;}
	.st2{fill:#9F616A;}
	.st3{opacity:0.2;enable-background:new    ;}
	.st4{fill:#B96EFF;}
	.st5{fill:#FFB9B9;}
	.st6{fill:#3F3D56;}
	.st7{fill:#E6E6E6;}
	.st8{fill:#FFFFFF;}
</style>
<linearGradient id="SVGID_1_" gradientUnits="userSpaceOnUse" x1="-34.1259" y1="333.5" x2="986.1259" y2="333.5">
	<stop  offset="0" style="stop-color:#FA7B90"/>
	<stop  offset="1" style="stop-color:#FDD748"/>
</linearGradient>
<rect x="-34.1" y="-28.7" class="st0" width="1020.3" height="724.5"/>
<path class="st1" d="M339.1,308.2c0.3,17.7,6.9,19.6,15,17.8c9.3-2.1,16.9-8.7,20.7-17.5l2.6-6c3.6-8.4-0.3-18-8.6-21.6h0
	c-8.4-3.6-18,0.3-21.6,8.6l0,0C338.8,292.7,337.2,299.5,339.1,308.2z"/>
<path class="st2" d="M391.4,272.5l2.5-4.2c1.1-1.9,0.5-4.3-1.4-5.4c-0.3-0.2-0.5-0.3-0.8-0.4l0,0c-2.1-0.6-4.3,0.5-5,2.6
	c-0.1,0.4-0.2,0.9-0.2,1.3l0.1,4.5L375,303.1l6.4,1.3L391.4,272.5z"/>
<path class="st2" d="M329.7,351.8l-3.1,3.8c-1.4,1.7-1.1,4.2,0.6,5.6c0.2,0.2,0.5,0.4,0.8,0.5l0,0c2,0.9,4.3,0.1,5.3-1.9
	c0.2-0.4,0.3-0.8,0.4-1.3l0.5-4.5l16.2-30.1l-6.1-2.2L329.7,351.8z"/>
<path class="st1" d="M348.7,383.6l0.5,5.4l0.1,1.3l30.1-2.9c3.6-0.4,6.3-3.7,5.8-7.3c-0.1-0.7-0.3-1.3-0.5-2l-9.7-20.8l-3.3-7.2
	l-14.5-3.3c-12,9.2-1.2,19.3,12.3,29.5c0.5,0.4,1.1,0.8,1.6,1.2L348.7,383.6z"/>
<path class="st1" d="M338.6,402.4L338.6,402.4c0.7,0.1,1.5-0.2,2-0.8l9.8-11.9l-0.6-5.6l-3.4-2c-1-0.6-2.4-0.3-3,0.8
	c-0.1,0.1-0.1,0.2-0.2,0.3l-6.4,16.2c-0.4,1.1,0.1,2.4,1.2,2.8C338.2,402.3,338.4,402.3,338.6,402.4z"/>
<path class="st3" d="M347,382.5l0.6,6.7l1.6-0.2l28.5-2.7c3.6-0.4,6.3-3.7,5.8-7.3c-0.1-0.7-0.3-1.3-0.5-2l-8-18v-1.7l-3.3-7.2
	l-14.5-3.3c-12,9.2-1.2,19.3,12.3,29.5l-0.1,0.1L347,382.5z"/>
<path class="st1" d="M335.8,400.1L335.8,400.1c0.7,0.1,1.5-0.2,2-0.8l9.8-11.9l-0.6-5.6l-3.4-2c-1-0.6-2.4-0.3-3,0.8
	c-0.1,0.1-0.1,0.2-0.2,0.3l-6.4,16.2c-0.4,1.1,0.1,2.4,1.2,2.8C335.5,400.1,335.6,400.1,335.8,400.1z"/>
<path class="st1" d="M345.9,381.3l0.6,6.7l30.1-2.9c3.6-0.4,6.3-3.7,5.8-7.3c-0.1-0.7-0.3-1.3-0.5-2l-8-18v-10l-19.5-3.3
	c-12.4,9.5-0.3,20.1,14,30.7L345.9,381.3z"/>
<circle class="st2" cx="364.9" cy="294.3" r="8.4"/>
<path class="st2" d="M353.7,308.2l11.7,7.8l10-2.2l-5.6-5.6v-8.4l-8.9-0.6C360.8,302.6,358.9,305.7,353.7,308.2z"/>
<path class="st4" d="M352.1,347.3l21.8,2.8l5-23.4c2.3-6.2,1-11.7-3.3-16.6c-0.3-1.7-1.8-2.9-3.5-3l-2.1,0.1
	c0.2,7.4-5.2,5.6-13.4-0.6l-1,0.3c-2.6,0.8-4.3,3.4-3.9,6.1l0.9,6.1c0.4,2.4,1,4.8,1.8,7.1C356.5,332.8,355.7,339.9,352.1,347.3z"/>
<path class="st4" d="M342,322.2l10,3.3l4.5-16.2l-1.5-0.7c-2.6-1.2-5.7-0.1-7,2.4L342,322.2z"/>
<polygon class="st4" points="371.6,307.1 377.2,313.3 383.9,302.6 375.5,298.2 "/>
<path class="st1" d="M355.1,291.8c5.3,2,10.9,1.8,16.7,0v-6.7h-16.7V291.8z"/>
<polygon class="st1" points="616.2,406.7 610.4,409.1 571.9,356.7 544.1,410.1 536.8,408.6 558,335.1 582.5,335.1 "/>
<path class="st1" d="M623.9,418.9L623.9,418.9c-0.6,0.2-1.3,0.1-1.9-0.2l-12.2-7c-1.2-0.7-1.6-2.2-0.9-3.4c0.1-0.2,0.2-0.4,0.4-0.5
	l1.1-1.1l5.8-0.5l8.8,8.5c1,1,1,2.6,0.1,3.6C624.8,418.6,624.4,418.8,623.9,418.9z"/>
<path class="st1" d="M529.6,420.9L529.6,420.9c0.6,0.2,1.3,0.1,1.9-0.2l12.2-7c1.2-0.7,1.6-2.2,0.9-3.4c-0.1-0.2-0.2-0.4-0.4-0.5
	l-1.1-1.1l-5.8-0.5l-8.8,8.5c-1,1-1,2.6-0.1,3.6C528.7,420.5,529.1,420.8,529.6,420.9z"/>
<path class="st5" d="M541.6,258.6l-2.4,1.4l-5-8.1c-1.1-1.7-0.5-4,1.2-5c0.4-0.2,0.7-0.4,1.2-0.5l0,0c2-0.4,3.9,0.8,4.3,2.8
	c0,0.2,0.1,0.3,0.1,0.5L541.6,258.6z"/>
<path class="st5" d="M608.3,321.6l1-2.6l8.9,3.3c1.9,0.7,2.9,2.8,2.2,4.7c-0.1,0.4-0.4,0.8-0.6,1.1l0,0c-1.3,1.5-3.6,1.7-5.1,0.5
	c-0.1-0.1-0.2-0.2-0.4-0.3L608.3,321.6z"/>
<circle class="st5" cx="570.5" cy="280.2" r="7.2"/>
<polygon class="st5" points="576.8,295.6 566.7,295.6 566.7,284.6 575.3,283.6 "/>
<path class="st6" d="M584,338h-27.4c1-15.3,1.7-30.1,0-38.5l1.6-7.7c0.5-2.2,2.5-3.7,4.8-3.4l3.8,0.5c2.5,4.5,5.6,4.4,9.1,0.5h4.5
	c2.5,0,4.5,2,4.5,4.5c0,0,0,0.1,0,0.1l0,0c1.2,5.4,1.6,10.9,1.2,16.4L584,338z"/>
<polygon class="st6" points="537.8,258.6 541.6,256.7 562.3,290.8 556.6,299.5 "/>
<path class="st6" d="M608.3,323l3.3-2.8l-17.5-24.5c-3.5-4.9-9.5-7.3-15.4-6.2l-0.6,0.1l6.6,11.6l8.7,6.6L608.3,323z"/>
<path class="st1" d="M578.8,276c0,0,1.3-3-2.2-4.3c0,0-3-4.9-8.9-1.6c0,0-4,1.6-4,5.9s-1.3,5.1-1.3,5.1s2-2.1,2.5-3.7
	c0.5-1.6,4.7-2,6.3-0.4c1.6,1.6,5.7,1.3,5.7,1.3l-0.3,5.9c0,0,1.3-3.5,1.9-3.5S579.7,276,578.8,276z"/>
<ellipse class="st7" cx="578.2" cy="435.1" rx="44.1" ry="2.3"/>
<ellipse class="st7" cx="357.8" cy="435.1" rx="23.3" ry="1.2"/>
<path class="st4" d="M536.1,268.2l-141.8,12.7c-1.5,0.1-2.7-0.9-2.9-2.4l-3.2-35.2c-0.1-1.5,0.9-2.7,2.4-2.9l141.8-12.7
	c1.5-0.1,2.7,0.9,2.9,2.4l3.2,35.2C538.6,266.8,537.5,268,536.1,268.2z"/>
<circle class="st8" cx="410.8" cy="259" r="11.1"/>
<path class="st8" d="M435.6,249.4c-1,0.1-1.8,1-1.7,2c0.1,1,1,1.8,2,1.7l86.7-7.8c1-0.1,1.8-1,1.7-2c-0.1-1-1-1.8-2-1.7c0,0,0,0,0,0
	L435.6,249.4z"/>
<path class="st8" d="M436.6,260.4c-1,0.1-1.8,1-1.7,2c0.1,1,1,1.8,2,1.7c0,0,0,0,0,0l86.7-7.8c1-0.1,1.8-1,1.7-2c-0.1-1-1-1.8-2-1.7
	c0,0,0,0,0,0L436.6,260.4z"/>
</svg>
