<?xml version="1.0" encoding="utf-8"?>
<!-- Generator: Adobe Illustrator 25.1.0, SVG Export Plug-In . SVG Version: 6.00 Build 0)  -->
<svg version="1.1" id="bafbdcdd-db4a-4743-9ceb-46364dc67d6e"
	 xmlns="http://www.w3.org/2000/svg" xmlns:xlink="http://www.w3.org/1999/xlink" x="0px" y="0px" viewBox="0 0 851 746.1"
	 style="enable-background:new 0 0 851 746.1;" xml:space="preserve">
<style type="text/css">
	.st0{fill:url(#SVGID_1_);}
	.st1{fill:#3F3D56;}
	.st2{fill:#FDD748;}
	.st3{fill:#FFFFFF;}
	.st4{fill:#2F2E41;}
	.st5{fill:#9F616A;}
	.st6{opacity:0.1;enable-background:new    ;}
	.st7{fill:#D0CDE1;}
</style>
<linearGradient id="SVGID_1_" gradientUnits="userSpaceOnUse" x1="-105.7033" y1="410.6644" x2="936.3168" y2="410.6644">
	<stop  offset="5.586592e-03" style="stop-color:#8460FE"/>
	<stop  offset="1" style="stop-color:#A96AFF"/>
</linearGradient>
<rect x="-105.7" y="-16.3" class="st0" width="1042" height="853.9"/>
<ellipse class="st1" cx="442.8" cy="485.6" rx="108.9" ry="19.2"/>
<path class="st2" d="M370.3,361.1c16-23.8,9.7-56-14.1-71.9c-23.8-16-56-9.7-71.9,14.1c-16,23.8-9.7,56,14.1,71.9
	c14.1,9.5,32,11.5,47.9,5.2c2.5,8.9,11.8,14.1,20.7,11.6c8.9-2.5,14.1-11.8,11.6-20.7C377.4,366.9,374.4,363.2,370.3,361.1z"/>
<rect x="296.5" y="321.8" class="st3" width="61.7" height="4.9"/>
<rect x="296.5" y="329.9" class="st3" width="61.7" height="4.9"/>
<rect x="296.5" y="338" class="st3" width="61.7" height="4.9"/>
<path class="st2" d="M480.7,322.5c-16-23.8-9.7-56,14.1-71.9c23.8-16,56-9.7,71.9,14.1c16,23.8,9.7,56-14.1,71.9
	c-14.1,9.5-32,11.5-47.9,5.2c-2.5,8.9-11.8,14.1-20.7,11.6c-8.9-2.5-14.1-11.8-11.6-20.7C473.6,328.4,476.6,324.7,480.7,322.5z"/>
<rect x="492.9" y="283.2" class="st3" width="61.7" height="4.9"/>
<rect x="492.9" y="291.3" class="st3" width="61.7" height="4.9"/>
<rect x="492.9" y="299.4" class="st3" width="61.7" height="4.9"/>
<path class="st2" d="M390.6,464.4c-8.9-13.3-5.4-31.2,7.9-40.2c13.3-8.9,31.2-5.4,40.2,7.9c8.9,13.3,5.4,31.2-7.9,40.2
	c-7.9,5.3-17.9,6.4-26.7,2.9c-1.4,5-6.6,7.9-11.5,6.5c-5-1.4-7.9-6.6-6.5-11.5C386.7,467.7,388.4,465.6,390.6,464.4L390.6,464.4z"/>
<circle class="st3" cx="403.3" cy="447.6" r="3.3"/>
<circle class="st3" cx="414.7" cy="447.6" r="3.3"/>
<circle class="st3" cx="426.1" cy="447.6" r="3.3"/>
<path class="st4" d="M418.1,343.7c0,0,14.9,0.4,17.4,1.3c2.5,0.9,3.6,7.3,3.6,7.3l-11.6,3.6l-8.7-0.5l-6.5,0.5l3.6-9.6L418.1,343.7z
	"/>
<path class="st5" d="M418.7,338.8c0,0,1,3.8-1.2,6.5c-2.2,2.7,9.4,12.3,9.4,12.3l6.1-1c0,0-1.3-11.7,0.5-14.6
	C435.3,338.9,418.7,338.8,418.7,338.8z"/>
<path class="st6" d="M418.7,338.8c0,0,1,3.8-1.2,6.5c-2.2,2.7,9.4,12.3,9.4,12.3l6.1-1c0,0-1.3-11.7,0.5-14.6
	C435.3,338.9,418.7,338.8,418.7,338.8z"/>
<polygon class="st5" points="459.3,449.8 445.8,467.6 455,473 467.6,452.3 "/>
<path class="st4" d="M449.8,467.9c0,0-5-5.8-4.7-4.5c0.2,1.3-3.5,12.2,0,13.2c3.5,1.1,33.4,3.8,33.8,0.5c0.4-3.4-8.9-5.7-8.9-5.7
	s-5.5-5.3-6.8-4.8C461.9,467.2,449.8,467.9,449.8,467.9z"/>
<polygon class="st5" points="456.3,466.8 467,485.1 475.1,480.4 464.3,465.5 "/>
<path class="st4" d="M473.2,423.3l-3.2,4.5c0,0-15.2,21.1-13.6,22.8c1.6,1.7,8.3,8.2,11.8,6.9c3.4-1.2,15.6-22.8,15.6-22.8
	l-3.2-12.7L473.2,423.3z"/>
<path class="st4" d="M407.7,419c0,0,3.4,6.4,12,8.5s17.7,6.6,18,6.5c0.3-0.1,1.2-0.5,1.4,0.7c0.2,1.3,2.6,3.5,2.6,3.5
	s9.5,32.4,13.2,32.4s11.1-2.6,11.3-3.6S455.1,433,455,432.4l-1.3-7.7c0,0,15,2.4,16.3,2.8c1.4,0.4,13.8,7.2,13.8,7.2
	s12.6-9.1,0.8-18.3c-11.8-9.2-32.2-16-32.2-16l-7.3-2.1l-6.4-0.4l-0.9-3.6l-15.1,0.9l-15.7,6.7L407.7,419z"/>
<circle class="st5" cx="427.6" cy="334.6" r="11.7"/>
<path class="st7" d="M417,344l1.4-0.2c0,0,2.5,9.8,10.4,11.4c0,0,3.9-4.7,3.7-5.4c-0.2-0.8,3.1-5,4.8-2.6c1.7,2.3-0.4,43.7,1,44.4
	c1.4,0.7,4.6,1.5,2.1,4.3c-2.5,2.7-12.4,6.4-14.6,5.2c-2.2-1.3-6.7-12.1-8.6-15.7c-1.9-3.6-5.1-16-5.1-16s-4-13.5-1.5-16.6
	S417,344,417,344z"/>
<path class="st4" d="M428.2,394.9c-0.3,2.9-0.7,5.7-1.3,8.6c-0.6,2.3-1.2,3.7-2,3.6c-1.9-0.1-2.8,2.7-3.3,6
	c-0.5,3.5-0.5,7.5-0.8,8.9c-0.4,1.9-2.6,3.3-7.2,2.9c-2.7-0.3-5.3-1-7.9-1.9c-6.1-2.2-5.9-20.3-4.9-33.7c0.6-8.2,1.6-14.7,1.6-14.7
	s-1.9-5.5-2.5-9.3c-0.1-0.7-0.2-1.4-0.2-2.1c0.1-3.3,6.2-12.3,9.8-17.9c3.7-5.6,8.7-1.5,8.7-1.5l-1.7,5.3c0,0,2.7,4.2,2.7,8.1
	c0,4,6.5,6.8,8.8,8.7C429.5,367.1,429.4,383.2,428.2,394.9z"/>
<path class="st4" d="M433.3,345.7c0,0,0.4,0.5,2.4,0.3c2.3-0.3,5.5,0.5,6.3,2.7c1.4,4.1,5.2,20.6,5.2,20.6s1.6,18.9,2.3,23.1
	c0.7,4.2,0.4,7.9,1.1,10.1c0.7,2.2-7-4.1-9.8-3.3c-2.8,0.8-4.7-9.8-4.3-13.5c0.4-3.7,0.7-7.7-0.3-11.5c-1-3.8,0.8-13.8,0.7-16.1
	C436.7,355.7,430.5,349.9,433.3,345.7z"/>
<path class="st5" d="M441.6,404.4c0,0,12.4,6.8,13.6,16.4s-16.6-9.3-16.6-9.3L441.6,404.4z"/>
<path class="st5" d="M448.7,397.6c0,0,3.8,19.2,9.7,18.2c5.9-1-3.3-19.3-3.3-19.3L448.7,397.6z"/>
<path class="st4" d="M469,481.2c0,0-3,3.5-3.8,3c-0.8-0.5-2.5,6.7-0.9,8.1c1.6,1.4,7.6,3.7,7.6,6c0.1,2.3,16.2,1.8,16.8-0.6
	c0.6-2.4-2-7.9-3.8-8.9s-8.6-10.3-8.6-10.3S470.9,479.2,469,481.2z"/>
<path class="st6" d="M439.6,416.1c-2.9-2-10.9-2.5-18.1-3c-3.1-0.2-6.1-0.4-8.4-0.7c-2.2-0.3-4.2-2.3-5.9-5.3
	c-2.7-4.5-4.8-11.3-6.4-17.8c0.6-8.2,1.6-14.7,1.6-14.7s-1.9-5.5-2.5-9.3c0.4-0.6,1-1.1,1.6-1.4c7.6-3.2,14.8,28.7,15.7,33.7
	c0,0.1,0,0.2,0,0.2c0.4,2.6,5.3,4.8,9.6,5.7c2.7,0.5,5.1,0.6,6.3-0.1c3-1.8,12.2,5.5,12.9,5.7C446.7,409.3,443.7,419.1,439.6,416.1z
	"/>
<path class="st4" d="M401.5,361.9c0,0-5.5,2.6-3.1,14.7c2.4,12.1,7.3,32.8,14.7,33.8s22.3,0.8,26.4,3.7c4.1,2.9,7.1-6.8,6.4-7
	s-9.9-7.6-12.9-5.7c-3,1.8-15.1-1.4-15.8-5.5C416.6,391.7,409.2,358.6,401.5,361.9z"/>
<path class="st4" d="M441.2,356.1l6,14c0,0,0.6-0.3,1.3,1.9s1,4.1,2.3,5.6c1.2,1.4,6.8,22,6.9,22.9c0.2,1-7.6,4.3-9.4,1.6
	C446.7,399.4,441.2,356.1,441.2,356.1z"/>
<path class="st4" d="M420.9,334.4c0.4-0.1,0.5-0.7,0.5-1.2c0.1-2.5,1.6-5,4-5.8c0.9-0.3,1.9-0.3,2.8-0.2c1.3,0.2,2.6,0.6,3.8,1.3
	c0.6,0.3,1.2,0.8,1.9,0.9c0.5,0.1,2.5,0.7,2.9,0.7c1,0.2,2,1.1,2.9,0.8c0.9-0.3,1.1-1.5,1.2-2.5c0.1-2.3-1.7-5.4-3.2-7
	c-1.1-1.3-2.9-1.9-4.5-2.2c-2-0.3-4-0.4-5.9-0.4c-2.7,0-5.5,0.3-7.9,1.4c-2.4,1.2-4.5,3.5-4.6,6.2c0,0.6,0,1.1,0,1.7
	c-0.1,1.4-0.8,2.6-1.2,3.9c-0.5,2-0.1,4.1,1,5.7c0.9,1.3,2.3,2.5,2.3,4.1l2-2c0.6-0.5,0.8-1.3,0.5-2l-0.7-2.7
	c-0.2-0.5-0.2-1-0.1-1.5C419.4,331.9,420.2,334.6,420.9,334.4z"/>
<path class="st1" d="M509.7,469.4c-0.1-0.1-2-3.3-2.7-9.9c-0.6-6.1-0.2-16.3,5.1-30.6c10.1-27.1-2.3-48.9-2.4-49.1l0.6-0.4
	c0,0.1,3.2,5.6,5.1,14.5c2.5,11.7,1.6,24-2.6,35.2c-10,27-2.6,39.8-2.5,39.9L509.7,469.4z"/>
<circle class="st2" cx="505.8" cy="373.5" r="4.6"/>
<circle class="st1" cx="520.2" cy="390.5" r="4.6"/>
<circle class="st2" cx="510.4" cy="401.8" r="4.6"/>
<circle class="st2" cx="522.4" cy="411.3" r="4.6"/>
<circle class="st1" cx="506.8" cy="426.1" r="4.6"/>
<path class="st1" d="M512.5,469.5c0,0-4.6-11.3,9.2-19.8L512.5,469.5z"/>
<path class="st1" d="M506.8,469.3c0,0-2.1-12-18.2-11.9L506.8,469.3z"/>
</svg>
