<?xml version="1.0" encoding="utf-8"?>
<!-- Generator: Adobe Illustrator 25.1.0, SVG Export Plug-In . SVG Version: 6.00 Build 0)  -->
<svg version="1.1" id="e07c9319-842b-449a-9f57-029d5804b779"
	 xmlns="http://www.w3.org/2000/svg" xmlns:xlink="http://www.w3.org/1999/xlink" x="0px" y="0px" viewBox="0 0 1168.8 684.5"
	 style="enable-background:new 0 0 1168.8 684.5;" xml:space="preserve">
<style type="text/css">
	.st0{fill:url(#SVGID_1_);}
	.st1{fill:#3F3D56;}
	.st2{fill:#F2F2F2;}
	.st3{opacity:0.1;enable-background:new    ;}
	.st4{fill:#FDD748;}
	.st5{fill:#FFFFFF;}
	.st6{fill:#D0CDE1;}
	.st7{fill:#FFB9B9;}
	.st8{fill:#2F2E41;}
</style>
<linearGradient id="SVGID_1_" gradientUnits="userSpaceOnUse" x1="-42.9751" y1="355.4293" x2="1257.7323" y2="355.4293" gradientTransform="matrix(1 0 0 -1 0 686)">
	<stop  offset="5.586592e-03" style="stop-color:#8460FE"/>
	<stop  offset="1" style="stop-color:#A96AFF"/>
</linearGradient>
<rect x="-43" y="-31.7" class="st0" width="1300.7" height="724.5"/>
<path class="st1" d="M818.7,298c-36.3,0-65.7-29.4-65.7-65.7s29.4-65.7,65.7-65.7s65.7,29.4,65.7,65.7
	C884.3,268.5,854.9,297.9,818.7,298z M818.7,167.6c-35.7,0-64.7,29-64.7,64.7s29,64.7,64.7,64.7s64.7-29,64.7-64.7
	C883.3,196.6,854.4,167.6,818.7,167.6z"/>
<circle class="st2" cx="818.9" cy="232.5" r="33"/>
<rect x="317.4" y="232.5" class="st1" width="503.7" height="253.1"/>
<rect x="458.9" y="305.7" class="st3" width="188.9" height="129.5"/>
<circle class="st4" cx="864" cy="186.1" r="13.3"/>
<circle class="st4" cx="332.3" cy="242.1" r="6"/>
<circle class="st4" cx="350.9" cy="242.1" r="6"/>
<circle class="st4" cx="369.5" cy="242.1" r="6"/>
<rect x="375.5" y="326.7" class="st4" width="12" height="12"/>
<rect x="740.7" y="431" class="st5" width="12" height="12"/>
<rect x="703.5" y="350.1" transform="matrix(0.7774 -0.629 0.629 0.7774 -66.022 525.5553)" class="st4" width="12" height="12"/>
<polygon class="st1" points="668.2,510.8 291.6,510.8 291.6,308.1 292.8,308.1 292.8,509.6 668.2,509.6 "/>
<path class="st1" d="M675.3,518c-4.3,0-7.8-3.5-7.8-7.8c0-4.3,3.5-7.8,7.8-7.8s7.8,3.5,7.8,7.8l0,0C683.1,514.5,679.6,518,675.3,518
	z M675.3,503.6c-3.6,0-6.6,3-6.6,6.6c0,3.6,3,6.6,6.6,6.6s6.6-3,6.6-6.6C681.9,506.5,679,503.6,675.3,503.6L675.3,503.6z"/>
<path class="st1" d="M292.2,308.7c-4.3,0-7.8-3.5-7.8-7.8c0-4.3,3.5-7.8,7.8-7.8s7.8,3.5,7.8,7.8l0,0
	C300,305.2,296.5,308.7,292.2,308.7z M292.2,294.3c-3.6,0-6.6,3-6.6,6.6s3,6.6,6.6,6.6s6.6-3,6.6-6.6l0,0
	C298.8,297.2,295.8,294.3,292.2,294.3z"/>
<path class="st2" d="M404.9,470.6l-5.4,15h-12v-15.3c0.9-19.2,11.7-28.2,12-28.5c-8.1,7.8-7.2,34.8-7.2,34.8
	c5.4-23.4,10.2-24,10.2-24c-2.9,4.4-4.4,24.2-4.5,25.4C398.4,473.9,404.9,470.6,404.9,470.6z"/>
<path class="st2" d="M777.3,472.6v13H768l-4.5-12.7c0,0,5.2,2.6,5.5,5.9c-0.1-1-1.3-16.7-3.6-20.2c0,0,3.8,0.5,8.1,19
	c0,0,0.7-21.4-5.7-27.6C768.1,450.3,776.6,457.4,777.3,472.6z"/>
<path class="st6" d="M615.4,435.2h-14.6l-0.1-1.2l-1.1-13.3v0l-1.1-13.9l6.7-28.6l5.7,5.7v27.2c0,0,3.4,5,2.7,6.4
	c-0.7,1.3-1.3,1.3-0.7,2.4c0.7,1,1.3,1.7,0.7,2.4c-0.7,0.9-0.7,2.1,0,3c0.7,0.7,2,1.7,1,2.7c-1,1-2.4,0.3-1,4c0.2,0.7,0.6,1.3,0.9,2
	C614.8,434.4,615.1,434.8,615.4,435.2z"/>
<polygon class="st7" points="570.4,343.1 568.4,363.3 588.9,366.3 590.4,354.7 591.9,343.1 "/>
<polygon class="st3" points="570.4,343.1 568.4,363.3 588.9,366.3 590.4,354.7 591.9,343.1 "/>
<circle class="st7" cx="581.7" cy="333.5" r="16.1"/>
<path class="st6" d="M540.9,435.2c-0.1-0.1-0.1-0.2-0.2-0.4c-0.1-0.3-0.2-0.5-0.4-0.8c-0.9-2-2-4.8-1.4-5.7c1-1.3,1.3-2.7,0.7-3.4
	s-2.7,0.7-0.7-1c2-1.7,2.7-0.7,2-2.7c-0.7-2-2-1-0.7-2c1.3-1,2.4-0.7,1.7-1.7c-0.7-1-2-1-0.7-1.7c1.3-0.7,2.4,0,2-1.7
	c-0.3-1.7-0.7-1,0-1.7c0.2-0.2,0.8-1.9,1.6-4.3c2.3-6.8,6.1-19.4,6.1-19.9c0-0.7-5.4-21.9-5.4-21.9l-2.4-1.4c0,0-10.4,7.1-13.8,22.9
	c-3.4,15.8-5.7,19.8-5.7,19.8s-3.4,0.7-1,3c2.4,2.4,2.4,2,0.3,3.4c-2,1.3-3.4-1.3-2,1.3c1.3,2.7,3,2,1.7,3.7c-1.3,1.7-3.7,1.7-2.4,3
	s-1.3,4.4,0.3,5.7c1.7,1.3,2.4,1.7,2.4,4c0,0.7,0.1,1.3,0.2,2c0.1,0.4,0.1,0.8,0.2,1.2c0.1,0.3,0.2,0.5,0.2,0.7L540.9,435.2z"/>
<polygon class="st1" points="540.9,435.2 542.3,435.2 542.3,434.7 540.7,434.8 534.8,435.2 523.8,435.9 "/>
<path class="st6" d="M548,420.9l-3-10.4l-0.1-2.3l-1.6-43.1l19.8-7.1l3.4-2.7c0,0,0.7-7.7,1.7-8.4c0.4-0.2,0.9,0,1.7,0.7
	c1.4,1.2,3.3,3.5,5.7,6c3.7,4,11.4,3.4,13.8,2c0.3-0.2,0.6-0.3,0.9-0.5c1.7-0.7,2.4-0.2,2.4-0.2c1.7,1.3-2.4,5.7-2.4,5.7
	s1.3,3,10.1,6.1c8.7,3,10.4,17.2,10.4,17.2s-10.4,28.3-10.1,30.3c0.3,1.7-0.9,5.4-1.3,6.5v0c-0.1,0.2-0.1,0.3-0.1,0.3l0.8,13.1
	l0.1,1.2h-50.9c-0.2-0.4-0.3-0.8-0.6-1.2c-0.1-0.1-0.1-0.2-0.2-0.3C545.7,429,548,420.9,548,420.9z"/>
<path class="st8" d="M565.4,335.6c0,0-1.7-2.5-1-5.2c0.4-1.5,0.5-3.1,0.5-4.7c0,0,1.4-4.4,2.7-6.8c1.4-2.5,0.7-3.5,5-4.3
	s2.5-6.3,13.7-0.3c0.8,1.1,2.1,1.6,3.4,1.3c2.3-0.5,3.2,2.8,3.2,2.8s1.5-0.9,2.1,0.4c0.6,1.3,4.7-0.8,4.7,7.9
	c0,8.7-4.7,16.5-4.7,16.5s0.3-14.6-7.3-16.1c-7.7-1.5-15.9-5.8-17.9-0.3C568.6,329.8,567.2,332.8,565.4,335.6z"/>
<ellipse class="st7" cx="595.1" cy="337" rx="1.5" ry="2"/>
<path class="st5" d="M458.9,296.1v139.1h220.7V296.1H458.9z M678.3,434H460.1V297.3h218.3V434z"/>
</svg>
