<?xml version="1.0" encoding="utf-8"?>
<!-- Generator: Adobe Illustrator 25.1.0, SVG Export Plug-In . SVG Version: 6.00 Build 0)  -->
<svg version="1.1" id="beee3da8-7262-4ec9-9c48-b995a89b9850"
	 xmlns="http://www.w3.org/2000/svg" xmlns:xlink="http://www.w3.org/1999/xlink" x="0px" y="0px" viewBox="0 0 928.8 735.6"
	 style="enable-background:new 0 0 928.8 735.6;" xml:space="preserve">
<style type="text/css">
	.st0{fill:url(#SVGID_1_);}
	.st1{fill:url(#SVGID_2_);}
	.st2{fill:#F5F5F5;}
	.st3{fill:#FFFFFF;}
	.st4{fill:url(#SVGID_3_);}
	.st5{fill:url(#SVGID_4_);}
	.st6{fill:url(#SVGID_5_);}
	.st7{fill:#FF5252;}
	.st8{fill:#FFFF00;}
	.st9{fill:#69F0AE;}
	.st10{fill:url(#SVGID_6_);}
	.st11{fill:#B96EFF;}
	.st12{fill:none;stroke:#FFFFFF;stroke-linecap:round;stroke-linejoin:round;stroke-dasharray:0,4;}
	.st13{fill:none;stroke:#FFFFFF;stroke-linecap:round;stroke-linejoin:round;}
	.st14{opacity:0.3;fill:none;stroke:#FFFFFF;stroke-linecap:round;stroke-linejoin:round;enable-background:new    ;}
	.st15{opacity:0.2;fill:#FFFFFF;enable-background:new    ;}
	.st16{opacity:0.5;fill:#FFFFFF;enable-background:new    ;}
	.st17{fill:url(#SVGID_7_);}
	.st18{fill:url(#SVGID_8_);}
	.st19{fill:url(#SVGID_9_);}
	.st20{fill:url(#SVGID_10_);}
	.st21{fill:url(#SVGID_11_);}
	.st22{opacity:0.2;enable-background:new    ;}
	.st23{fill:url(#SVGID_12_);}
	.st24{fill:url(#SVGID_13_);}
	.st25{fill:url(#SVGID_14_);}
	.st26{fill:url(#SVGID_15_);}
	.st27{fill:#E0E0E0;}
	.st28{fill:#2F2E41;}
	.st29{fill:#9F616A;}
	.st30{fill:#575A88;}
</style>
<linearGradient id="SVGID_1_" gradientUnits="userSpaceOnUse" x1="-59.1798" y1="378.3687" x2="987.9462" y2="378.3687">
	<stop  offset="0" style="stop-color:#FA7B90"/>
	<stop  offset="1" style="stop-color:#FDD748"/>
</linearGradient>
<rect x="-59.2" y="-9" class="st0" width="1047.1" height="774.7"/>
<linearGradient id="SVGID_2_" gradientUnits="userSpaceOnUse" x1="425.9089" y1="359.0192" x2="425.9089" y2="488.9895" gradientTransform="matrix(1 0 0 -1 0 738)">
	<stop  offset="0" style="stop-color:#808080;stop-opacity:0.25"/>
	<stop  offset="0.5351" style="stop-color:#808080;stop-opacity:0.12"/>
	<stop  offset="1" style="stop-color:#808080;stop-opacity:0.1"/>
</linearGradient>
<rect x="314.4" y="249" class="st1" width="223.1" height="130"/>
<rect x="317.4" y="251.2" class="st2" width="217.5" height="6.6"/>
<rect x="317.4" y="257.8" class="st3" width="217.5" height="117.7"/>
<linearGradient id="SVGID_3_" gradientUnits="userSpaceOnUse" x1="322.3615" y1="481.7404" x2="322.3615" y2="485.5151" gradientTransform="matrix(1 0 0 -1 0 738)">
	<stop  offset="0" style="stop-color:#808080;stop-opacity:0.25"/>
	<stop  offset="0.5351" style="stop-color:#808080;stop-opacity:0.12"/>
	<stop  offset="1" style="stop-color:#808080;stop-opacity:0.1"/>
</linearGradient>
<circle class="st4" cx="322.4" cy="254.4" r="1.9"/>
<linearGradient id="SVGID_4_" gradientUnits="userSpaceOnUse" x1="326.651" y1="481.7404" x2="326.651" y2="485.5151" gradientTransform="matrix(1 0 0 -1 0 738)">
	<stop  offset="0" style="stop-color:#808080;stop-opacity:0.25"/>
	<stop  offset="0.5351" style="stop-color:#808080;stop-opacity:0.12"/>
	<stop  offset="1" style="stop-color:#808080;stop-opacity:0.1"/>
</linearGradient>
<circle class="st5" cx="326.7" cy="254.4" r="1.9"/>
<linearGradient id="SVGID_5_" gradientUnits="userSpaceOnUse" x1="330.9405" y1="481.7404" x2="330.9405" y2="485.5151" gradientTransform="matrix(1 0 0 -1 0 738)">
	<stop  offset="0" style="stop-color:#808080;stop-opacity:0.25"/>
	<stop  offset="0.5351" style="stop-color:#808080;stop-opacity:0.12"/>
	<stop  offset="1" style="stop-color:#808080;stop-opacity:0.1"/>
</linearGradient>
<circle class="st6" cx="330.9" cy="254.4" r="1.9"/>
<circle class="st7" cx="322.4" cy="254.4" r="1.5"/>
<circle class="st8" cx="326.6" cy="254.4" r="1.5"/>
<circle class="st9" cx="330.9" cy="254.4" r="1.5"/>
<linearGradient id="SVGID_6_" gradientUnits="userSpaceOnUse" x1="428.2568" y1="407.6088" x2="428.2568" y2="470.9228" gradientTransform="matrix(1 0 0 -1 0 738)">
	<stop  offset="0" style="stop-color:#808080;stop-opacity:0.25"/>
	<stop  offset="0.5351" style="stop-color:#808080;stop-opacity:0.12"/>
	<stop  offset="1" style="stop-color:#808080;stop-opacity:0.1"/>
</linearGradient>
<rect x="364.3" y="267.1" class="st10" width="128" height="63.3"/>
<rect x="365.6" y="268.4" class="st11" width="125.3" height="60"/>
<line class="st12" x1="372.3" y1="276.4" x2="372.3" y2="319.7"/>
<line class="st13" x1="371.9" y1="322.7" x2="482.6" y2="322.7"/>
<line class="st14" x1="384.6" y1="278.7" x2="470.6" y2="278.7"/>
<line class="st14" x1="384.6" y1="288.7" x2="470.6" y2="288.7"/>
<line class="st14" x1="384.6" y1="298.7" x2="470.6" y2="298.7"/>
<line class="st14" x1="384.6" y1="308.7" x2="470.6" y2="308.7"/>
<path class="st15" d="M390.3,322.7v-24c0,0-2-10.3,18.3-10c18.5-2.6,18.5-10.3,18.5-10.3s17-1.8,17.9,16.2c0.1,3,1.6,5.8,4.1,7.6
	c7,4.9,13.1-4.9,15.9-13.6v34H390.3z"/>
<circle class="st11" cx="406.9" cy="288.4" r="2.7"/>
<circle class="st16" cx="406.9" cy="288.4" r="2.7"/>
<linearGradient id="SVGID_7_" gradientUnits="userSpaceOnUse" x1="390.2683" y1="435.6002" x2="390.2683" y2="442.2649" gradientTransform="matrix(1 0 0 -1 0 738)">
	<stop  offset="0" style="stop-color:#808080;stop-opacity:0.25"/>
	<stop  offset="0.5351" style="stop-color:#808080;stop-opacity:0.12"/>
	<stop  offset="1" style="stop-color:#808080;stop-opacity:0.1"/>
</linearGradient>
<circle class="st17" cx="390.3" cy="299.1" r="3.3"/>
<linearGradient id="SVGID_8_" gradientUnits="userSpaceOnUse" x1="406.9299" y1="446.2636" x2="406.9299" y2="452.9283" gradientTransform="matrix(1 0 0 -1 0 738)">
	<stop  offset="0" style="stop-color:#808080;stop-opacity:0.25"/>
	<stop  offset="0.5351" style="stop-color:#808080;stop-opacity:0.12"/>
	<stop  offset="1" style="stop-color:#808080;stop-opacity:0.1"/>
</linearGradient>
<circle class="st18" cx="406.9" cy="288.4" r="3.3"/>
<linearGradient id="SVGID_9_" gradientUnits="userSpaceOnUse" x1="427.1929" y1="455.6736" x2="427.1929" y2="462.3383" gradientTransform="matrix(1 0 0 -1 0 738)">
	<stop  offset="0" style="stop-color:#808080;stop-opacity:0.25"/>
	<stop  offset="0.5351" style="stop-color:#808080;stop-opacity:0.12"/>
	<stop  offset="1" style="stop-color:#808080;stop-opacity:0.1"/>
</linearGradient>
<circle class="st19" cx="427.2" cy="279" r="3.3"/>
<linearGradient id="SVGID_10_" gradientUnits="userSpaceOnUse" x1="445.5848" y1="435.6002" x2="445.5848" y2="442.2649" gradientTransform="matrix(1 0 0 -1 0 738)">
	<stop  offset="0" style="stop-color:#808080;stop-opacity:0.25"/>
	<stop  offset="0.5351" style="stop-color:#808080;stop-opacity:0.12"/>
	<stop  offset="1" style="stop-color:#808080;stop-opacity:0.1"/>
</linearGradient>
<circle class="st20" cx="445.6" cy="299.1" r="3.3"/>
<linearGradient id="SVGID_11_" gradientUnits="userSpaceOnUse" x1="464.9123" y1="444.9307" x2="464.9123" y2="451.5954" gradientTransform="matrix(1 0 0 -1 0 738)">
	<stop  offset="0" style="stop-color:#808080;stop-opacity:0.25"/>
	<stop  offset="0.5351" style="stop-color:#808080;stop-opacity:0.12"/>
	<stop  offset="1" style="stop-color:#808080;stop-opacity:0.1"/>
</linearGradient>
<circle class="st21" cx="464.9" cy="289.7" r="3.3"/>
<circle class="st11" cx="390.3" cy="299.1" r="2.7"/>
<circle class="st22" cx="390.3" cy="299.1" r="2.7"/>
<circle class="st11" cx="427.2" cy="279" r="2.7"/>
<circle class="st22" cx="427.2" cy="279" r="2.7"/>
<circle class="st11" cx="445.6" cy="299.1" r="2.7"/>
<circle class="st16" cx="445.6" cy="299.1" r="2.7"/>
<circle class="st11" cx="464.9" cy="289.7" r="2.7"/>
<circle class="st22" cx="464.9" cy="289.7" r="2.7"/>
<linearGradient id="SVGID_12_" gradientUnits="userSpaceOnUse" x1="428.2568" y1="396.123" x2="428.2568" y2="400.2318" gradientTransform="matrix(1 0 0 -1 0 738)">
	<stop  offset="0" style="stop-color:#808080;stop-opacity:0.25"/>
	<stop  offset="0.5351" style="stop-color:#808080;stop-opacity:0.12"/>
	<stop  offset="1" style="stop-color:#808080;stop-opacity:0.1"/>
</linearGradient>
<rect x="364.9" y="337.8" class="st23" width="126.8" height="4.1"/>
<linearGradient id="SVGID_13_" gradientUnits="userSpaceOnUse" x1="428.2568" y1="390.2532" x2="428.2568" y2="394.362" gradientTransform="matrix(1 0 0 -1 0 738)">
	<stop  offset="0" style="stop-color:#808080;stop-opacity:0.25"/>
	<stop  offset="0.5351" style="stop-color:#808080;stop-opacity:0.12"/>
	<stop  offset="1" style="stop-color:#808080;stop-opacity:0.1"/>
</linearGradient>
<rect x="364.9" y="343.6" class="st24" width="126.8" height="4.1"/>
<linearGradient id="SVGID_14_" gradientUnits="userSpaceOnUse" x1="428.2568" y1="384.3834" x2="428.2568" y2="388.4922" gradientTransform="matrix(1 0 0 -1 0 738)">
	<stop  offset="0" style="stop-color:#808080;stop-opacity:0.25"/>
	<stop  offset="0.5351" style="stop-color:#808080;stop-opacity:0.12"/>
	<stop  offset="1" style="stop-color:#808080;stop-opacity:0.1"/>
</linearGradient>
<rect x="364.9" y="349.5" class="st25" width="126.8" height="4.1"/>
<linearGradient id="SVGID_15_" gradientUnits="userSpaceOnUse" x1="428.2568" y1="378.5136" x2="428.2568" y2="382.6225" gradientTransform="matrix(1 0 0 -1 0 738)">
	<stop  offset="0" style="stop-color:#808080;stop-opacity:0.25"/>
	<stop  offset="0.5351" style="stop-color:#808080;stop-opacity:0.12"/>
	<stop  offset="1" style="stop-color:#808080;stop-opacity:0.1"/>
</linearGradient>
<rect x="364.9" y="355.4" class="st26" width="126.8" height="4.1"/>
<rect x="365.5" y="338.4" class="st27" width="125.6" height="2.9"/>
<rect x="365.5" y="344.2" class="st27" width="125.6" height="2.9"/>
<rect x="365.5" y="350.1" class="st27" width="125.6" height="2.9"/>
<rect x="365.5" y="356" class="st27" width="125.6" height="2.9"/>
<path class="st28" d="M559.3,263c0,0,0.6,2.1-3,4c-3.6,1.9-4.7,9.1-0.4,11.3c4.3,2.1,5.5,4.9,3.4,6.8c-2.1,1.9-6,7-0.9,8.3
	c5.1,1.3,5.7,3.8,4.3,4.9s3.4-1.9,3.4-1.9s0.9,5.1,5.3,3.8s17-25.5,10.6-28.9C575.6,267.9,559.3,263,559.3,263z"/>
<polygon class="st29" points="575.8,443.3 574.4,456.2 580.4,459.9 585.9,459 583.1,443.3 "/>
<circle class="st29" cx="571.1" cy="275.5" r="12.9"/>
<path class="st29" d="M566.8,281.8c0,0-1.2,19.6-2.5,19.6s16.1-0.9,16.1-0.9s-7.4-12.9-3.7-17.1
	C580.4,279.2,566.8,281.8,566.8,281.8z"/>
<polygon class="st28" points="585.9,385.2 579.9,408.3 584.5,447.5 573.9,446.5 569.8,385.2 "/>
<polygon class="st22" points="585.9,385.2 579.9,408.3 584.5,447.5 573.9,446.5 569.8,385.2 "/>
<path class="st28" d="M576.7,453.9c0,0-0.5-2.8-5.1,0c-4.6,2.8-24,11.5-13.8,13.4c10.1,1.8,30.9-2.3,30.9-3.7
	c0-1.4,0.5-10.1-1.4-9.2C585.4,455.3,579.4,461.3,576.7,453.9z"/>
<path class="st29" d="M582.7,450.7c0,0,7.4,11.5,7.8,14.7c0.5,3.2,7.4-7.4,7.4-7.4l-6.5-12L582.7,450.7z"/>
<path class="st28" d="M558.2,387.1l8.3,27.7c0,0,14.7,39.2,15.7,38.7c0.9-0.5,12-3.2,12.4-4.6c0.5-1.4-13.8-38.7-13.8-38.7l-1.8-24
	L558.2,387.1z"/>
<path class="st28" d="M599.3,456.2c-2.6-0.2-5,1.3-6,3.7c-1.8,4.1-4.1,4.6-4.6,5.1c-0.5,0.5,1.4,10.1,0,11.1s-2.8,10.6,1.8,10.6
	s12-5.1,11.5-6c-0.5-0.9-0.5-7.4,0.9-10.1s3.7-7.4,0-10.1S599.3,456.2,599.3,456.2z"/>
<path class="st11" d="M555.5,344.2l-0.9,8.3c0,0-6.9,6.9-9.2,15.2c-2.3,8.3-21.2,22.1-15.7,24c5.5,1.8,12,2.8,28.1,0
	c16.1-2.8,41.5,3.2,41.5-12c0,0,3.2-4.1,5.5,1.8c1.6,4.1,3.5,8.1,5.5,12c0,0,5.5-9.7,3.7-13.8c-1.8-4.1,0-3.7-2.3-8.3
	c-2.3-4.6-13.8-21.7-18.4-22.6c-4.6-0.9-13.4-12.9-12.9-14.3C580.8,333.1,555.5,344.2,555.5,344.2z"/>
<path class="st30" d="M580.4,292.6c0,0-18.9,4.1-19.8,6.9c-0.5,1.6-2.9,4.4-4.9,6.6c-3.4,3.7-5.7,8.3-6.5,13.2
	c-0.5,2.9,1.5,5.6,2.5,9c2.8,10.1,4.8,7.6,2.1,15s13.8,10.1,20.3,6.9c6.5-3.2,13.6-22.4,13.6-24.7s6.2-28.3,1.2-30.2
	C583.6,293.5,580.4,292.6,580.4,292.6z"/>
<path class="st29" d="M554.1,314.7l-5.5,24.4l-18.2,8.1c0,0-13.8-3.2-14.3,1.8c-0.3,3.3,15.7,4.6,15.7,4.6l26.5-10.4l6-22.6
	L554.1,314.7z"/>
<path class="st30" d="M560.5,305.5c0,0-11.5,6.9-8.8,10.6c2.8,3.7,9.7,9.7,11.5,9.7s3.2-11.1,3.2-14.3S560.5,305.5,560.5,305.5z"/>
<path class="st28" d="M572.1,258.8c0,0,0.7,2.4-3.3,4.5c-4,2.1-5.2,10.1-0.5,12.5c4.7,2.4,6.1,5.4,3.8,7.5s-6.6,7.8-0.9,9.2
	c5.7,1.4,6.4,4.2,4.7,5.4c-1.6,1.2,3.8-2.1,3.8-2.1s0.9,5.7,5.9,4.2c4.9-1.4,9.9-27.1,4.4-33.7C584.7,260.1,572.1,258.8,572.1,258.8
	z"/>
<path class="st28" d="M570.6,256.4c0-3.5,10.3-1,14.8,3.8c3.1,3.3,7.7,8.4,3.8,11.9c-3.9,3.5,6.7,8.2,9.5,9.6
	c2.8,1.4,8.4,5.7,3.4,8.6s-5,5.8-3.1,6.5s-4.2-1-4.2-1s0.6,5.7-4.5,5.7s-19.9-28.3-16.4-36.2C577.1,257.9,570.6,256.4,570.6,256.4z"
	/>
<path class="st28" d="M572.8,255.6c-13.8-0.8-15.2,9.6-15.2,9.6c0.1,6,9.6,3.1,12.3,4c3.2-2.3,9.4-6.7,13.8-9.8
	C580.5,257.1,576.7,255.8,572.8,255.6z"/>
</svg>
