<?xml version="1.0" encoding="utf-8"?>
<!-- Generator: Adobe Illustrator 25.1.0, SVG Export Plug-In . SVG Version: 6.00 Build 0)  -->
<svg version="1.1" id="b6c881ec-80a2-4aeb-a87c-bea63cd39014"
	 xmlns="http://www.w3.org/2000/svg" xmlns:xlink="http://www.w3.org/1999/xlink" x="0px" y="0px" viewBox="0 0 888 460.5"
	 style="enable-background:new 0 0 888 460.5;" xml:space="preserve">
<style type="text/css">
	.st0{fill:url(#SVGID_1_);}
	.st1{fill:#E2E2E2;}
	.st2{fill:#FDD748;}
	.st3{fill:#3F3D56;}
	.st4{fill:#FFFFFF;}
</style>
<linearGradient id="SVGID_1_" gradientUnits="userSpaceOnUse" x1="-66.1259" y1="230.5" x2="954.1259" y2="230.5">
	<stop  offset="5.586592e-03" style="stop-color:#8460FE"/>
	<stop  offset="1" style="stop-color:#A96AFF"/>
</linearGradient>
<rect x="-66.1" y="-131.7" class="st0" width="1020.3" height="724.5"/>
<path class="st1" d="M327.3,343l-11.1-17.6l11.1,19.5l0,2c0.8,0,1.6,0,2.3-0.1l-0.9-25.7l0-0.2l0,0l-0.1-2.4l11.6-19.3l-11.6,17.5
	l0,0.5l-0.7-19.5l10-19.9l-10,16.5l-0.5-40.3l0-0.1l0,0.1l-0.2,31.8l-9.5-12.7l9.5,15.5l0,17.4l-8.8-16.8l8.8,19.4l0,9.7l-12.8-23.4
	l12.8,26.8L327.3,343z"/>
<path class="st1" d="M422.4,343l-11.1-17.6l11.1,19.5l0,2c0.8,0,1.6,0,2.3-0.1l-0.9-25.7l0-0.2l0,0l-0.1-2.4l11.6-19.3l-11.6,17.5
	l0,0.5l-0.7-19.5l10-19.9l-10,16.5l-0.5-40.3l0-0.1l0,0.1l-0.2,31.8l-9.5-12.7l9.5,15.5l0,17.4l-8.8-16.8l8.8,19.4l0,9.7l-12.8-23.4
	l12.8,26.8L422.4,343z"/>
<path class="st1" d="M232.1,344.1l-8-12.7l8,14.1l0,1.4c0.6,0,1.1,0,1.7-0.1l-0.7-18.6l0-0.1l0,0l-0.1-1.8l8.4-13.9l-8.4,12.6l0,0.4
	l-0.5-14l7.2-14.4l-7.3,11.9l-0.3-29.1l0-0.1l0,0.1l-0.2,23l-6.9-9.2l6.9,11.2l0,12.6l-6.4-12.1l6.4,14l0,7l-9.3-16.9l9.3,19.3
	L232.1,344.1z"/>
<path class="st1" d="M653.8,343l-11.1-17.6l11.1,19.5l0,2c0.8,0,1.6,0,2.3-0.1l-0.9-25.7l0-0.2l0,0l-0.1-2.4l11.6-19.3l-11.6,17.5
	l0,0.5l-0.7-19.5l10-19.9l-10,16.5l-0.5-40.3l0-0.1l0,0.1l-0.2,31.8l-9.5-12.7l9.5,15.5l0,17.4l-8.8-16.8l8.8,19.4l0,9.7l-12.8-23.4
	l12.8,26.8L653.8,343z"/>
<rect x="353.1" y="313.9" class="st2" width="59.8" height="2.5"/>
<rect x="350.1" y="311.4" class="st2" width="59.8" height="2.5"/>
<rect x="353.7" y="308.8" class="st2" width="59.8" height="2.5"/>
<rect x="359.7" y="306.3" class="st2" width="59.8" height="2.5"/>
<rect x="308.9" y="295.1" class="st3" width="2.1" height="14.7"/>
<rect x="306.2" y="279.2" transform="matrix(0.9266 -0.3761 0.3761 0.9266 -79.8855 151.3253)" class="st3" width="82.9" height="2.1"/>
<rect x="270.4" y="324.8" class="st3" width="18.1" height="7.1"/>
<rect x="272.1" y="331" class="st3" width="89.1" height="7.9"/>
<polygon class="st1" points="286.7,335 308.1,335 308.1,308.1 292.1,308.1 286.7,321.6 "/>
<rect x="295.7" y="309.7" class="st4" width="9.1" height="9.1"/>
<polygon class="st4" points="288.8,319 294.6,319 294.6,309.8 292.1,309.8 "/>
<rect x="302.3" y="324.1" class="st3" width="2.1" height="3.9"/>
<path class="st3" d="M292.9,319.6h-0.1c-1.1,0-2-0.9-2-2l0,0c0-1.1,0.9-2,2-2h0.1l0,0V319.6L292.9,319.6z"/>
<path class="st3" d="M370.1,335H370c-1.1,0-2-0.9-2-2l0,0c0-1.1,0.9-2,2-2h0.1l0,0V335L370.1,335z"/>
<path class="st1" d="M278.4,331c-3.1,0-6.1,1.5-8,4h-4.1l3.9-11l18.4-3.6l-0.5,14.6h-1.8C284.5,332.5,281.6,331,278.4,331z"/>
<circle class="st3" cx="278.2" cy="337.6" r="9"/>
<circle class="st1" cx="278.2" cy="337.6" r="4.8"/>
<circle class="st3" cx="359.8" cy="338.6" r="7.9"/>
<circle class="st1" cx="359.8" cy="338.6" r="4.2"/>
<rect x="307.5" y="304.3" class="st3" width="4.4" height="31.5"/>
<rect x="307.5" y="330.1" class="st3" width="62.7" height="1.9"/>
<rect x="291.6" y="319.4" class="st3" width="2.1" height="0.8"/>
<path class="st3" d="M383.4,316.4c0,0-0.1-0.1-0.1-0.2l2.9-27.1c0-0.1,0.1-0.2,0.2-0.2h0c0.1,0,0.2,0.1,0.2,0.2l3.1,27
	c0,0.1-0.1,0.2-0.2,0.2c0,0,0,0,0,0l-6,0.1h0C383.5,316.5,383.4,316.5,383.4,316.4z M386.4,291.1l-2.6,25l5.5-0.1L386.4,291.1z"/>
<path class="st3" d="M270.4,324.1L270.4,324.1c1.1,0.4,1.6,1.6,1.2,2.6l0,0c-0.4,1-1.5,1.5-2.5,1.1l-0.1,0l0,0L270.4,324.1
	L270.4,324.1z"/>
<rect x="385.5" y="263.7" class="st3" width="2.1" height="30.3"/>
<circle class="st3" cx="309.9" cy="295.5" r="2.9"/>
<rect x="314.1" y="327.6" class="st2" width="59.8" height="2.5"/>
<rect x="317.7" y="325" class="st2" width="59.8" height="2.5"/>
<rect x="315.1" y="323" class="st2" width="59.8" height="2.5"/>
<rect x="318.7" y="320.5" class="st2" width="59.8" height="2.5"/>
<path class="st1" d="M412.8,175.5c1.9,0,3.7,0.7,5.2,1.9c1.1-0.3,2.3-0.4,3.5-0.2c2.5-3.6,7.4-4.5,11-2c2.1,1.5,3.4,3.9,3.4,6.5H405
	C405.8,178.1,409,175.5,412.8,175.5z"/>
<path class="st1" d="M366.2,200.5c1.8,0,3.5,0.6,4.9,1.8c1.1-0.3,2.2-0.3,3.3-0.1c2.4-3.4,7-4.3,10.4-1.9c2,1.4,3.2,3.7,3.2,6.2
	h-29.2C359.6,203,362.7,200.5,366.2,200.5z"/>
<path class="st1" d="M319.8,159.3c1.9,0,3.7,0.7,5.1,1.9c1.1-0.3,2.3-0.4,3.4-0.2c2.4-3.5,7.3-4.4,10.9-2c2.1,1.5,3.4,3.9,3.4,6.4
	h-30.4C312.9,161.9,316.1,159.3,319.8,159.3z"/>
<path class="st1" d="M520.5,237.8v63.3h24.6v-64.2l-5.7,0.2v-13h-4.1l-0.7-28.7c1.7-1.1,2.8-3.7,2.8-6.7c0-0.9-0.1-1.7-0.3-2.6
	c1.6-1.8,1.9-4.4,0.6-6.4c2.2,1.9,5.5,1.7,7.4-0.5c1.9-2.2,1.7-5.5-0.5-7.4c0,0-0.1-0.1-0.1-0.1c2.7-1,4.1-4,3.1-6.8
	c-1-2.7-4-4.1-6.8-3.1c-2.1,0.8-3.4,2.7-3.4,4.9c0,0.1,0,0.2,0,0.2c-2.8-0.9-5.7,0.7-6.6,3.5c-0.1,0.2-0.1,0.5-0.2,0.7
	c-2.5-1.5-5.7-0.7-7.2,1.8c-1.5,2.5-0.7,5.7,1.8,7.2c0.5,0.3,1,0.5,1.6,0.6c0,0,0,0.1,0,0.1c0.5,1.5,1.1,2.9,1.9,4.3
	c-0.4,1.1-0.6,2.3-0.5,3.4c0,3,1.2,5.6,2.8,6.7l-0.7,28.7h-4.1v13.4L520.5,237.8z M535.9,177.4L535.9,177.4c0.1,0,0.2,0,0.2,0
	c0,0.2,0.1,0.3,0.2,0.5C536.2,177.7,536,177.5,535.9,177.4L535.9,177.4z"/>
<rect x="507" y="259.7" class="st3" width="74.7" height="86.4"/>
<rect x="534.3" y="328.6" class="st1" width="20.1" height="17.6"/>
<path class="st1" d="M482.1,146c0,0.1,0,0.1,0,0.2c0,2.4,1,4.6,2.7,6.3c0.1,0.3,0.3,0.6,0.4,0.8c-0.6,1.8-0.9,3.8-0.9,5.7
	c0,6.7,3.4,12.1,7.7,12.1s7.7-5.4,7.7-12.1c0-1.4-0.2-2.9-0.5-4.3c2.7-2.9,3.1-7.3,0.9-10.7c3.7,3.2,9.2,2.8,12.4-0.8
	c3.2-3.7,2.8-9.2-0.8-12.4c-0.1-0.1-0.1-0.1-0.2-0.1c4.6-1.7,6.9-6.7,5.2-11.3s-6.7-6.9-11.3-5.2c-3.5,1.3-5.7,4.6-5.7,8.2
	c0,0.1,0,0.3,0,0.4c-4.6-1.4-9.6,1.2-11,5.8c-0.1,0.4-0.2,0.8-0.3,1.2c-4.2-2.5-9.6-1.1-12.1,3.1c-2.5,4.2-1.1,9.6,3.1,12.1
	C480.2,145.4,481.1,145.8,482.1,146z M497.1,139.9c0.1,0,0.3,0,0.4,0c0.1,0.3,0.2,0.5,0.3,0.8C497.5,140.4,497.3,140.2,497.1,139.9
	L497.1,139.9z"/>
<path class="st2" d="M487.6,231.2h8.8L496,218v0l-1.2-48.3c-1.8,1.1-4.1,1.1-5.9,0l-1.2,48.3v0L487.6,231.2z"/>
<polygon class="st2" points="471.4,240.7 471.4,346.2 512.5,346.2 512.5,239.2 502.9,239.6 502.9,218 481,218 481,240.3 "/>
<path class="st1" d="M586.8,146c0,0.1,0,0.1,0,0.2c0,2.4,1,4.6,2.7,6.3c0.1,0.3,0.3,0.6,0.4,0.8c-0.6,1.8-0.9,3.8-0.9,5.7
	c0,6.7,3.4,12.1,7.7,12.1c4.2,0,7.7-5.4,7.7-12.1c0-1.4-0.2-2.9-0.5-4.3c2.7-2.9,3.1-7.3,0.9-10.7c3.7,3.2,9.2,2.8,12.4-0.8
	s2.8-9.2-0.8-12.4c-0.1-0.1-0.1-0.1-0.2-0.1c4.6-1.7,6.9-6.7,5.2-11.3c-1.7-4.6-6.7-6.9-11.3-5.2c-3.5,1.3-5.7,4.6-5.7,8.2
	c0,0.1,0,0.3,0,0.4c-4.6-1.4-9.6,1.2-11,5.8c-0.1,0.4-0.2,0.8-0.3,1.2c-4.2-2.5-9.6-1.1-12.1,3.1c-2.5,4.2-1.1,9.6,3.1,12.1
	C585,145.4,585.9,145.8,586.8,146z M601.8,139.9c0.1,0,0.3,0,0.4,0c0.1,0.3,0.2,0.5,0.3,0.8C602.3,140.4,602.1,140.2,601.8,139.9
	L601.8,139.9z"/>
<path class="st2" d="M592.3,231.2h8.8l-1.5-61.5c-1.9,0.7-4,0.7-5.9,0L592.3,231.2z"/>
<polygon class="st2" points="576.2,240.7 576.2,346.2 617.2,346.2 617.2,239.2 613.9,239.3 607.7,239.6 607.7,218 585.7,218 
	585.7,240.3 "/>
<rect x="555.5" y="270.2" class="st4" width="10.1" height="10.1"/>
<rect x="539.3" y="270.2" class="st4" width="10.1" height="10.1"/>
<rect x="523" y="270.2" class="st4" width="10.1" height="10.1"/>
<rect x="555.5" y="286.4" class="st4" width="10.1" height="10.1"/>
<rect x="539.3" y="286.4" class="st4" width="10.1" height="10.1"/>
<rect x="523" y="286.4" class="st4" width="10.1" height="10.1"/>
<rect x="555.5" y="302.6" class="st4" width="10.1" height="10.1"/>
<rect x="539.3" y="302.6" class="st4" width="10.1" height="10.1"/>
<rect x="523" y="302.6" class="st4" width="10.1" height="10.1"/>
<rect x="486.9" y="266.1" class="st4" width="10.1" height="10.1"/>
<rect x="486.9" y="282.3" class="st4" width="10.1" height="10.1"/>
<rect x="486.9" y="298.5" class="st4" width="10.1" height="10.1"/>
<rect x="486.9" y="314.8" class="st4" width="10.1" height="10.1"/>
<rect x="591.6" y="266.1" class="st4" width="10.1" height="10.1"/>
<rect x="591.6" y="282.3" class="st4" width="10.1" height="10.1"/>
<rect x="591.6" y="298.5" class="st4" width="10.1" height="10.1"/>
<rect x="591.6" y="314.8" class="st4" width="10.1" height="10.1"/>
<rect x="219" y="345.8" class="st3" width="450" height="1"/>
</svg>
