<?xml version="1.0" encoding="utf-8"?>
<!-- Generator: Adobe Illustrator 25.1.0, SVG Export Plug-In . SVG Version: 6.00 Build 0)  -->
<svg version="1.1" id="b959f442-9ede-455f-a827-2b42a560702a"
	 xmlns="http://www.w3.org/2000/svg" xmlns:xlink="http://www.w3.org/1999/xlink" x="0px" y="0px" viewBox="0 0 740.7 473.9"
	 style="enable-background:new 0 0 740.7 473.9;" xml:space="preserve">
<style type="text/css">
	.st0{fill:url(#SVGID_1_);}
	.st1{fill:#E6E6E6;}
	.st2{fill:#F2F2F2;}
	.st3{fill:#CCCCCC;}
	.st4{fill:#A0616A;}
	.st5{fill:#2F2E41;}
	.st6{fill:#B96EFF;}
	.st7{fill:#3F3D56;}
	.st8{fill:#FFFFFF;}
	.st9{fill:#FFB8B8;}
</style>
<linearGradient id="SVGID_1_" gradientUnits="userSpaceOnUse" x1="-140.1" y1="238.45" x2="880.2" y2="238.45" gradientTransform="matrix(1 0 0 -1 0 476)">
	<stop  offset="0" style="stop-color:#FA7B90"/>
	<stop  offset="1" style="stop-color:#FDD748"/>
</linearGradient>
<rect x="-140.1" y="-124.7" class="st0" width="1020.3" height="724.5"/>
<path class="st1" d="M265.5,193.4c0.5-5.4,1.9-10.7,4.1-15.6c0.6-1.4,1.3-2.7,2-4c0.1-0.1,0-0.3-0.1-0.4c-0.1-0.1-0.3,0-0.4,0.1
	c-2.7,4.8-4.6,10-5.6,15.4c-0.3,1.5-0.5,3-0.6,4.6C264.9,193.8,265.5,193.8,265.5,193.4z"/>
<circle class="st1" cx="273.1" cy="170.9" r="3.8"/>
<path class="st1" d="M265.9,193.5c0.3-3.5,1.2-6.9,2.7-10.1c0.4-0.9,0.8-1.8,1.3-2.6c0.1-0.1,0-0.2-0.1-0.3c-0.1,0-0.2,0-0.3,0.1
	c-1.7,3.1-3,6.5-3.6,10c-0.2,1-0.3,2-0.4,3C265.5,193.8,265.9,193.8,265.9,193.5z"/>
<circle class="st1" cx="270.8" cy="178.9" r="2.5"/>
<path class="st1" d="M265.4,193.3c-1.9-3-3.3-6.2-4.1-9.6c-0.2-0.9-0.4-1.9-0.6-2.9c0-0.1-0.1-0.2-0.2-0.2s-0.2,0.1-0.2,0.2
	c0.5,3.5,1.6,6.9,3.3,10.1c0.5,0.9,1,1.7,1.5,2.6C265.2,193.7,265.5,193.5,265.4,193.3z"/>
<circle class="st1" cx="260.3" cy="178.8" r="2.5"/>
<path class="st2" d="M257.8,195.5v-4.9c0-1,0.8-1.8,1.8-1.8H271c1,0,1.8,0.8,1.8,1.8v4.9c0,1-0.8,1.8-1.8,1.8h-11.3
	C258.6,197.3,257.8,196.5,257.8,195.5z"/>
<path class="st2" d="M270.6,164.5h-4.9c-1,0-1.8-0.8-1.8-1.8v-19.8c0-1,0.8-1.8,1.8-1.8h4.9c1,0,1.8,0.8,1.8,1.8v19.8
	C272.4,163.7,271.6,164.5,270.6,164.5z"/>
<rect x="264.1" y="144.8" class="st3" width="8.1" height="1.6"/>
<rect x="264.1" y="157.4" class="st3" width="8.1" height="1.6"/>
<path class="st2" d="M282.7,164.5h-4.9c-1,0-1.8-0.8-1.8-1.8v-19.8c0-1,0.8-1.8,1.8-1.8h4.9c1,0,1.8,0.8,1.8,1.8v19.8
	C284.5,163.7,283.7,164.5,282.7,164.5z"/>
<rect x="276.2" y="144.8" class="st3" width="8.1" height="1.6"/>
<rect x="276.2" y="157.4" class="st3" width="8.1" height="1.6"/>
<path class="st2" d="M294.9,164.5H290c-1,0-1.8-0.8-1.8-1.8v-19.8c0-1,0.8-1.8,1.8-1.8h4.9c1,0,1.8,0.8,1.8,1.8v19.8
	C296.7,163.7,295.9,164.5,294.9,164.5z"/>
<rect x="288.4" y="144.8" class="st3" width="8.1" height="1.6"/>
<rect x="288.4" y="157.4" class="st3" width="8.1" height="1.6"/>
<path class="st2" d="M301.3,197.3h-4.9c-1,0-1.8-0.8-1.8-1.8v-19.8c0-1,0.8-1.8,1.8-1.8h4.9c1,0,1.8,0.8,1.8,1.8v19.8
	C303.2,196.5,302.4,197.3,301.3,197.3z"/>
<rect x="294.9" y="177.6" class="st3" width="8.1" height="1.6"/>
<rect x="294.9" y="190.2" class="st3" width="8.1" height="1.6"/>
<path class="st2" d="M313.5,197.3h-4.9c-1,0-1.8-0.8-1.8-1.8v-19.8c0-1,0.8-1.8,1.8-1.8h4.9c1,0,1.8,0.8,1.8,1.8v19.8
	C315.3,196.5,314.5,197.3,313.5,197.3z"/>
<rect x="307" y="177.6" class="st3" width="8.1" height="1.6"/>
<rect x="307" y="190.2" class="st3" width="8.1" height="1.6"/>
<path class="st2" d="M325.6,197.3h-4.9c-1,0-1.8-0.8-1.8-1.8v-19.8c0-1,0.8-1.8,1.8-1.8h4.9c1,0,1.8,0.8,1.8,1.8v19.8
	C327.5,196.5,326.7,197.3,325.6,197.3z"/>
<rect x="319.2" y="177.6" class="st3" width="8.1" height="1.6"/>
<rect x="319.2" y="190.2" class="st3" width="8.1" height="1.6"/>
<path class="st2" d="M269.3,230.1h-4.9c-1,0-1.8-0.8-1.8-1.8v-19.8c0-1,0.8-1.8,1.8-1.8h4.9c1,0,1.8,0.8,1.8,1.8v19.8
	C271.2,229.3,270.4,230.1,269.3,230.1z"/>
<rect x="262.9" y="210.5" class="st3" width="8.1" height="1.6"/>
<rect x="262.9" y="223" class="st3" width="8.1" height="1.6"/>
<path class="st2" d="M281.5,230.1h-4.9c-1,0-1.8-0.8-1.8-1.8v-19.8c0-1,0.8-1.8,1.8-1.8h4.9c1,0,1.8,0.8,1.8,1.8v19.8
	C283.3,229.3,282.5,230.1,281.5,230.1z"/>
<rect x="275" y="210.5" class="st3" width="8.1" height="1.6"/>
<rect x="275" y="223" class="st3" width="8.1" height="1.6"/>
<path class="st2" d="M293.7,230.1h-4.9c-1,0-1.8-0.8-1.8-1.8v-19.8c0-1,0.8-1.8,1.8-1.8h4.9c1,0,1.8,0.8,1.8,1.8v19.8
	C295.5,229.3,294.7,230.1,293.7,230.1z"/>
<rect x="287.2" y="210.5" class="st3" width="8.1" height="1.6"/>
<rect x="287.2" y="223" class="st3" width="8.1" height="1.6"/>
<path class="st2" d="M307,164.5h-4.9c-1,0-1.8-0.8-1.8-1.8v-19.8c0-1,0.8-1.8,1.8-1.8h4.9c1,0,1.8,0.8,1.8,1.8v19.8
	C308.8,163.7,308,164.5,307,164.5z"/>
<rect x="300.5" y="144.8" class="st3" width="8.1" height="1.6"/>
<rect x="300.5" y="157.4" class="st3" width="8.1" height="1.6"/>
<path class="st2" d="M319.2,164.5h-4.9c-1,0-1.8-0.8-1.8-1.8v-19.8c0-1,0.8-1.8,1.8-1.8h4.9c1,0,1.8,0.8,1.8,1.8v19.8
	C321,163.7,320.2,164.5,319.2,164.5z"/>
<rect x="312.7" y="144.8" class="st3" width="8.1" height="1.6"/>
<rect x="312.7" y="157.4" class="st3" width="8.1" height="1.6"/>
<path class="st2" d="M331.3,164.5h-4.9c-1,0-1.8-0.8-1.8-1.8v-19.8c0-1,0.8-1.8,1.8-1.8h4.9c1,0,1.8,0.8,1.8,1.8v19.8
	C333.1,163.7,332.3,164.5,331.3,164.5z"/>
<rect x="324.8" y="144.8" class="st3" width="8.1" height="1.6"/>
<rect x="324.8" y="157.4" class="st3" width="8.1" height="1.6"/>
<path class="st2" d="M343.5,164.5h-4.9c-1,0-1.8-0.8-1.8-1.8v-19.8c0-1,0.8-1.8,1.8-1.8h4.9c1,0,1.8,0.8,1.8,1.8v19.8
	C345.3,163.7,344.5,164.5,343.5,164.5z"/>
<rect x="337" y="144.8" class="st3" width="8.1" height="1.6"/>
<rect x="337" y="157.4" class="st3" width="8.1" height="1.6"/>
<path class="st3" d="M361.7,165.1H246.2c-0.2,0-0.4-0.2-0.4-0.4s0.2-0.4,0.4-0.4h115.4c0.2,0,0.4,0.2,0.4,0.4
	S361.9,165.1,361.7,165.1z"/>
<path class="st3" d="M361.7,197.9H246.2c-0.2,0-0.4-0.2-0.4-0.4s0.2-0.4,0.4-0.4h115.4c0.2,0,0.4,0.2,0.4,0.4
	S361.9,197.9,361.7,197.9z"/>
<path class="st3" d="M361.7,230.7H246.2c-0.2,0-0.4-0.2-0.4-0.4s0.2-0.4,0.4-0.4h115.4c0.2,0,0.4,0.2,0.4,0.4
	C362.1,230.5,361.9,230.7,361.7,230.7z"/>
<path class="st3" d="M354.8,294.3c0-3.1-11.8-5.7-26.3-5.7s-26.3,2.5-26.3,5.7c0,2,4.8,3.8,12.2,4.8v31.1c0,1.5,1.2,2.6,2.6,2.6
	c1.5,0,2.6-1.2,2.6-2.6v-30.5c2.8,0.2,5.8,0.3,8.9,0.3s6.1-0.1,8.9-0.3v30.5c0,1.5,1.2,2.6,2.6,2.6s2.6-1.2,2.6-2.6v-31.1
	C350,298.1,354.8,296.3,354.8,294.3z"/>
<polygon class="st4" points="349.8,327.7 354.7,327.7 357.1,308.5 349.8,308.5 "/>
<path class="st5" d="M364.3,332.3h-15.6l0,0v-6l0,0h9.6C361.6,326.3,364.3,329,364.3,332.3L364.3,332.3L364.3,332.3z"/>
<polygon class="st4" points="357.5,324.9 362.3,323.4 358.8,304.4 351.8,306.6 "/>
<path class="st5" d="M372.8,324.9l-14.9,4.7l0,0l-1.8-5.8l0,0l9.1-2.9C368.4,320,371.8,321.8,372.8,324.9L372.8,324.9L372.8,324.9z"
	/>
<path class="st5" d="M354.2,316.1l-9.1-23.8c-2,0.5-19.1,4.3-24.9-1.8c-2-2.1-2.3-5.1-1.1-9l3.3-4.2h0.1c1.3,0.1,31,1.7,33,10.7
	c1.7,7.6,4.9,21.6,5.8,25.8c0.2,0.9-0.3,1.8-1.1,2.1l-3.7,1.4c-0.2,0.1-0.4,0.1-0.6,0.1C355.2,317.3,354.5,316.8,354.2,316.1z"/>
<path class="st5" d="M348.9,318.9l-9.1-23.8c-2,0.5-19.1,4.3-24.9-1.8c-2-2.1-2.3-5.1-1.1-9l3.3-4.2h0.1c1.3,0.1,31,1.7,33,10.7
	c1.7,7.6,4.9,21.6,5.8,25.8c0.2,0.9-0.3,1.8-1.1,2.1l-3.7,1.4c-0.2,0.1-0.4,0.1-0.6,0.1C349.9,320.1,349.2,319.6,348.9,318.9z"/>
<path class="st4" d="M361.2,261.8c-0.1,0.2-0.3,0.4-0.4,0.6l-20,2.1l-2.9-3.9l-6.5,3.6l5.6,9.6l24.5-6.2c1.7,1.6,4.4,1.6,6-0.1
	s1.6-4.4-0.1-6s-4.4-1.6-6,0.1C361.4,261.5,361.3,261.6,361.2,261.8L361.2,261.8z"/>
<path class="st6" d="M313.7,285.5c-0.6-0.4-0.8-1.1-0.7-1.8c1.1-7.4-0.2-18.1-1.5-25.7c-0.9-5.5,2.7-10.7,8.2-11.6
	c1-0.2,2-0.2,2.9-0.1c1.4,0.2,2.7,0.4,4,0.8l0,0c4.5,1.1,7.6,5.3,7.5,9.9c-0.2,7.4,1.3,16.5,2,20.1c0.1,0.5,0,1-0.3,1.4
	s-0.8,0.7-1.3,0.7c-7.2,0.7-15,4.3-19,6.3c-0.3,0.1-0.5,0.2-0.8,0.2C314.4,285.9,314,285.7,313.7,285.5z"/>
<path class="st6" d="M333.2,266.3c-0.5-0.2-0.8-0.5-1-1l-4-9.3c-1-2.4,0.1-5.1,2.4-6.1c2.4-1,5.1,0.1,6.1,2.4l4,9.3
	c0.4,0.9,0,2-0.9,2.4l-5.2,2.3C334.2,266.5,333.7,266.5,333.2,266.3L333.2,266.3z"/>
<path class="st4" d="M342.2,261c-0.1,0.2-0.3,0.4-0.4,0.6l-20,2.1l-2.9-3.9l-6.5,3.6l5.6,9.6l24.5-6.2c1.7,1.6,4.4,1.6,6-0.1
	s1.6-4.4-0.1-6s-4.4-1.6-6,0.1C342.4,260.7,342.3,260.8,342.2,261L342.2,261z"/>
<path class="st6" d="M314.2,266.8c-0.5-0.2-0.8-0.5-1-1l-4-9.3c-1-2.4,0.1-5.1,2.4-6.1c2.4-1,5.1,0.1,6.1,2.4l0,0l4,9.3
	c0.4,0.9,0,2-0.9,2.4l-5.2,2.3C315.1,266.9,314.6,266.9,314.2,266.8L314.2,266.8z"/>
<circle class="st4" cx="322" cy="233.3" r="9.9"/>
<path class="st5" d="M314.9,240.1c-0.2-0.5,0.1-0.9,0.5-1.1c0.1,0,0.1,0,0.2,0c0.5,0,1.1,0.3,1.4,0.7c0.4,0.4,0.8,0.8,1.2,1.1
	c0.5,0.2,1.1,0.2,1.4-0.3c0.3-0.4,0.1-1-0.1-1.5c-0.4-1.3-0.6-2.6-0.7-4c0-1.5,0.2-3.1,1-4.2c1.1-1.5,3-2.1,4.8-2s3.6,0.6,5.4,1
	c0.6,0.1,1.3,0.2,1.8-0.3c0.4-0.5,0.3-1.3,0.1-2c-0.5-1.8-1-3.6-2.1-5.1c-1.2-1.5-3-2.5-4.9-2.8c-1.8-0.2-3.7,0-5.5,0.6
	c-2.8,0.9-5.3,2.6-7.2,5c-1.9,2.5-2.7,5.6-2.3,8.7c0.4,2.7,1.9,5.1,4,6.8L314.9,240.1z"/>
<path class="st7" d="M276.9,264.1c0.5-5.4,1.9-10.7,4.1-15.6c0.6-1.4,1.3-2.7,2-4c0.1-0.1,0-0.3-0.1-0.4c-0.1-0.1-0.3,0-0.4,0.1
	c-2.7,4.8-4.6,10-5.6,15.4c-0.3,1.5-0.5,3-0.6,4.6C276.2,264.5,276.8,264.5,276.9,264.1z"/>
<circle class="st6" cx="284.4" cy="241.6" r="3.8"/>
<path class="st7" d="M277.3,264.2c0.3-3.5,1.2-6.9,2.7-10.1c0.4-0.9,0.8-1.8,1.3-2.6c0.1-0.1,0-0.2-0.1-0.3c-0.1,0-0.2,0-0.3,0.1
	c-1.7,3.1-3,6.5-3.6,10c-0.2,1-0.3,2-0.4,3C276.8,264.4,277.2,264.4,277.3,264.2z"/>
<circle class="st6" cx="282.2" cy="249.6" r="2.5"/>
<path class="st7" d="M276.8,263.9c-1.9-3-3.3-6.2-4.1-9.6c-0.2-0.9-0.4-1.9-0.6-2.9c0-0.1-0.1-0.2-0.2-0.2s-0.2,0.1-0.2,0.2
	c0.5,3.5,1.6,6.9,3.3,10.1c0.5,0.9,1,1.7,1.5,2.6C276.6,264.4,276.9,264.2,276.8,263.9L276.8,263.9z"/>
<circle class="st6" cx="271.7" cy="249.4" r="2.5"/>
<path class="st3" d="M269.2,266.1v-4.9c0-1,0.8-1.8,1.8-1.8h11.3c1,0,1.8,0.8,1.8,1.8v4.9c0,1-0.8,1.8-1.8,1.8H271
	C270,268,269.2,267.1,269.2,266.1z"/>
<path class="st3" d="M338.8,264.7h32c0.8,0,1.4,0.6,1.4,1.4l0,0c0,0.8-0.6,1.4-1.4,1.4h-32c-0.8,0-1.4-0.6-1.4-1.4l0,0
	C337.4,265.4,338.1,264.7,338.8,264.7z"/>
<path class="st3" d="M392.3,267.6h-36c-1.5,0-2.6-1.2-2.6-2.6v-19.8c0-1.5,1.2-2.6,2.6-2.6h36c1.5,0,2.6,1.2,2.6,2.6V265
	C394.9,266.4,393.8,267.6,392.3,267.6z"/>
<circle class="st8" cx="374.3" cy="255" r="2.4"/>
<path class="st3" d="M484,294.3c0-3.1-11.8-5.7-26.3-5.7s-26.3,2.5-26.3,5.7c0,2,4.8,3.8,12.2,4.8v31.1c0,1.5,1.2,2.6,2.6,2.6
	c1.5,0,2.6-1.2,2.6-2.6v-30.5c2.8,0.2,5.8,0.3,8.9,0.3s6.1-0.1,8.9-0.3v30.5c0,1.5,1.2,2.6,2.6,2.6s2.6-1.2,2.6-2.6v-31.1
	C479.2,298.1,484,296.3,484,294.3z"/>
<circle class="st5" cx="460.6" cy="231" r="11.3"/>
<polygon class="st9" points="432.4,328.1 427.4,328.1 425.1,308.9 432.4,308.9 "/>
<path class="st5" d="M423.9,326.7h9.6l0,0v6l0,0h-15.6l0,0l0,0C417.9,329.4,420.6,326.7,423.9,326.7L423.9,326.7z"/>
<polygon class="st9" points="424.7,325.3 419.9,323.8 423.4,304.8 430.4,307 "/>
<path class="st5" d="M417,321.4l9.1,2.9l0,0l-1.8,5.8l0,0l-14.9-4.7l0,0l0,0C410.4,322.2,413.8,320.4,417,321.4z"/>
<path class="st5" d="M426.3,317.7c-0.2,0-0.4,0-0.6-0.1l-3.7-1.4c-0.8-0.3-1.3-1.2-1.1-2.1c0.9-4.1,4.1-18.2,5.8-25.8
	c2-9,31.7-10.6,33-10.7h0.1l3.3,4.2c1.2,3.9,0.8,6.9-1.1,9c-5.7,6.1-22.8,2.3-24.9,1.8l-9.1,23.8C427.7,317.2,427,317.7,426.3,317.7
	z"/>
<path class="st5" d="M431.5,320.5c-0.2,0-0.4,0-0.6-0.1l-3.7-1.4c-0.8-0.3-1.3-1.2-1.1-2.1c0.9-4.1,4.1-18.2,5.8-25.8
	c2-9,31.7-10.6,33-10.7h0.1l3.3,4.2c1.2,3.9,0.8,6.9-1.1,9c-5.7,6.1-22.8,2.3-24.9,1.8l-9.1,23.8C433,320,432.3,320.5,431.5,320.5z"
	/>
<path class="st9" d="M421,262.2c0.1,0.2,0.3,0.4,0.4,0.6l20,2.1l2.9-3.9l6.5,3.6L445,274l-24.5-6.2c-1.7,1.6-4.4,1.6-6-0.1
	s-1.6-4.4,0.1-6s4.4-1.6,6,0.1C420.7,261.9,420.9,262,421,262.2L421,262.2z"/>
<path class="st6" d="M467.4,286.3c-0.3,0-0.6-0.1-0.8-0.2c-4-2-11.8-5.5-19-6.3c-0.5,0-1-0.3-1.3-0.7c-0.3-0.4-0.4-0.9-0.3-1.4
	c0.7-3.6,2.1-12.8,2-20.1c-0.1-4.7,3-8.8,7.5-9.9l0,0c1.3-0.3,2.7-0.6,4-0.8c5.5-0.7,10.5,3.2,11.2,8.7c0.1,1,0.1,2-0.1,2.9
	c-1.3,7.6-2.6,18.3-1.5,25.7c0.1,0.7-0.2,1.4-0.7,1.8C468.1,286.1,467.8,286.3,467.4,286.3z"/>
<path class="st6" d="M448.3,266.9c-0.2,0-0.5-0.1-0.7-0.2l-5.2-2.3c-0.9-0.4-1.3-1.5-0.9-2.4l4-9.3c1-2.4,3.8-3.4,6.1-2.4
	c2.4,1,3.4,3.8,2.4,6.1l0,0l-4,9.3C449.7,266.4,449,266.9,448.3,266.9L448.3,266.9z"/>
<circle class="st9" cx="460.2" cy="233.7" r="9.9"/>
<path class="st5" d="M450.1,228.8c4.7,2.9,10,4.6,15.5,5.1l-1.6-2c1.2,0.4,2.4,0.7,3.7,0.7c1.3,0,2.6-0.5,3.3-1.6
	c0.7-1.1,0.7-2.4,0.3-3.5c-0.5-1.1-1.3-2.1-2.3-2.8c-3.5-2.8-8.2-3.6-12.5-2.2c-1.4,0.4-2.7,1.3-3.7,2.4c-0.9,1.2-2.8,2.2-2.3,3.6
	L450.1,228.8z"/>
<path class="st5" d="M461.9,220.8c-3.1-3.2-6.9-5.6-11.1-7.2c-2.7-1-5.6-1.6-8.4-1s-5.5,2.5-6.3,5.3c-0.6,2.3,0,4.7,1,6.8
	s2.3,4.1,3.1,6.3c2.7,7.5-1.1,15.7-8.6,18.4c-1.9,0.7-3.9,1-5.9,0.8c2.8,0.4,5.3,1.7,8,2.4s5.9,0.6,7.9-1.3c2.1-2,2.2-5.4,2.1-8.3
	l-0.5-13.1c-0.1-2.2-0.1-4.5,0.7-6.6s2.7-3.9,5-3.9c1.7,0,3.2,1,4.6,2.1s2.8,2.1,4.5,2.2c1.7,0.2,3.6-1.1,3.5-2.8"/>
<polygon class="st1" points="415.6,254.8 438.6,255.4 441.9,279.9 420.7,280.3 "/>
<path class="st9" d="M440,261.4c0.1,0.2,0.3,0.4,0.4,0.6l20,2.1l2.9-3.9l6.5,3.6l-5.6,9.6l-24.5-6.2c-1.7,1.6-4.4,1.6-6-0.1
	s-1.6-4.4,0.1-6s4.4-1.6,6,0.1C439.8,261.1,439.9,261.2,440,261.4L440,261.4z"/>
<path class="st6" d="M467.3,267.3c-0.2,0-0.5-0.1-0.7-0.2l-5.2-2.3c-0.9-0.4-1.3-1.5-0.9-2.4l4-9.3c1-2.4,3.8-3.4,6.1-2.4
	c2.4,1,3.4,3.8,2.4,6.1l0,0l-4,9.3C468.7,266.9,468.1,267.3,467.3,267.3L467.3,267.3z"/>
<path class="st7" d="M420.3,267.2H259c-1.5,0-2.6,1.2-2.6,2.6s1.2,2.6,2.6,2.6h4.7v57.3c0,1.5,1.2,2.6,2.6,2.6
	c1.5,0,2.6-1.2,2.6-2.6v-52.3l29.5,53.5c0.7,1.3,2.3,1.7,3.6,1c1.3-0.7,1.7-2.3,1-3.6l-30.9-55.9h141l0,0l-30.8,55.9
	c-0.7,1.3-0.3,2.9,1,3.6s2.9,0.3,3.6-1l0,0l26.3-47.6v46.4c0,1.5,1.2,2.6,2.6,2.6s2.6-1.2,2.6-2.6v-55.9l0.8-1.4h1.1
	c1.5,0,2.6-1.2,2.6-2.6S421.7,267.2,420.3,267.2L420.3,267.2z"/>
<path class="st7" d="M519.9,333h-299c-0.3,0-0.5-0.2-0.5-0.5s0.2-0.5,0.5-0.5h299c0.3,0,0.5,0.2,0.5,0.5
	C520.3,332.7,520.1,333,519.9,333z"/>
</svg>
